<?xml version="1.0"?>
<svg xmlns="http://www.w3.org/2000/svg" viewBox="0 0 64 64" width="512" height="512"><g id="outline"><path d="M45,2H15a1,1,0,0,0-.707.293l-10,10A1,1,0,0,0,4,13V61a1,1,0,0,0,1,1H45a1,1,0,0,0,1-1V3A1,1,0,0,0,45,2ZM14,5.414V12H7.414ZM44,60H6V14h9a1,1,0,0,0,1-1V4H44Z"/><path d="M59,11H49a1,1,0,0,0-1,1V48a1.828,1.828,0,0,0,.063.352l3,8a1,1,0,0,0,1.874,0l3-8A1.828,1.828,0,0,0,56,48V13h2V23h2V12A1,1,0,0,0,59,11Zm-9,2h4v2H50Zm0,22h4v8H50Zm2,18.152L50.443,49h3.114ZM54,47H50V45h4ZM50,33V17h4V33Z"/><rect x="18" y="16" width="14" height="2"/><rect x="12" y="20" width="26" height="2"/><rect x="12" y="24" width="26" height="2"/><rect x="12" y="28" width="26" height="2"/><rect x="12" y="32" width="26" height="2"/><path d="M37.293,36.293,35.586,38H24V50H36V40.414l2.707-2.707ZM34,48H26V40h7.586L30,43.586l-1.293-1.293-1.414,1.414L30,46.414l4-4Z"/><rect x="12" y="40" width="8" height="2"/><rect x="12" y="44" width="4" height="2"/><rect x="18" y="44" width="2" height="2"/></g></svg>
