<svg xmlns="http://www.w3.org/2000/svg" viewBox="0 0 922.07 690.1"><defs><style>.cls-1{fill:#76c5ab;}.cls-2{fill:#005b56;}.cls-3{fill:#fff;}.cls-4{fill:#37b48d;}.cls-5{isolation:isolate;}.cls-6{fill:#231815;}.cls-7{fill:#65bfa1;}.cls-8{fill:#595757;}.cls-9{fill:#3e3a39;}</style></defs><title>toumei</title><g id="レイヤー_2" data-name="レイヤー 2"><g id="レイヤー_1-2" data-name="レイヤー 1"><path class="cls-1" d="M879.5,186.2A660.49,660.49,0,0,1,805.6,218a315.08,315.08,0,0,0-22.3-25.3c-25.4-25.6-58-49.7-96.9-71.6-11.1-6.3-32.2-18.9-44.2-25.3,23.5-31.7,42.6-59.5,70.4-84.2l-64.7,1.8C630.7,36.5,624.8,49,605.6,75c-48.2-24.9-71.3-41.6-134.5-61.6H327.9c39.8,4.1,63,7.2,93.3,21L372.9,148.9c-32.4-11.5-64.6-23.4-95.9-35.2L291.2,13.5H279.8l-13.6,96.2c-14.5-5.5-28.8-10.9-42.7-16.3l11.4-79.9H223.5L212.6,89.2c-12.8-5-25.3-9.8-37.4-14.6l25.4-61.1H176.1L154.2,66.3C106,47.2,66,30.8,39.9,20.1l2.8-6.6H26.3l-.3.8-1.9-.8H4.4V47.3c1.2.5,5.3,1,6.7,1.6L4.4,57.8V96L25,54.6C51.1,65.5,91.4,82,139.6,101.1l-36.2,87-99-37.3v11.1l95.1,35.9L54.5,306c-17.8-7-36.7-13-50.1-18v23.1c11.5,4.3,27.5,9.3,41.8,14.9L4.4,419.6v69.5l9.2-25.8L67.3,334.2c15.4,6.2,31.8,12.9,48.7,20.1,12.6,5.3,24.8,10.7,36.7,16L54.1,579,4,556.6,0,569.5l48.6,21.2L4.9,683.8H17.8L59,595.3l18.4,8.1L41.6,683.8H53l34-76.3,21.9,9.6-31,66.7H89.3l29.1-62.5c44.8,19.7,85.5,37.5,86.8,38.2a20.49,20.49,0,0,0,8.7,2.3l-17.3,22.3h39.6l16.9-21.6,1.6,21.6h11.4l-3.2-35.8,30.9-44.6,48.3,30.5-32.9,49.9h29.7L461.8,484.3l115.8,71.9c-34.3,60.8-66.1,117.2-70.4,127.9H575c5.1-11,139.1-241.9,144.7-251.7a331.12,331.12,0,0,1,47-63.3c20.2-25.6,45.7-56.4,74.4-87.2-.4-1.1-.8-2.2-1.2-3.4a209.65,209.65,0,0,0-12.7-28.2,721.88,721.88,0,0,0,69.2-30.4c6.8-3.4,13.5-6.8,20-10.3l1.4-1.1M628.3,118.7c14.3,7.6,53,25.9,64.4,35.7,33.7,28.7,45.6,56.5,50.2,80.8-21.2,3.7-40.3,4.7-57.2,2.8-30.5-3.4-80.9-16.8-126-29.3C575.3,187.3,613,139.4,628.3,118.7ZM446,36.4c56.5,16.8,94.4,38.7,142.7,63.4-16.5,22.5-51,77.3-67.8,100.4-45.2-13.5-76.9-26.3-126.5-43.7ZM514.7,236c-10.9,15-13.3,18.7-24,33.5l-43-16.5,15.8-33.2q26.7,8.85,51.2,16.2ZM378.9,191.2q33.15,11.7,63.5,21.8l-15.3,32.3-58.7-22.5ZM218.7,132c15.6,6,31.6,12.1,47.8,18.2q47.85,18,91.1,33.4l-10.3,31.1-95.2-36.4-2.9,12.1,234.7,89.8c-36.8,51.1-83.1,114.5-112.7,157.4l-.4-.5-14.6,21c-30.1-23.1-71.3-47.9-123.4-74l-11.7-90.8A701.79,701.79,0,0,1,218.7,132Zm-1.2,268.8,6.3,3.2,17.7,155.9-67.8-61.7ZM164,494.3l-22.3-5.6,46.9-101.8c6.7,3.1,13.2,6.2,19.5,9.4ZM124.4,334.4c-16.9-7.2-33.4-13.9-48.8-20.1l85.2-204.8c15.1,5.9,30.8,12.1,47,18.3a728.71,728.71,0,0,0,2.1,167l10.7,83.3Q177,356.8,124.4,334.4Zm0,124.4L162,374.6c5.8,2.6,11.6,5.3,17.2,7.9L131.5,486.2l-18-4.5Zm-41.6,133-18.2-8.1,44.3-92.6,18.2,4.4Zm31.1,14-21.7-9.7,45.2-98c8.9,2.2,17.4,4.3,22.4,5.6Zm105.9,47.4L123.4,610l20.2-45-.8,3.5c3.8-1.9,91.3,52.8,96.8,56.3Zm25.5-36.5-97.9-60,21.4-47.6,74.8,69.1,4,35.3Zm12.1-17.4L236,410.2c36,18.6,66.4,36.4,90.6,53.2l13.8,12Zm92.7,22-47.6-30,88.6-127.9c3.6-5.3,7.4-10.7,11.2-16.1l39.3,24.4ZM464.2,436.8,426,413.7,436.1,399C470,351,508,298.3,546.4,245.5q20.85,6,39.6,10.8L472.2,425Zm201.4-35.3c-4.7,8.3-34.4,60.1-66.9,117.4-31.6-19.6-77.3-47.4-115.4-70.5l6.4-10.7L608.5,261.8q42.75,10.2,73,13.6a203.18,203.18,0,0,0,22.1,1.2q30.45,0,66.1-8.5c2,3.1,3.9,6.2,5.6,9.3-48.5,38.2-82.7,77.1-109.7,124.1Z"/><path class="cls-2" d="M130.6,226.2l63,24.2A11.73,11.73,0,0,1,201,260l10.4,88.1a11.64,11.64,0,0,1-10.3,13,12.63,12.63,0,0,1-6.1-.9L92.9,315a11.78,11.78,0,0,1-6-15.4l28.7-67.2A11.73,11.73,0,0,1,130.6,226.2Z"/><g id="地下鉄"><path class="cls-3" d="M544.7,684.8a2.16,2.16,0,0,1-1.9-1.3,2,2,0,0,1-.1-.8c0-.6,0-1.4,6.6-14.5a2,2,0,1,1,3.6,1.8c-5,10-6,12.4-6.2,12.9a2.14,2.14,0,0,1-1.2,1.7A1.34,1.34,0,0,1,544.7,684.8Zm15-30.6a2.92,2.92,0,0,1-.9-.2,2,2,0,0,1-.9-2.7c2.1-4.1,4.5-8.6,7-13.3a2,2,0,1,1,3.5,1.9c-2.5,4.8-4.8,9.2-7,13.3A1.72,1.72,0,0,1,559.7,654.2ZM575.6,624a2.92,2.92,0,0,1-.9-.2,2,2,0,0,1-.8-2.7c2.3-4.3,4.7-8.7,7.1-13.3a2,2,0,1,1,3.5,1.9c-2.5,4.6-4.8,9-7.1,13.2A2,2,0,0,1,575.6,624Zm16.2-30a3.55,3.55,0,0,1-1-.2,2,2,0,0,1-.8-2.7c2.3-4.3,4.8-8.7,7.2-13.2a2,2,0,1,1,3.5,1.9q-3.75,6.75-7.2,13.2A1.94,1.94,0,0,1,591.8,594Zm16.5-29.8a1.93,1.93,0,0,1-1-.3,2,2,0,0,1-.8-2.7c2.4-4.3,4.8-8.7,7.3-13.1a2,2,0,1,1,3.5,1.9c-2.5,4.4-4.9,8.8-7.3,13.1A2,2,0,0,1,608.3,564.2Zm16.6-29.7a1.93,1.93,0,0,1-1-.3,2,2,0,0,1-.8-2.7c2.5-4.3,4.9-8.7,7.4-13.1a2,2,0,0,1,3.4,2c-2.5,4.4-5,8.7-7.4,13A1.62,1.62,0,0,1,624.9,534.5Zm17-29.6a1.93,1.93,0,0,1-1-.3,1.9,1.9,0,0,1-.7-2.7c2.5-4.3,5-8.7,7.6-13a2,2,0,0,1,3.4,2c-2.5,4.3-5.1,8.7-7.6,13A1.86,1.86,0,0,1,641.9,504.9Zm17.2-29.4a1.93,1.93,0,0,1-1-.3,2,2,0,0,1-.7-2.7c2.6-4.3,5.1-8.6,7.7-12.9a2.08,2.08,0,0,1,2.7-.7,2,2,0,0,1,.7,2.7c-2.6,4.3-5.1,8.6-7.7,12.9A1.76,1.76,0,0,1,659.1,475.5Zm17.6-29.1a1.69,1.69,0,0,1-1-.3,2.18,2.18,0,0,1-.7-2.8c2.6-4.3,5.3-8.6,7.9-12.8a2,2,0,1,1,3.4,2.2c-2.6,4.2-5.3,8.5-7.9,12.8A2.07,2.07,0,0,1,676.7,446.4Zm18.1-28.9a2.28,2.28,0,0,1-1.1-.3,2.05,2.05,0,0,1-.6-2.8c2.8-4.3,5.5-8.6,8.2-12.6a2,2,0,0,1,3.4,2.2l-8.2,12.6A2,2,0,0,1,694.8,417.5ZM713.5,389a2,2,0,0,1-1.1-.3,2,2,0,0,1-.5-2.8c2.9-4.3,5.8-8.5,8.6-12.4a2,2,0,1,1,3.3,2.3l-8.5,12.3A2.27,2.27,0,0,1,713.5,389Zm19.7-27.8a1.92,1.92,0,0,1-1.2-.4,2,2,0,0,1-.4-2.8c3.2-4.3,6.3-8.3,9.2-12a2,2,0,1,1,3.1,2.5c-2.9,3.6-6,7.6-9.1,11.9A1.82,1.82,0,0,1,733.2,361.2Zm21.5-26.4a2.11,2.11,0,0,1-1.3-.5,2,2,0,0,1-.2-2.8l9.9-11.2a2,2,0,1,1,3,2.6l-9.9,11.2A1.93,1.93,0,0,1,754.7,334.8Zm22.5-25.4a2.11,2.11,0,0,1-1.3-.5,2,2,0,0,1-.2-2.8c3.5-3.9,6.8-7.6,10-11.2a2,2,0,0,1,2.9,2.7c-3.2,3.6-6.5,7.3-10,11.1A1.91,1.91,0,0,1,777.2,309.4ZM800,284.2a2.39,2.39,0,0,1-1.4-.5,2,2,0,0,1-.1-2.8c3.7-3.9,7.1-7.5,10.4-10.8a2,2,0,0,1,2.8,2.8c-3.3,3.4-6.7,6.9-10.3,10.8A2,2,0,0,1,800,284.2Zm24-24a2.2,2.2,0,0,1-1.5-.6,1.93,1.93,0,0,1,.1-2.8c3.8-3.5,7.4-6.8,11.2-10a2,2,0,0,1,2.6,3c-3.8,3.2-7.4,6.5-11.1,9.9A1.9,1.9,0,0,1,824,260.2Zm25.9-22a2.09,2.09,0,0,1-1.6-.8,2,2,0,0,1,.4-2.8c3.8-3,7.9-6,12.1-9a2,2,0,0,1,2.3,3.3c-4.2,3-8.2,6-12,8.9A1.92,1.92,0,0,1,849.9,238.2Zm27.6-19.7a2.09,2.09,0,0,1-1.7-.9,2,2,0,0,1,.6-2.8c4-2.6,8.2-5.4,12.6-8.2a2,2,0,0,1,2.2,3.4c-4.4,2.8-8.6,5.5-12.5,8.2A3,3,0,0,1,877.5,218.5Z"/><path class="cls-3" d="M499.2,212.7h-.1c-2.2-.1-4.5-.3-7-.6a60,60,0,0,1-8.3-1.9,2,2,0,0,1,1.1-3.9,66,66,0,0,0,7.6,1.8c2.5.2,4.7.4,6.8.6a2.08,2.08,0,0,1,1.9,2.1A2.05,2.05,0,0,1,499.2,212.7Zm18.9-.5a2,2,0,0,1-.3-4,49.2,49.2,0,0,0,13.8-3.9,2,2,0,0,1,1.6,3.6,51.33,51.33,0,0,1-14.9,4.2C518.3,212.2,518.2,212.2,518.1,212.2Zm-51.9-7.7a1.27,1.27,0,0,1-.6-.1c-4.3-1.4-9.1-3.1-14.3-4.9a2,2,0,0,1-1.2-2.6,2,2,0,0,1,2.6-1.2c5.2,1.8,10,3.5,14.2,4.9a2.12,2.12,0,0,1,1.3,2.5A2.23,2.23,0,0,1,466.2,204.5Zm81.9-7.1a1.82,1.82,0,0,1-1.4-.6,1.93,1.93,0,0,1,.1-2.8c1.6-1.6,3.3-3.3,4.9-5.1l4.3-6.1a2,2,0,1,1,3.3,2.3l-4.5,6.4c-1.7,2-3.5,3.8-5.2,5.5A4.19,4.19,0,0,1,548.1,197.4ZM434,193.2a1.7,1.7,0,0,1-.7-.1c-4.5-1.6-9.2-3.4-14.1-5.2a2,2,0,0,1,1.4-3.8c4.9,1.8,9.6,3.5,14.1,5.2a2,2,0,0,1,1.2,2.6A2.16,2.16,0,0,1,434,193.2Zm-32.1-11.8a1.7,1.7,0,0,1-.7-.1c-4.6-1.7-9.3-3.5-14.1-5.3a2,2,0,0,1,1.4-3.8c4.8,1.8,9.5,3.6,14.1,5.3a2,2,0,0,1,1.2,2.6A2,2,0,0,1,401.9,181.4Zm166.6-11.1a1.92,1.92,0,0,1-1.2-.4,2,2,0,0,1-.5-2.8l8.7-12.3a2,2,0,1,1,3.3,2.3l-8.7,12.3A1.8,1.8,0,0,1,568.5,170.3ZM370,169.4a1.7,1.7,0,0,1-.7-.1c-4.6-1.7-9.3-3.5-14.1-5.3a2,2,0,0,1,1.4-3.8c4.8,1.8,9.4,3.6,14.1,5.3a2,2,0,0,1-.7,3.9Zm-31.8-12.1a1.7,1.7,0,0,1-.7-.1c-4.6-1.8-9.3-3.6-14-5.4a2,2,0,0,1,1.4-3.8c4.7,1.8,9.4,3.6,14,5.4a2,2,0,0,1-.7,3.9Zm-31.8-12.2a1.7,1.7,0,0,1-.7-.1c-4.6-1.8-9.3-3.6-14-5.4a2,2,0,1,1,1.5-3.7c4.7,1.8,9.4,3.6,14,5.4a2,2,0,0,1,1.1,2.6A2.24,2.24,0,0,1,306.4,145.1Zm281.7-2.6a1.92,1.92,0,0,1-1.2-.4,2,2,0,0,1-.5-2.8l8.7-12.3a2,2,0,0,1,3.3,2.3l-8.7,12.3A1.7,1.7,0,0,1,588.1,142.5Zm-313.5-9.7a1.7,1.7,0,0,1-.7-.1c-4.7-1.8-9.3-3.6-14-5.4a2,2,0,0,1,1.5-3.7c4.7,1.8,9.3,3.6,14,5.4a2,2,0,0,1,1.1,2.6A2.24,2.24,0,0,1,274.6,132.8Zm-31.8-12.3a1.7,1.7,0,0,1-.7-.1l-14-5.5a2,2,0,0,1,1.5-3.7l14,5.5a2,2,0,0,1,1.1,2.6A2.12,2.12,0,0,1,242.8,120.5Zm365-5.7a1.92,1.92,0,0,1-1.2-.4,2,2,0,0,1-.5-2.8l8.7-12.3a2,2,0,1,1,3.3,2.3l-8.7,12.3A1.92,1.92,0,0,1,607.8,114.8Zm-396.7-6.7a1.7,1.7,0,0,1-.7-.1l-14-5.5a2,2,0,1,1,1.5-3.7l14,5.5a2,2,0,0,1,1.1,2.6A2.24,2.24,0,0,1,211.1,108.1ZM179.3,95.7a1.7,1.7,0,0,1-.7-.1l-14-5.5a2,2,0,1,1,1.5-3.7l14,5.5a2,2,0,0,1,1.1,2.6A2.12,2.12,0,0,1,179.3,95.7ZM627.4,87a1.92,1.92,0,0,1-1.2-.4,2,2,0,0,1-.5-2.8l8.7-12.3a2,2,0,1,1,3.3,2.3L629,86.1A1.92,1.92,0,0,1,627.4,87ZM147.6,83.2a1.7,1.7,0,0,1-.7-.1l-14-5.5a2,2,0,1,1,1.5-3.7l14,5.5a2,2,0,0,1,1.1,2.6A2.12,2.12,0,0,1,147.6,83.2ZM115.9,70.7a1.7,1.7,0,0,1-.7-.1l-14-5.5a2,2,0,1,1,1.5-3.7l14,5.5a2,2,0,0,1,1.1,2.6A2.12,2.12,0,0,1,115.9,70.7ZM647,59.2a1.92,1.92,0,0,1-1.2-.4,2,2,0,0,1-.5-2.8L654,43.7a2,2,0,0,1,3.3,2.3l-8.7,12.4A2.09,2.09,0,0,1,647,59.2Zm-562.8-1a1.7,1.7,0,0,1-.7-.1l-14-5.5A2,2,0,1,1,71,48.9l14,5.5A2,2,0,0,1,86.1,57,2.12,2.12,0,0,1,84.2,58.2ZM52.5,45.6a1.7,1.7,0,0,1-.7-.1l-14-5.6a2,2,0,1,1,1.5-3.7l14,5.6a2,2,0,0,1,1.1,2.6A2.24,2.24,0,0,1,52.5,45.6ZM20.7,33a1.7,1.7,0,0,1-.7-.1c-9.1-3.6-14.1-5.6-14.1-5.6a2,2,0,1,1,1.5-3.7s5.1,2,14.1,5.6a2,2,0,0,1,1.1,2.6A2.12,2.12,0,0,1,20.7,33Zm645.9-1.5a1.92,1.92,0,0,1-1.2-.4,2,2,0,0,1-.5-2.8L673.6,16a2,2,0,0,1,3.3,2.3l-8.7,12.3A1.92,1.92,0,0,1,666.6,31.5Z"/><path class="cls-3" d="M213.4,689.4a1.92,1.92,0,0,1-1.2-.4,2,2,0,0,1-.5-2.8l3.3-4.7a2,2,0,1,1,3.3,2.3l-3.3,4.7A1.8,1.8,0,0,1,213.4,689.4Zm14.4-20.2a1.92,1.92,0,0,1-1.2-.4,2,2,0,0,1-.5-2.8l8.7-12.2a2,2,0,1,1,3.3,2.3l-8.7,12.2A1.92,1.92,0,0,1,227.8,669.2Zm19.7-27.6a1.92,1.92,0,0,1-1.2-.4,2,2,0,0,1-.5-2.8l8.7-12.2a2,2,0,1,1,3.3,2.3l-8.7,12.2A1.7,1.7,0,0,1,247.5,641.6Zm19.8-27.7a1.92,1.92,0,0,1-1.2-.4,2,2,0,0,1-.5-2.8l8.7-12.2a2,2,0,1,1,3.3,2.3L268.9,613A1.92,1.92,0,0,1,267.3,613.9ZM287,586.2a1.92,1.92,0,0,1-1.2-.4,2,2,0,0,1-.5-2.8l8.7-12.2a2,2,0,1,1,3.3,2.3l-8.7,12.2A1.8,1.8,0,0,1,287,586.2Zm19.8-27.7a1.92,1.92,0,0,1-1.2-.4,2,2,0,0,1-.5-2.8l8.7-12.2a2,2,0,1,1,3.3,2.3l-8.7,12.2A1.92,1.92,0,0,1,306.8,558.5Zm19.7-27.7a1.92,1.92,0,0,1-1.2-.4,2,2,0,0,1-.5-2.8l8.7-12.2a2,2,0,1,1,3.3,2.3l-8.7,12.2A1.8,1.8,0,0,1,326.5,530.8Zm19.8-27.6a1.92,1.92,0,0,1-1.2-.4,2,2,0,0,1-.5-2.8l8.7-12.2a2,2,0,0,1,3.3,2.3l-8.7,12.2A1.92,1.92,0,0,1,346.3,503.2ZM366,475.5a1.92,1.92,0,0,1-1.2-.4,2,2,0,0,1-.5-2.8l8.7-12.2a2,2,0,1,1,3.3,2.3l-8.7,12.2A1.92,1.92,0,0,1,366,475.5Zm19.7-27.7a1.92,1.92,0,0,1-1.2-.4,2,2,0,0,1-.5-2.8l8.7-12.2a2,2,0,1,1,3.3,2.3l-8.7,12.2A1.7,1.7,0,0,1,385.7,447.8Zm19.8-27.7a1.92,1.92,0,0,1-1.2-.4,2,2,0,0,1-.5-2.8l8.8-12.1a2,2,0,1,1,3.3,2.3l-8.7,12.2A2.46,2.46,0,0,1,405.5,420.1Zm19.7-27.7a1.92,1.92,0,0,1-1.2-.4,2,2,0,0,1-.5-2.8l8.7-12.2a2,2,0,1,1,3.3,2.3l-8.7,12.2A1.54,1.54,0,0,1,425.2,392.4ZM445,364.8a1.92,1.92,0,0,1-1.2-.4,2,2,0,0,1-.5-2.8l8.7-12.2a2,2,0,1,1,3.3,2.3l-8.7,12.2A1.92,1.92,0,0,1,445,364.8Zm19.7-27.7a1.92,1.92,0,0,1-1.2-.4,2,2,0,0,1-.5-2.8l8.7-12.2A2,2,0,1,1,475,324l-8.7,12.2A1.7,1.7,0,0,1,464.7,337.1Zm19.8-27.7a1.92,1.92,0,0,1-1.2-.4,2,2,0,0,1-.5-2.8l8.7-12.2a2,2,0,1,1,3.3,2.3l-8.7,12.2A1.92,1.92,0,0,1,484.5,309.4Zm19.7-27.7a1.92,1.92,0,0,1-1.2-.4,2,2,0,0,1-.5-2.8l8.7-12.2a2,2,0,1,1,3.3,2.3l-8.7,12.2A1.8,1.8,0,0,1,504.2,281.7Zm217.4-23.3c-2.2,0-4.3,0-6.5-.1a2,2,0,0,1-2-2,2.07,2.07,0,0,1,2-2c5,.1,10,.1,14.9,0h.1a2,2,0,0,1,2,1.9,2.08,2.08,0,0,1-1.9,2.1C727.3,258.4,724.4,258.4,721.6,258.4Zm-25.5-.9H696c-4.9-.3-10-.8-15-1.3a2,2,0,0,1,.4-4c5,.5,10,1,14.9,1.3a2.08,2.08,0,0,1,1.9,2.1A2.15,2.15,0,0,1,696.1,257.5Zm53-.3a2,2,0,0,1-2-1.8,2,2,0,0,1,1.8-2.2c5-.4,10-1,14.8-1.7a2,2,0,1,1,.6,4c-4.9.7-9.9,1.3-15,1.7ZM524,254a1.92,1.92,0,0,1-1.2-.4,2,2,0,0,1-.5-2.8l4.9-6.8h0a28.39,28.39,0,0,1,4.1-5.5,2,2,0,0,1,2.9,2.7,36.9,36.9,0,0,0-3.3,4.2v.1l-5.4,7.6A1.49,1.49,0,0,1,524,254Zm138.3-.3H662c-4.9-.7-9.9-1.6-14.9-2.5a2,2,0,0,1,.7-3.9c4.9.9,9.9,1.7,14.7,2.5a2.1,2.1,0,0,1,1.7,2.3A1.86,1.86,0,0,1,662.3,253.7Zm120.4-1.5a2.11,2.11,0,0,1-2-1.6,2,2,0,0,1,1.5-2.4c3.7-.8,7.4-1.7,10.9-2.7,1.2-.3,2.3-.6,3.5-1a2,2,0,1,1,1.1,3.9c-1.2.3-2.3.6-3.5,1-3.6,1-7.4,1.9-11.1,2.7A.6.6,0,0,1,782.7,252.2Zm-153.8-4.7h-.4c-4.9-1.1-9.8-2.3-14.7-3.5a2,2,0,1,1,1-3.8c4.8,1.2,9.7,2.4,14.5,3.5a1.92,1.92,0,0,1,1.5,2.4A2.08,2.08,0,0,1,628.9,247.5Zm186.6-4.3a2,2,0,0,1-1.9-1.4,2,2,0,0,1,1.3-2.5c4.8-1.5,9.6-3,14.2-4.5a1.94,1.94,0,0,1,2.5,1.3,2,2,0,0,1-1.3,2.5c-4.6,1.5-9.5,3.1-14.3,4.6ZM596,238.9a1.27,1.27,0,0,1-.6-.1c-5-1.5-9.9-3-14.4-4.6a2,2,0,1,1,1.3-3.7c4.5,1.5,9.3,3,14.2,4.5a1.88,1.88,0,0,1,1.3,2.5A1.92,1.92,0,0,1,596,238.9Zm251.7-6.5a2.05,2.05,0,0,1-1.9-1.3,2,2,0,0,1,1.2-2.6c4.8-1.8,9.5-3.6,13.9-5.4a2,2,0,0,1,1.5,3.7c-4.5,1.8-9.2,3.7-14,5.5A2,2,0,0,1,847.7,232.4Zm-299.2-.8a2,2,0,0,1-1.9-1.4,2,2,0,0,1,1.3-2.5,41.85,41.85,0,0,1,15.5-1.9,2.08,2.08,0,0,1,1.9,2.1,2,2,0,0,1-2.1,1.9,38,38,0,0,0-14,1.7A2,2,0,0,1,548.5,231.6ZM879,219.3a2,2,0,0,1-1.8-1.1,2,2,0,0,1,1-2.7c4.7-2.2,9.1-4.5,13.3-6.7a2,2,0,1,1,1.9,3.5c-4.2,2.3-8.7,4.6-13.5,6.8A1.49,1.49,0,0,1,879,219.3Zm29.6-16.6a2.09,2.09,0,0,1-1.7-.9,2,2,0,0,1,.5-2.8c8.1-5.6,11.2-9.1,11.2-9.1a2,2,0,1,1,3,2.6c-.1.2-3.4,3.8-12,9.8A1.16,1.16,0,0,1,908.6,202.7Z"/></g><circle class="cls-3" cx="459.9" cy="160.3" r="7.3"/><circle class="cls-3" cx="617.7" cy="173.6" r="16.1"/><circle class="cls-4" cx="617.8" cy="173.5" r="7.3"/><circle class="cls-3" cx="274.9" cy="171" r="7.3"/><g id="方位マーク"><g class="cls-5"><path class="cls-3" d="M809.37,477.32a68.9,68.9,0,0,1,3.6,6c-.2-2.3-.3-4.6-.3-7.41V464.45a54.69,54.69,0,0,0-.4-7.62h10.67a54.69,54.69,0,0,0-.4,7.62v26.6a61.42,61.42,0,0,0,.4,7.46H812a53.64,53.64,0,0,0-3.76-6.36l-9.26-14a56.63,56.63,0,0,1-3.61-6.16,72,72,0,0,1,.35,7.47V490.7a54.91,54.91,0,0,0,.4,7.81H785.42a51.68,51.68,0,0,0,.4-7.86V464.3a56.11,56.11,0,0,0-.4-7.47h10.87a32.87,32.87,0,0,0,3.56,6.27Z"/></g><path class="cls-3" d="M803.3,632.6a59.5,59.5,0,1,1,59.5-59.5A59.58,59.58,0,0,1,803.3,632.6Zm0-112.4A52.8,52.8,0,1,0,856.1,573,52.88,52.88,0,0,0,803.3,520.2Z"/><polygon class="cls-3" points="803.3 532.3 782 606.1 803.3 581.5 824.6 606.1 803.3 532.3"/></g><path class="cls-6" d="M612.2,569.9a1.37,1.37,0,0,0-1.4-1.4H579.6a1.37,1.37,0,0,0-1.4,1.4h0v31.2a1.37,1.37,0,0,0,1.4,1.4h31.2a1.37,1.37,0,0,0,1.4-1.4h0"/><path id="train_icon02" data-name="train icon02" class="cls-3" d="M600.6,592.7l2.2-.6a7.88,7.88,0,0,0,1.3-3.9V575.6a3.59,3.59,0,0,0-3.6-3.6H589.9a3.59,3.59,0,0,0-3.6,3.6h0v12.6a6.67,6.67,0,0,0,1.5,3.8l2,.7-5,6.3h2.7l3.5-4.4h8.5L603,599h2.7Zm-9-19.2a.43.43,0,0,1,.4-.4h6.5a.43.43,0,0,1,.4.4v.9a.43.43,0,0,1-.4.4H592a.43.43,0,0,1-.4-.4Zm-3.6,8.9v-5.1a.94.94,0,0,1,1-1h12.4a.94.94,0,0,1,1,1v5.1a.94.94,0,0,1-1,1H589a1,1,0,0,1-1-1Zm2,7.2a1.4,1.4,0,1,1,1.4-1.4h0a1.37,1.37,0,0,1-1.4,1.4Zm9.1-1.4a1.35,1.35,0,1,1,1.4,1.3h0a1.24,1.24,0,0,1-1.4-1.3Z"/><path class="cls-3" d="M478.7,200.9a39.75,39.75,0,0,1-4.7,13l-6.6-1.7-.3-.1c4.3-6,7.7-13.7,4.6-15.5-2.1-1.2-6.4,1.3-9.6,4.1a15.46,15.46,0,0,1,2.4,2.7c2.3,3.3,3.1,6.9-.3,8.2a12.65,12.65,0,0,1-7.7,0c-3.5-1.3-2.7-4.9-.3-8.2a15.46,15.46,0,0,1,2.4-2.7c-3.2-2.8-7.5-5.3-9.6-4.1-3.2,1.8.2,9.6,4.5,15.5l-.3.1-6.6,1.7a47.14,47.14,0,0,1-4.7-13c-1.1-6.7.8-10.7,6.4-9.3,3.7.9,8.5,4.3,12,7.5,3.5-3.1,8.3-6.5,12-7.5C477.9,190.1,479.8,194.1,478.7,200.9Z"/><path class="cls-6" d="M460.3,202.1a10,10,0,0,0-1,1.1c-2.4,3.1-1,4,1,4s3.4-1,1-4C461,202.9,460.7,202.5,460.3,202.1Z"/><path class="cls-6" d="M483.7,177.2H437a2.11,2.11,0,0,0-2.1,2.1V226a2.11,2.11,0,0,0,2.1,2.1h46.7a2.11,2.11,0,0,0,2.1-2.1V179.3A2.18,2.18,0,0,0,483.7,177.2Zm-5,23.7a39.75,39.75,0,0,1-4.7,13l-6.6-1.7-.3-.1c4.3-6,7.7-13.7,4.6-15.5-2.1-1.2-6.4,1.3-9.6,4.1a15.46,15.46,0,0,1,2.4,2.7c2.3,3.3,3.1,6.9-.3,8.2a12.65,12.65,0,0,1-7.7,0c-3.5-1.3-2.7-4.9-.3-8.2a15.46,15.46,0,0,1,2.4-2.7c-3.2-2.8-7.5-5.3-9.6-4.1-3.2,1.8.2,9.6,4.5,15.5l-.3.1-6.6,1.7a47.14,47.14,0,0,1-4.7-13c-1.1-6.7.8-10.7,6.4-9.3,3.7.9,8.5,4.3,12,7.5,3.5-3.1,8.3-6.5,12-7.5C477.9,190.1,479.8,194.1,478.7,200.9Z"/><g class="cls-5"><path class="cls-3" d="M131.05,276.77v2.14H116.29v-2.14ZM118,268.13h11.42v2.14H118Z"/></g><g class="cls-5"><path class="cls-3" d="M142.17,278.45a48.43,48.43,0,0,0,.93-5.75h-6.89v-1.88h8.11l1,.91a67.43,67.43,0,0,1-1,6.72h3.4v1.9h-13v-1.9Z"/></g><g class="cls-5"><path class="cls-3" d="M166.15,272.11v2.3H151.47v-2.3Z"/></g><g class="cls-5"><path class="cls-3" d="M117.63,296.59a14.1,14.1,0,0,0-1.63.07v-1.92a8.69,8.69,0,0,0,1.64.09h.44a8.1,8.1,0,0,0-.78-2.12l1.57-.38H118a14.38,14.38,0,0,0-1.68.07v-1.91a10.37,10.37,0,0,0,1.71.09h1.37v-.28a6.3,6.3,0,0,0-.09-1.31h2.16a6.08,6.08,0,0,0-.08,1.31v.28h1.21a10.26,10.26,0,0,0,1.68-.09v1.91a15.31,15.31,0,0,0-1.68-.07h-.75l1.54.44c-.11.24-.11.24-.3.6-.09.2-.09.2-.29.68a5.29,5.29,0,0,1-.4.78h.36a9,9,0,0,0,1.65-.09v1.92a14.72,14.72,0,0,0-1.65-.07h-1.44v1.28h1.37a9.08,9.08,0,0,0,1.65-.1v1.89a12.29,12.29,0,0,0-1.65-.08h-.66a7.59,7.59,0,0,0,1.85,1.57,11.31,11.31,0,0,0-.86,1.7,8.09,8.09,0,0,1-1.75-1.92l0,.68c0,.07,0,.62,0,.71v1.79a9,9,0,0,0,.09,1.48h-2a11.18,11.18,0,0,0,.09-1.42V302.4c0-.35,0-.83,0-1.23a9,9,0,0,1-3,3.31,6.25,6.25,0,0,0-.9-1.83,8.91,8.91,0,0,0,3.12-3.07h-1.15a10,10,0,0,0-1.62.09v-1.9a8.68,8.68,0,0,0,1.66.1h1.81v-1.28Zm1.37-4.26a7.41,7.41,0,0,1,.76,2.08l-1.6.42h2.46a10.94,10.94,0,0,0,1-2.5Zm11.94,2.17a9.34,9.34,0,0,0,1.64-.1v2a9.18,9.18,0,0,0-1.44-.08h-.44v7.2a12.26,12.26,0,0,0,.11,2.1h-2.1a13.74,13.74,0,0,0,.11-2.1v-7.2H126.9a23.47,23.47,0,0,1-.65,5.77,11.36,11.36,0,0,1-1.61,3.58,7.7,7.7,0,0,0-1.77-1.16c1.7-2.09,2.15-4.42,2.15-11.18a22.25,22.25,0,0,0-.11-2.8c2,0,5.12-.84,6-1.53l1.48,1.73a5.89,5.89,0,0,1-.6.2,25.56,25.56,0,0,1-4.9,1.23v2.06l0,.29Z"/></g><g class="cls-5"><path class="cls-3" d="M139,293.94a8.64,8.64,0,0,0,1.89,3.19,4.79,4.79,0,0,0-1,1.5,12.83,12.83,0,0,1-1.06-2c0,.25,0,.43,0,.54,0,.41,0,.41,0,1.83v4.46a17.5,17.5,0,0,0,.11,2.19h-2a18.44,18.44,0,0,0,.11-2.19v-3.71a17.64,17.64,0,0,1,.15-2.16,19.13,19.13,0,0,1-1.59,3.82,7.11,7.11,0,0,0-1-1.77,14,14,0,0,0,1.7-3.45c.25-.79.51-1.67.62-2.23h-.61a7.47,7.47,0,0,0-1.2.07v-1.84a7.31,7.31,0,0,0,1.2.07h.77v-1.35A11.72,11.72,0,0,0,137,289h2a16.55,16.55,0,0,0-.09,1.84v1.37h.22a6.39,6.39,0,0,0,1.06-.07V294c-.33,0-.64-.05-1-.05Zm10.38-2.07a14.86,14.86,0,0,0,2-.1v1.77a16.91,16.91,0,0,0-1.82-.09h-1.17a7.86,7.86,0,0,0,3.43,1.66,6.28,6.28,0,0,0-.86,1.57,11.21,11.21,0,0,1-2.08-1.06v.78c0,.17,0,.59,0,1.25-.33,0-.66,0-1.25,0h-4a10.35,10.35,0,0,0-1.23,0,3.55,3.55,0,0,1,0-.44c0-.13,0-.53,0-.81v-.62a14.19,14.19,0,0,1-1.44.9,5.51,5.51,0,0,0-1-1.44,7.5,7.5,0,0,0,2.72-1.79h-.77a9.13,9.13,0,0,0-1.4.07v-1.74a9.7,9.7,0,0,0,1.64.09h1.68a8.08,8.08,0,0,0,.35-.73l-3.11.13a4.43,4.43,0,0,0-.62-1.5l1.08,0c1.24,0,3.65-.15,4.86-.29a16.51,16.51,0,0,0,3.1-.6l1.1,1.55c-.22,0-.28,0-.6.07-.86.15-2.69.38-3.89.48-.21.45-.24.53-.41.85Zm-4.69,11.9v.8h-1.5c0-.31.05-.79.05-1.3V301.5c0-.47,0-.79,0-1.19a7.13,7.13,0,0,0,1.15.06h2.79a6.94,6.94,0,0,0,1.12-.06,9.2,9.2,0,0,0,0,1.19v1.26a5.52,5.52,0,0,0,0,1h.51c.45,0,.51,0,.51-.33v-3.68h-7v3.81a15.49,15.49,0,0,0,.07,2h-2a16.79,16.79,0,0,0,.09-2.1v-3.74c0-.68,0-.95-.06-1.63a10.64,10.64,0,0,0,1.54.07h7.36a10.43,10.43,0,0,0,1.81-.09c0,.59-.08,1.25-.08,1.87v3.81c0,.75-.14,1.17-.49,1.41a3.58,3.58,0,0,1-1.88.27h-1.19a5.76,5.76,0,0,0-.33-1.68Zm.11-10.32a11.86,11.86,0,0,1-.77.91h3.16a9.22,9.22,0,0,1-.9-.91Zm-.66,2.92h3v-.77h-3Zm.58,6.06h2.05v-.82h-2.05Z"/></g><g class="cls-5"><path class="cls-3" d="M157.09,300.66c0,1.17.59,1.63,2.81,1.63a32.4,32.4,0,0,0,6.54-.63l.28,2.2a40.77,40.77,0,0,1-6.82.53c-3.79,0-5-1-5-3.35V290.3h2.21v5.43a27.79,27.79,0,0,0,7.71-3.22l1.19,2a35.71,35.71,0,0,1-8.9,3.27Zm8.35-11.18a11.64,11.64,0,0,1,1.95,2.87l-1.22.69a14.44,14.44,0,0,0-1.85-2.94Zm2-1a11.45,11.45,0,0,1,2,2.79l-1.21.68a12.68,12.68,0,0,0-1.88-2.85Z"/></g><g class="cls-5"><path class="cls-3" d="M176.56,290.78V295c0,4.24-1.2,7.16-4,9.5l-1.7-1.54c2.59-2,3.49-4.4,3.49-8.09v-4.05Zm4.94-.51V301.5a13.84,13.84,0,0,0,4.89-4l1.22,1.92a17.49,17.49,0,0,1-7.17,5l-1.19-1V290.27Z"/></g><g class="cls-5"><path class="cls-3" d="M138.6,195.26a9.67,9.67,0,0,0,3.49.68c1.65,0,2.32-.68,2.32-1.58s-.29-1.42-2-2.24l-.94-.44c-2.15-1-2.79-2.12-2.79-3.74,0-2.27,1.7-4,4.77-4a11.76,11.76,0,0,1,3,.44v2.34a8.56,8.56,0,0,0-3-.58c-1.46,0-2.29.52-2.29,1.48,0,.78.28,1.24,1.68,1.91l1,.46c2.21,1,3.21,2.05,3.21,3.84,0,2.63-1.79,4.29-5.07,4.29a10.28,10.28,0,0,1-3.35-.55Z"/></g><g class="cls-5"><path class="cls-3" d="M150.54,197.89V184.15H153v11.51h6.21v2.23Z"/></g><g class="cls-5"><path class="cls-3" d="M170.31,183.83a4.59,4.59,0,0,0-.09-1h2.19a4.39,4.39,0,0,0-.09,1.06v.86h4.44a15,15,0,0,0,2.08-.11v2.08a15.2,15.2,0,0,0-2.08-.09H166.17c0,6.72-.55,9.66-2.27,12.59a9.78,9.78,0,0,0-1.57-1.68c1.39-2.3,1.81-4.68,1.81-10.3,0-1.36,0-2-.07-2.56.56,0,1.07.07,1.86.07h4.38Zm-4.69,12.73a2.53,2.53,0,0,0,.46,0c.21,0,.89,0,1.26-.05a35.93,35.93,0,0,0,3.06-9.37l2.29.55c-.15.45-.17.54-.3.95a42.4,42.4,0,0,1-2.86,7.72,48.51,48.51,0,0,0,5.82-.73,28.66,28.66,0,0,0-2.26-3.52l1.68-.95a37.49,37.49,0,0,1,4,6.94L177,199.28a16.64,16.64,0,0,0-.84-2c-2.46.47-2.63.51-4.54.74-.42.06-2.09.24-5,.57-.33,0-.44,0-.64.09Z"/></g><g class="cls-5"><path class="cls-3" d="M188.71,193.69a10.5,10.5,0,0,1-2.19,1.53,3.93,3.93,0,0,0-.7-1,35,35,0,0,1-3.54,1.89s-.11.06-.24.13l-.16.09-.46-2.1a12.5,12.5,0,0,0,2-.71v-4.73h-.51a8.86,8.86,0,0,0-1.39.09V187a9.66,9.66,0,0,0,1.41.07h.49v-2.21a14.3,14.3,0,0,0-.11-2h2.08a12,12,0,0,0-.11,2v2.21h.33a10.3,10.3,0,0,0,1.26-.05v1.84c-.42,0-.77,0-1.24,0h-.35v3.85c.48-.25.62-.34,1.21-.67v1.24a6.94,6.94,0,0,0,2.12-1.81h-.39a10.29,10.29,0,0,0-1.66.09v-1.79a8.72,8.72,0,0,0,1.68.1h7.82a11.9,11.9,0,0,0,1.86-.11v1.79a15.6,15.6,0,0,0-1.84-.08h-5.48a6.39,6.39,0,0,1-.5.73h5.7c.88,0,1.23,0,1.76,0,0,.29-.06.51-.1,1.06a15.37,15.37,0,0,1-.71,4.86c-.38.82-.95,1.05-2.52,1.05-.49,0-.8,0-1.5-.05a4,4,0,0,0-.49-1.64,12.72,12.72,0,0,1-3,2A4.73,4.73,0,0,0,188,198a11.48,11.48,0,0,0,3.26-1.92,8,8,0,0,0,1.86-2.39h-1.06a11.19,11.19,0,0,1-5,3.93,4.46,4.46,0,0,0-1.15-1.36,9.31,9.31,0,0,0,4.15-2.57Zm.55-4.6c-.7,0-1.28,0-1.65,0a13.84,13.84,0,0,0,.07-1.72v-2.61a12.51,12.51,0,0,0-.07-1.62,12.82,12.82,0,0,0,1.81.09h5.22a13.84,13.84,0,0,0,1.92-.09,15.47,15.47,0,0,0-.07,1.77v2.46a14.82,14.82,0,0,0,.07,1.72c-.36,0-.91,0-1.62,0Zm.27-3.49h5.08v-.75h-5.08Zm0,2h5.08v-.73h-5.08Zm5.44,6.05a10,10,0,0,1-2.5,3.51,15.28,15.28,0,0,0,1.85.14c.65,0,.85-.18,1-1a19.52,19.52,0,0,0,.33-2.7Z"/></g><polygon class="cls-7" points="615.2 534.8 631.8 543.3 617.9 570.4 598.1 558.7 615.2 534.8"/><g class="cls-5"><path class="cls-3" d="M284,188.86a20.78,20.78,0,0,0-.21,3.55v11.33a6.27,6.27,0,0,1-1.54,4.59,7.59,7.59,0,0,1-5.52,1.93,7.35,7.35,0,0,1-5.73-2.17,7.84,7.84,0,0,1-1.57-2.7l4.15-1.47a3.41,3.41,0,0,0,1.37,2.16,3.32,3.32,0,0,0,1.83.49,2.84,2.84,0,0,0,2.09-.75,2.91,2.91,0,0,0,.59-2.08v-11.3a21.32,21.32,0,0,0-.21-3.58Z"/></g><g class="cls-5"><path class="cls-3" d="M300.89,209.82a21.13,21.13,0,0,0-1.29-4.1,9.74,9.74,0,0,0-1.75-3.38,3,3,0,0,0-2.3-.93H292.3v4.78a22.84,22.84,0,0,0,.21,3.63h-4.64a23.49,23.49,0,0,0,.2-3.61V192.34a25.93,25.93,0,0,0-.2-3.56c1.08.05,2,.08,3.56.08h6.42c4,0,6.37,2.06,6.37,5.59a5,5,0,0,1-4.1,5.42c1.65.51,2.11,1.18,4.25,6.32.54,1.31.83,1.9,1.65,3.63Zm-4-12a2.68,2.68,0,0,0,2.89-2.81c0-1.68-1-2.53-2.81-2.53h-4.7v5.34Z"/></g><g class="cls-5"><path class="cls-3" d="M318.42,199.92H320a15.7,15.7,0,0,0,2.5-.13V203a20.37,20.37,0,0,0-2.5-.11h-.49a10.21,10.21,0,0,0,2.4,2c-.54,1-1,2-1.42,3a11.51,11.51,0,0,1-2.14-2.37c.05,1.08.05,1.47.05,1.86v2.06a12.19,12.19,0,0,0,.13,2.11h-3.43a10.28,10.28,0,0,0,.13-2v-2c0-.44,0-1,.05-1.6a12.23,12.23,0,0,1-4,4.28,12.24,12.24,0,0,0-1.42-3.22,13.66,13.66,0,0,0,4.36-4.16h-1.42a16.22,16.22,0,0,0-2.48.13v-3.22a16.13,16.13,0,0,0,2.53.13h2.37v-1.55H312.8a20.35,20.35,0,0,0-2.47.11v-3.25a16.11,16.11,0,0,0,2.6.13,18.06,18.06,0,0,0-.62-2.92c-.64,0-.95.05-1.47.1v-3.17a15.11,15.11,0,0,0,2.55.13h1.73v-.15a10,10,0,0,0-.13-1.94h3.69a10.34,10.34,0,0,0-.13,1.94v.15H320a14.84,14.84,0,0,0,2.53-.13v3.17c-.52,0-.7,0-1.37-.07a24.13,24.13,0,0,1-.67,2.89,12.49,12.49,0,0,0,2.19-.13v3.25a20.91,20.91,0,0,0-2.5-.11h-1.73Zm-.9-4.56a15.12,15.12,0,0,0,.57-2.92h-2.74a.77.77,0,0,1,.11.28,14.83,14.83,0,0,1,.54,2.64Zm14.54-.16a13.18,13.18,0,0,0,2.38-.15v3.37a14.3,14.3,0,0,0-2-.1H332v10a20,20,0,0,0,.16,3.25h-3.61a20.86,20.86,0,0,0,.15-3.25v-10H326.6c-.13,6.5-1,10.06-3.17,13.36a15.07,15.07,0,0,0-3.07-2c2.47-3.25,3-6.13,3-16.6a31.91,31.91,0,0,0-.15-3.59,31.82,31.82,0,0,0,6-1.08,8.91,8.91,0,0,0,2.6-1.09l2.5,3a6.87,6.87,0,0,0-.9.29,37.66,37.66,0,0,1-6.81,1.57v3Z"/></g><g class="cls-5"><path class="cls-3" d="M339.6,190.15a18.71,18.71,0,0,0-.15-2.69h3.4a20,20,0,0,0-.13,2.69V192h.16a7.73,7.73,0,0,0,1.47-.11V195a9.93,9.93,0,0,0-1.52-.1,9.67,9.67,0,0,0,2.58,4.38,14.17,14.17,0,0,0-.91,1.4,19.05,19.05,0,0,0,2.2.1h10.83a22.5,22.5,0,0,0,2.68-.13c-.08.83-.1,1.88-.1,2.76v5.42c0,2-.7,2.55-3.18,2.55-.51,0-1.21,0-1.7-.05a8.69,8.69,0,0,0-.36-2.14h-3.71v1.08h-2.48a17.63,17.63,0,0,0,.08-1.83v-2.71c0-.72,0-1-.08-1.7.41,0,.83,0,1.65,0h4.1c.83,0,1.21,0,1.63,0a15.24,15.24,0,0,0-.05,1.7v2.79h.41c.59,0,.67-.06.67-.44V203.3H347.7v5.34a25.14,25.14,0,0,0,.08,2.88h-3.35a24.91,24.91,0,0,0,.15-3.09V203c0-.82,0-1.26-.1-2.24a12.84,12.84,0,0,0-.57,1.24,13.18,13.18,0,0,1-1.26-2.43,5.75,5.75,0,0,0,0,.65c0,.51,0,.51.05,2.34v5.81c0,1.36.06,2.45.13,3.24h-3.4a22.56,22.56,0,0,0,.18-3.24v-4.39c.05-1.34.08-2.27.13-2.81a19.53,19.53,0,0,1-1.93,4.59,17.94,17.94,0,0,0-1.55-3.2,17.79,17.79,0,0,0,2.27-4.53,20.7,20.7,0,0,0,.85-3.1h-.72A7.38,7.38,0,0,0,337,195v-3.17a7.38,7.38,0,0,0,1.68.13h.92Zm17.9,1.44a22.81,22.81,0,0,0,2.94-.15v2.88c-.75-.07-1.75-.13-2.66-.13h-1.26a11.08,11.08,0,0,0,4.59,2.07,12,12,0,0,0-1.42,2.76,17.21,17.21,0,0,1-2.76-1.5v.85c0,.67,0,.72.06,1.7a17.85,17.85,0,0,0-1.81,0h-6a17.63,17.63,0,0,0-1.8,0c0-.23,0-.23.05-.62,0-.18,0-.74,0-1.08v-.67c-.8.59-1.09.78-1.84,1.27a10.23,10.23,0,0,0-1.65-2.56,10.16,10.16,0,0,0,3.54-2.22h-.73a13.52,13.52,0,0,0-1.95.11v-2.84a16,16,0,0,0,2.42.13h2.22c.15-.34.15-.34.41-.9l-1.39.05-1.58,0c-.31,0-.38,0-1.29.05a8.46,8.46,0,0,0-1.05-2.47c.87,0,1.16,0,1.8,0,4.64,0,9.34-.46,11.4-1.16l1.83,2.61c-.26,0-.26,0-1,.13a6.6,6.6,0,0,0-.7.07c-.2,0-.72.08-1.44.16-1.37.15-2,.2-3.35.31a11.1,11.1,0,0,1-.52,1.08Zm-6.42,2.6c-.34.44-.49.62-.83,1H354c-.41-.39-.62-.59-1-1Zm-.65,3.9h3.51v-.93h-3.51Zm.75,9h2.43V206h-2.43Z"/></g><g class="cls-5"><path class="cls-3" d="M366.38,203.12a28.63,28.63,0,0,1-1.11,7.48l-2.09-1.06a20.33,20.33,0,0,0,1.19-6.86Zm5.62-3.56h.9a12.27,12.27,0,0,0,2-.11c0,.31-.05.42-.05.88a68.62,68.62,0,0,1-.44,7c-.26,2-.67,3.05-1.42,3.54a4.81,4.81,0,0,1-3,.59h-.41a9,9,0,0,0-.6-3.12,8,8,0,0,0,1.63.15c.64,0,.87-.2,1-.87a10.42,10.42,0,0,0,.29-1.65l-1.14.56a17.47,17.47,0,0,0-.69-3.58l1-.34a13.25,13.25,0,0,1,.82,3.25,33.36,33.36,0,0,0,.13-3.73h-5.46a18.07,18.07,0,0,0-2.25.1,20.32,20.32,0,0,0,.11-2.48v-8.27a25.55,25.55,0,0,0-.13-3.15,27.17,27.17,0,0,0,2.94.1h4.82a22.5,22.5,0,0,0,2.89-.13v3a15.24,15.24,0,0,0-2-.1H372v1.28h.77a10.81,10.81,0,0,0,1.83-.1v2.43a12.31,12.31,0,0,0-1.83-.11H372v1.27h.77a10.75,10.75,0,0,0,1.83-.11v2.45a13.09,13.09,0,0,0-1.83-.1H372Zm-3.92,3.32a42.66,42.66,0,0,1,.39,5.7v.7l-1.73.28c.07-1.39.07-1.7.07-3.4,0-1,0-1.7-.12-3Zm1.13-11.75h-1.7v1.28h1.7Zm0,3.5h-1.7v1.27h1.7Zm-1.7,3.51v1.42h1.7v-1.42Zm2.19,4.62a33.64,33.64,0,0,1,.8,4.92l-1.42.47a25.11,25.11,0,0,0-.59-5.08ZM384,198.68a19.45,19.45,0,0,0,1.32,5.91,10.8,10.8,0,0,0,2.58,3.94,11.09,11.09,0,0,0-2.43,3.07,18.51,18.51,0,0,1-3.14-5.7,25.2,25.2,0,0,1-1.32-7.22h-1.73c-.15,6.63-.72,9.54-2.47,12.92a9.45,9.45,0,0,0-2.79-2.06,12.76,12.76,0,0,0,1.55-4.18c.44-2.14.62-5.8.62-13a38,38,0,0,0-.13-3.94,21.63,21.63,0,0,0,3,.13h4.95a18.39,18.39,0,0,0,2.78-.13c-.05.72-.07,1.16-.07,2.76v4.74a26.91,26.91,0,0,0,.1,2.84c-.49,0-1.24-.08-2.17-.08Zm-.49-2.94v-4.25H379.3v2.94c0,.46,0,.74,0,.82v.49Z"/></g><g class="cls-5"><path class="cls-3" d="M312.61,229.71a8.58,8.58,0,0,0,.57,2.25,8,8,0,0,0,2.17-2l1.71,1.86-1.23,1a14.4,14.4,0,0,1-1.51,1.14,10.13,10.13,0,0,0,3,2.64,15.7,15.7,0,0,0-1.65,2.5,13.23,13.23,0,0,1-3.37-3.62l0,1.79a62.43,62.43,0,0,1-6.18,1.69,7.39,7.39,0,0,0-.76.17l-.35-1.63c-1.29.36-2.51.64-4.16,1l-1,.17-2,.34-.42-2.78a23.6,23.6,0,0,0,3.39-.32v-5.67h-1a15.41,15.41,0,0,0-2.09.12v-2.57a14.9,14.9,0,0,0,2.11.13h1v-1.23h-.36a11.86,11.86,0,0,0-1.24.07V226c-.42.38-.55.47-1,.83a10.49,10.49,0,0,0-1.12-2.58,9.7,9.7,0,0,0,3.78-4.36h2.72a6.75,6.75,0,0,0,2,2.57,8.31,8.31,0,0,0,1,.8v-.63c0-1,0-1.6-.08-2.23a17.32,17.32,0,0,0,2,.08h5.59a15.65,15.65,0,0,0,1.94-.08,17.28,17.28,0,0,0-.09,2.34v4.8c0,.7,0,1.18,0,1.48a7.57,7.57,0,0,0,.07.78c-.53,0-.85,0-1.46,0Zm-14.05,5.84a19.43,19.43,0,0,0-.9-4.11l1.87-.61a20,20,0,0,1,1,4Zm5.7-11a12.43,12.43,0,0,1-1.92-2.46,12,12,0,0,1-1.71,2.46Zm-.93,10.91c1-.19,1.31-.26,2.45-.55l0,1.43.86-.12V223.63a12.29,12.29,0,0,0-1.29,2l-.12-.11v1.29a12,12,0,0,0-1.27-.07h-.65v1.23h1a10.32,10.32,0,0,0,1.69-.09v2.49a13.15,13.15,0,0,0-1.69-.08h-1Zm.21-1.33a16.21,16.21,0,0,0,.93-3.33l1.68.59a19.23,19.23,0,0,1-1.09,3.29ZM309.21,224h4.28v-1.2h-4.28Zm0,3.38h4.28V226.1h-4.28Zm0,2.36v6c1.37-.32,1.56-.38,2.74-.74a14.54,14.54,0,0,1-1.73-5.27Z"/></g><g class="cls-5"><path class="cls-3" d="M329.39,229.5a12.74,12.74,0,0,0-1.08,1.92,17.47,17.47,0,0,1-1.77-2.3,13.07,13.07,0,0,1-1.7,2.61,9.06,9.06,0,0,0-1.31-1.66,31,31,0,0,1-.74,5.31,13.2,13.2,0,0,1-1.43,3.71,14.75,14.75,0,0,0-2.2-2.27c1.33-2.2,1.77-5.4,1.77-12.64v-1a19.54,19.54,0,0,0-.12-2.09,25.44,25.44,0,0,0,2.7.11h5v-.53a6.36,6.36,0,0,0-.1-1.14h3a4.88,4.88,0,0,0-.1,1.18v.49h5a22.16,22.16,0,0,0,2.61-.13v2.79a19.19,19.19,0,0,0-2.21-.11h-13c0,2.78-.05,3.9-.13,5.74a9.62,9.62,0,0,0,2-5.34l2.47.44c-.13.47-.13.47-.4,1.52,0,.13-.09.3-.17.57a7.54,7.54,0,0,0,1.94,2.28V226.4a14.24,14.24,0,0,0-.1-2.2h2.82a18.08,18.08,0,0,0-.08,2.2v3.08a7.94,7.94,0,0,0,1.45-2.53,9.56,9.56,0,0,0,.7-2.79l2.55.45c-.34,1.2-.55,1.91-.61,2.15a7.9,7.9,0,0,0,2.84,2.65,9.15,9.15,0,0,0-1.35,2.3,11,11,0,0,1-2.44-2.53,12.68,12.68,0,0,1-1.69,2.6,11.27,11.27,0,0,0-1.45-1.92V232h3.9a14.51,14.51,0,0,0,2-.09v2.58a13.54,13.54,0,0,0-2-.09H332v1.71h4.91A13.17,13.17,0,0,0,339,236v2.68a25,25,0,0,0-2.62-.12H325.55a25.2,25.2,0,0,0-2.59.12v-2.65a13.39,13.39,0,0,0,2.07.08h4.36v-1.71H326a10.68,10.68,0,0,0-2,.09v-2.58a13,13,0,0,0,2,.09h3.37Z"/></g><g class="cls-5"><path class="cls-3" d="M341.74,238.48a22.41,22.41,0,0,0,.13-2.78V223.4a18.79,18.79,0,0,0-.11-2.36,18.26,18.26,0,0,0,2.39.11H356.5a17.68,17.68,0,0,0,2.36-.11,20.65,20.65,0,0,0-.1,2.36v12.3a23.53,23.53,0,0,0,.13,2.78h-3.08V237h-11v1.45Zm3.1-4.26h11V224h-11Z"/></g><rect class="cls-7" x="399.1" y="399.7" width="21.9" height="39"/><g class="cls-5"><path class="cls-3" d="M371,412.69a15.31,15.31,0,0,0-2.15.1v-2.41a14.63,14.63,0,0,0,2.15.1h1.41v-1.59h-.83a17.38,17.38,0,0,0-1.91.08v-2.38a11.67,11.67,0,0,0,1.91.1h.83v-.4a13.59,13.59,0,0,0-.1-1.55H375a11.07,11.07,0,0,0-.08,1.55v.4h.28a6.3,6.3,0,0,0,1.39-.1v1.49a12.35,12.35,0,0,0,1.17-2.56l1.77,1.11c0-.62,0-.83-.06-1.37a13.88,13.88,0,0,0,1.79.08h3.22a8.91,8.91,0,0,0,1.69-.1l1.09,1.63a3.85,3.85,0,0,0-.32.79c-.29.9-.73,1.95-1.86,4.57a8.75,8.75,0,0,1,1.72,3.16,6.21,6.21,0,0,1,.34,2c0,2.42-1.07,3.32-4,3.32h-.32a5,5,0,0,0-.62-2.59c.46,0,.64.06.92.06,1,0,1.37-.26,1.37-1.05a6.16,6.16,0,0,0-.34-1.95,7.19,7.19,0,0,0-1.67-2.66,27.05,27.05,0,0,0,1.81-4.89h-2.26v12.92a26,26,0,0,0,.12,2.72h-2.75c.06-.62.1-1.43.1-2.78v-13.1c-.06.12-.08.14-.18.34a22.62,22.62,0,0,1-1.68,2.76,10,10,0,0,0,1.35-.1v2.37c-.52,0-1-.06-1.93-.06H375.9c-.44.48-.6.63-1.18,1.19h2.09a15.07,15.07,0,0,0,1.53-.06,17.46,17.46,0,0,0-.08,2.13v4.81a19.55,19.55,0,0,0,.08,2.1h-2.42v-.61H373v.95h-2.47a15.54,15.54,0,0,0,.12-2.23v-3.69c-.47.34-.65.44-1.21.79a7.61,7.61,0,0,0-1.11-2.4,18.86,18.86,0,0,0,4.51-3Zm2,4.35h2.9v-1.19H373Zm0,3.18h2.9V419H373Zm2.06-9.74a11.89,11.89,0,0,0,1.17-1.57c-.25,0-.41,0-.69,0h-.7v1.59Z"/></g><g class="cls-5"><path class="cls-3" d="M392.78,407.25a10.66,10.66,0,0,0-1.19-1.91l2.58-.5a17.63,17.63,0,0,1,1.43,2.41h1.55a17.42,17.42,0,0,0-1-2.19l2.64-.4a20.76,20.76,0,0,1,1.13,2.59h1.21a14.44,14.44,0,0,0,1.3-2.61l2.68.58c-.28.54-.82,1.49-1.17,2h1a19.41,19.41,0,0,0,2.07-.08c0,.49-.06,1-.06,1.82v1.55a16,16,0,0,0,.07,1.67h-2.56v-2.74H392.1v2.72h-2.56a13.88,13.88,0,0,0,.08-1.61V409c0-.73,0-1.15-.08-1.86.68.06,1.23.08,2.09.08Zm1.75,8.3a18.88,18.88,0,0,0-2.09.08,15.2,15.2,0,0,0,.08-1.87v-1.95a14.6,14.6,0,0,0-.06-1.49,12,12,0,0,0,1.29.06h9.1a11.12,11.12,0,0,0,1.23-.06,13,13,0,0,0-.06,1.57v1.87a16.91,16.91,0,0,0,.06,1.85c-.67,0-1.11-.06-2.06-.06h-2.68c-.2.46-.32.71-.52,1.11h5.09a13.83,13.83,0,0,0,1.86-.08,14.57,14.57,0,0,0-.08,1.93v2.74a12.52,12.52,0,0,0,.1,2h-2.64v-.78h-9.81v.78h-2.61c.06-.7.1-1.35.1-2v-2.74a15.67,15.67,0,0,0-.08-1.89c.5,0,1,.06,1.83.06H396a7.14,7.14,0,0,0,.59-1.11Zm-1.19,4.73h9.83v-1.47h-9.83Zm1.65-6.64h6.55v-1.33H395Z"/></g><g class="cls-5"><path class="cls-3" d="M410.78,409.75a23.36,23.36,0,0,1,3.63,2.48l-1.51,2.23a20.19,20.19,0,0,0-3.65-2.7Zm3.43,6.91a26.78,26.78,0,0,1-2.62,6.58l-2.26-1.95c.89-1,1.92-3.24,2.76-6.12Zm2.25-6.73a13,13,0,0,0-1.67.22l-.1-2.19-1.17,1.49a22.45,22.45,0,0,0-3.54-2.8l1.59-1.85a25.33,25.33,0,0,1,3.58,2.58l-.38.48a1.43,1.43,0,0,0,.26,0c.32,0,.53,0,1.41-.08l1.75-.14a24.44,24.44,0,0,0-.16-2.92h2.76a11.83,11.83,0,0,0-.1,1.77v.95l3.2-.25c-.6-.36-1.65-.92-2.27-1.2l1.37-1.47c.24.1.42.2.54.24A17.09,17.09,0,0,1,425.8,406l-1,1.12h.12a11.88,11.88,0,0,0,1.75-.26l.2,2.24h-.18l-1.71.12-4.21.34c0,.14,0,.36.08,1.05l3.65-.3a13.5,13.5,0,0,0,1.89-.27l.16,2.18h-.26a14.2,14.2,0,0,0-1.63.1l-3.61.32.16,1,4.15-.39c.63-.06,1.29-.16,1.85-.26l.19,2.3a1.68,1.68,0,0,0-.29,0c-.32,0-.94,0-1.61.1l-3.82.38a11,11,0,0,0,.6,1.59,8.92,8.92,0,0,0,2.14-1.85l2.05,1.27a26.33,26.33,0,0,1-3,2.42c.72.76,1.25,1.16,1.65,1.16s.64-.82.71-2.58A8.53,8.53,0,0,0,428,419a9.36,9.36,0,0,1-.69,2.82,2,2,0,0,1-1.79,1.35c-1.21,0-2.8-1-4.1-2.6a25.46,25.46,0,0,1-5.74,2.4,8,8,0,0,0-1.37-2.38,20,20,0,0,0,3.06-.84,25.47,25.47,0,0,0,2.82-1.15,13.73,13.73,0,0,1-1-2.58l-2.68.23a12.38,12.38,0,0,0-1.81.28l-.14-2.32h.38c.34,0,.77,0,1.37-.08l2.44-.22c-.06-.4-.08-.56-.16-1.05l-1.69.16a14,14,0,0,0-1.51.22l-.11-2.21a.75.75,0,0,1,.23,0h.14c.2,0,.66,0,1.14-.08l1.6-.14c-.05-.55-.05-.59-.09-1.07Z"/></g><g class="cls-5"><path class="cls-3" d="M444.16,409.37a15.41,15.41,0,0,0,1.93-.06A14.74,14.74,0,0,0,446,411v4.59a14.72,14.72,0,0,0,.08,1.67,17.8,17.8,0,0,0-1.93-.06h-3.91v.87h5.48a19.9,19.9,0,0,0,2.4-.12v2.55a20.85,20.85,0,0,0-2.4-.12h-5.48v.71a15,15,0,0,0,.14,2.23h-2.87a16.28,16.28,0,0,0,.14-2.23v-.71H432.5a21.41,21.41,0,0,0-2.43.12V418a20.08,20.08,0,0,0,2.41.12h5.18v-.87H434a17.71,17.71,0,0,0-1.93.06,14.84,14.84,0,0,0,.08-1.67V411a15.2,15.2,0,0,0-.08-1.69,15.24,15.24,0,0,0,1.93.06h.51v-.93H432.3a17.54,17.54,0,0,0-2.23.1V406a19.26,19.26,0,0,0,2.39.12h2.08v-.37a5.77,5.77,0,0,0-.08-1h2.65a6.09,6.09,0,0,0-.08,1v.37h3.91v-.37a6.63,6.63,0,0,0-.08-1h2.64a5.62,5.62,0,0,0-.08,1v.37h2.33a17.73,17.73,0,0,0,2.4-.12v2.55a16.9,16.9,0,0,0-2.22-.1h-2.51v.93Zm-9.44,2.94h8.74v-.89h-8.74Zm0,2.84h8.74v-.93h-8.74Zm6.22-6.71H437v.93h3.91Z"/></g><g class="cls-5"><path class="cls-3" d="M450.4,413.05a5.72,5.72,0,0,0,1.06.08l.57,0c.44-.56.56-.72.92-1.24a24.56,24.56,0,0,0-2.63-2.94l1.2-2.06.65.69a12,12,0,0,0,1.35-3.06l2.29.8a6.48,6.48,0,0,0-.44.85,26.14,26.14,0,0,1-1.77,3.08l.62.8a21.93,21.93,0,0,0,1.81-3.32l2,1.09c-.16.24-.16.24-.79,1.27-.86,1.35-1.89,2.84-2.76,4,.91,0,1.25-.06,1.85-.12a13.76,13.76,0,0,0-.52-1.57l1.59-.58a29.29,29.29,0,0,1,.95,3c0-.43.06-1.17.06-1.79v-3.81c0-.7,0-1.41-.08-2a15.57,15.57,0,0,0,1.93.08h1.07a11.16,11.16,0,0,0,.54-1.71l2.64.34c-.24.64-.3.8-.56,1.37H466a14.76,14.76,0,0,0,1.93-.08,18.6,18.6,0,0,0-.08,2v3.77a16,16,0,0,0,.08,1.95c-.58,0-1.27-.06-1.89-.06h-1.75a11.3,11.3,0,0,0,.93,2.15,11.09,11.09,0,0,0,2-2l1.67,1.47a22.57,22.57,0,0,1-2.44,2.27,11.34,11.34,0,0,0,2.82,2.56,8.55,8.55,0,0,0-1.49,2.36,11.75,11.75,0,0,1-3.62-4.85c.1,1.08.14,1.81.14,2.15v1.21c0,1.37-.73,1.91-2.56,1.91-.42,0-1,0-1.39,0a7.49,7.49,0,0,0-.5-2.15,16.15,16.15,0,0,1-1.73,1.83,8.93,8.93,0,0,0-1.61-1.91,8.64,8.64,0,0,0,1.79-1.55,7,7,0,0,0,1.19-2.12h-.79a7.14,7.14,0,0,0-1.05.06v-2.05l-.7.3-.12-.56-.61.08-.7.06v6.14a11.72,11.72,0,0,0,.12,2.13h-2.46a16.92,16.92,0,0,0,.12-2.15v-5.94l-1.49.08c-.56,0-.74.06-1.16.12Zm2.41,3.14a24.53,24.53,0,0,1-.74,6.17l-1.75-1A17.55,17.55,0,0,0,451,416Zm4.43-.34a31.24,31.24,0,0,1,.57,3.81l-1.6.4a25.76,25.76,0,0,0-.38-3.89Zm.85-1a5.48,5.48,0,0,0,.66,0h1.57a8.57,8.57,0,0,0,.89,0l.7.94v-2h-1.63c-.62,0-1.25,0-1.91.06.1.4.1.42.2.82Zm3.82,1.34c-.16.47-.16.49-.36,1.07a11,11,0,0,1-1.61,3.38,8,8,0,0,0,1.35.13c.5,0,.62-.09.62-.47Zm-1.19-7.2h4.78v-.93h-4.78Zm0,2.86h4.78v-1h-4.78Z"/></g><g class="cls-5"><path class="cls-3" d="M544.2,548.61a15.22,15.22,0,0,0-2.15.1v-2.42a14.54,14.54,0,0,0,2.15.1h1.42V544.8h-.84a17.38,17.38,0,0,0-1.91.08v-2.4a11.6,11.6,0,0,0,1.91.1h.84v-.4a13.44,13.44,0,0,0-.1-1.55h2.69a11.07,11.07,0,0,0-.08,1.55v.4h.28a6.46,6.46,0,0,0,1.4-.1V544a13.84,13.84,0,0,0,1.17-2.57l1.78,1.11c0-.62,0-.84-.06-1.37a13.78,13.78,0,0,0,1.79.08h3.23a9,9,0,0,0,1.7-.1l1.1,1.63a3.71,3.71,0,0,0-.32.8c-.3.9-.74,2-1.88,4.59a8.79,8.79,0,0,1,1.74,3.17,6.18,6.18,0,0,1,.33,2c0,2.44-1.07,3.33-4,3.33h-.32a5.06,5.06,0,0,0-.62-2.59c.46,0,.64.06.92.06,1,0,1.37-.26,1.37-1.06a6.16,6.16,0,0,0-.34-1.95,7.15,7.15,0,0,0-1.67-2.67,27.51,27.51,0,0,0,1.81-4.91h-2.27v13a26.24,26.24,0,0,0,.12,2.74h-2.75c.06-.62.1-1.44.1-2.8V543.28c-.06.12-.08.14-.18.34a23.6,23.6,0,0,1-1.7,2.77,10,10,0,0,0,1.36-.1v2.38c-.52,0-1-.06-1.94-.06h-1.21c-.44.47-.6.63-1.18,1.19H550a15.2,15.2,0,0,0,1.53-.06,17.55,17.55,0,0,0-.08,2.14v4.82a19.85,19.85,0,0,0,.08,2.12h-2.43v-.62h-2.93v1H543.7a15.7,15.7,0,0,0,.12-2.24v-3.71c-.48.34-.66.44-1.21.8a7.46,7.46,0,0,0-1.12-2.41,19.21,19.21,0,0,0,4.53-3Zm2,4.36h2.91v-1.19H546.2Zm0,3.19h2.91V555H546.2Zm2.07-9.77a13.91,13.91,0,0,0,1.18-1.57c-.26,0-.42,0-.7,0h-.7v1.59Z"/></g><g class="cls-5"><path class="cls-3" d="M566.05,543.14a10.21,10.21,0,0,0-1.2-1.91l2.59-.5a17.76,17.76,0,0,1,1.44,2.41h1.55a15.58,15.58,0,0,0-1-2.19l2.65-.4a20.85,20.85,0,0,1,1.14,2.59h1.21a14.44,14.44,0,0,0,1.3-2.61l2.69.58c-.28.53-.82,1.49-1.17,2h1a19.5,19.5,0,0,0,2.08-.08c0,.5-.06,1-.06,1.84v1.55a13.69,13.69,0,0,0,.08,1.68h-2.58v-2.76H565.37v2.74H562.8a14.17,14.17,0,0,0,.08-1.62v-1.55c0-.74,0-1.16-.08-1.88.67.06,1.23.08,2.09.08Zm1.75,8.34a18.88,18.88,0,0,0-2.09.08,15.38,15.38,0,0,0,.08-1.88v-1.95a14.68,14.68,0,0,0-.06-1.5,12,12,0,0,0,1.29.06h9.14a11.12,11.12,0,0,0,1.23-.06,13.88,13.88,0,0,0,0,1.58v1.87a18.08,18.08,0,0,0,0,1.86c-.67,0-1.11-.06-2.07-.06h-2.69c-.2.46-.32.72-.52,1.11h5.11a14.1,14.1,0,0,0,1.87-.08,14.65,14.65,0,0,0-.08,1.94v2.75a12.44,12.44,0,0,0,.1,2h-2.65v-.77h-9.85v.77H564c.06-.69.1-1.35.1-2v-2.75a15.75,15.75,0,0,0-.08-1.9c.5,0,1,.06,1.84.06h3.45a8.25,8.25,0,0,0,.6-1.11Zm-1.19,4.74h9.87v-1.47h-9.87Zm1.65-6.66h6.58v-1.33h-6.58Z"/></g><g class="cls-5"><path class="cls-3" d="M593.1,547.85a12.36,12.36,0,0,0,2.93,5,13.34,13.34,0,0,0,5.3,3.51,11,11,0,0,0-1.73,2.74,16.15,16.15,0,0,1-5.15-3.89,14.63,14.63,0,0,1-2.59-4.11,12,12,0,0,1-2.79,4.49A15,15,0,0,1,584,559.1a9.86,9.86,0,0,0-1.65-2.54,13.58,13.58,0,0,0,3.39-1.79,9.59,9.59,0,0,0,4.19-6.92h-4.37a17.64,17.64,0,0,0-2.65.12v-2.89a21.87,21.87,0,0,0,2.65.12h4.61c0-.86,0-1.4,0-2.08A11.7,11.7,0,0,0,590,541h3.11a15.1,15.1,0,0,0-.14,2.83c0,.54,0,.7,0,1.38h4.94a23.36,23.36,0,0,0,2.66-.12V548a20.39,20.39,0,0,0-2.64-.12Z"/></g><g class="cls-5"><path class="cls-3" d="M604.57,545.53a24.33,24.33,0,0,1,3.91,2.64L607,550.38a18.08,18.08,0,0,0-4-2.75Zm4,7a30.11,30.11,0,0,1-2.39,5.21c-.24.42-.3.52-.46.76l-.3.5-2.31-2a19.63,19.63,0,0,0,3.27-6Zm-3.19-11.88a22.12,22.12,0,0,1,3.87,2.69l-1.63,2.11a20.87,20.87,0,0,0-3.87-2.89Zm8.12,3.79h-1.84a18.29,18.29,0,0,0-2.39.12v-2.78a19.73,19.73,0,0,0,2.41.12h7a19.09,19.09,0,0,0,2.38-.12v2.78a19.77,19.77,0,0,0-2.38-.12h-2.47v11h2.85a18.76,18.76,0,0,0,2.46-.12v2.79a21,21,0,0,0-2.46-.12h-8.35a20.89,20.89,0,0,0-2.48.12v-2.79a19.4,19.4,0,0,0,2.46.12h2.77Z"/></g><g class="cls-5"><path class="cls-3" d="M628.58,552.65a12.3,12.3,0,0,1-1.13,4.23,9.66,9.66,0,0,1-1.6,2.51,10.39,10.39,0,0,0-2.25-1.95,9.06,9.06,0,0,0,1.79-3.05,22.93,22.93,0,0,0,.72-6.94c0-.88,0-1.56-.1-2.23.68,0,1.16,0,2.12,0h10.71c.83,0,1.25,0,1.81,0a15,15,0,0,0-.08,1.89v4.63a17.2,17.2,0,0,0,.08,2H637.9v-1.14ZM642,543.92a19.11,19.11,0,0,0-2.36-.1H626.81a19.64,19.64,0,0,0-2.35.1v-2.63a15.83,15.83,0,0,0,2.35.12h12.78a15.58,15.58,0,0,0,2.36-.12Zm-4.05,6.3v-2.51h-9.14V549c0,.22,0,.44,0,.64s0,.32,0,.34a1,1,0,0,1,0,.26Z"/></g><g class="cls-5"><path class="cls-3" d="M644.17,549a5.67,5.67,0,0,0,1.05.08l.58,0c.44-.55.56-.71.92-1.23a23.22,23.22,0,0,0-2.63-2.95l1.19-2.08.66.7a12.71,12.71,0,0,0,1.36-3.07l2.29.8a6.48,6.48,0,0,0-.44.85,26.25,26.25,0,0,1-1.77,3.09l.62.8a21.46,21.46,0,0,0,1.81-3.33l2,1.1c-.16.24-.16.24-.8,1.28-.86,1.35-1.9,2.85-2.77,4,.91,0,1.25-.06,1.85-.12a15.2,15.2,0,0,0-.52-1.57l1.6-.58a28.07,28.07,0,0,1,1,3c0-.44,0-1.17,0-1.79V544c0-.7,0-1.42-.08-2a15.65,15.65,0,0,0,1.94.08h1.08a10,10,0,0,0,.53-1.71l2.66.34c-.24.64-.3.8-.56,1.37h2.07a14.84,14.84,0,0,0,1.94-.08,18.68,18.68,0,0,0-.08,2v3.79a16.15,16.15,0,0,0,.08,1.95c-.58,0-1.28-.06-1.9-.06h-1.75a10.8,10.8,0,0,0,.94,2.16,11.52,11.52,0,0,0,2-2l1.67,1.48a20.77,20.77,0,0,1-2.45,2.27,11.21,11.21,0,0,0,2.83,2.57,8.92,8.92,0,0,0-1.49,2.38,11.82,11.82,0,0,1-3.63-4.87c.1,1.08.14,1.82.14,2.15v1.22c0,1.38-.74,1.92-2.57,1.92-.42,0-1.06,0-1.4,0a7.48,7.48,0,0,0-.5-2.16,16.86,16.86,0,0,1-1.73,1.84,9.08,9.08,0,0,0-1.62-1.92,8.67,8.67,0,0,0,1.79-1.55,7.35,7.35,0,0,0,1.2-2.14h-.8a7.33,7.33,0,0,0-1.05.06V551l-.7.3-.12-.56-.62.08-.7.06v6.16a11.78,11.78,0,0,0,.12,2.14h-2.47a17.09,17.09,0,0,0,.12-2.16v-6l-1.5.08c-.56,0-.73.06-1.15.12Zm2.41,3.16a24.75,24.75,0,0,1-.74,6.2l-1.75-1a17.7,17.7,0,0,0,.7-5.38Zm4.45-.34a32.79,32.79,0,0,1,.58,3.83L650,556a25.88,25.88,0,0,0-.38-3.9Zm.86-1a5.2,5.2,0,0,0,.65,0h1.58a8.8,8.8,0,0,0,.9,0l.7.94v-2h-1.64q-.93,0-1.92.06c.1.4.1.42.2.82Zm3.83,1.34c-.16.47-.16.49-.36,1.07a10.82,10.82,0,0,1-1.62,3.39,7.29,7.29,0,0,0,1.36.14c.5,0,.62-.1.62-.48Zm-1.2-7.22h4.8V544h-4.8Zm0,2.87h4.8v-1h-4.8Z"/></g><g class="cls-5"><path class="cls-3" d="M402.74,66.24c-1.2,0-2.09,0-3,.12V63.22a23.94,23.94,0,0,0,3.24.17h6.31a14.57,14.57,0,0,0-.17-2h3.38a12.43,12.43,0,0,0-.14,2h6.5a22.65,22.65,0,0,0,3.29-.17v3.14c-.84-.08-1.89-.12-3-.12h-6.74v1.2h5.1c1.5,0,1.91,0,2.7-.08-.05.45-.08,1.25-.1,2.41v4.78a19.6,19.6,0,0,0,.1,2.48,19,19,0,0,0-2.7-.12h-2.58a16.34,16.34,0,0,0,8,3.73,17.5,17.5,0,0,0-1.62,3.11,20.36,20.36,0,0,1-9-5.54c.05.81.08,1.1.08,1.69v1.4a17.52,17.52,0,0,0,.17,2.82h-3.41a22.12,22.12,0,0,0,.17-2.82V79.88c0-.1,0-.64.07-1.65a19.24,19.24,0,0,1-8.59,5.55,13.56,13.56,0,0,0-1.61-3,17.54,17.54,0,0,0,7.7-3.9H404.5a18.31,18.31,0,0,0-2.72.12,4.07,4.07,0,0,1,.07-.76,9,9,0,0,0,0-1.72V69.79a23.29,23.29,0,0,0-.1-2.45,23.11,23.11,0,0,0,2.67.1h4.84v-1.2Zm2.23,3.6V71h4.32v-1.2Zm0,3.54v1.2h4.32v-1.2ZM412.36,71H417v-1.2h-4.61Zm0,3.54H417v-1.2h-4.61Z"/></g><g class="cls-5"><path class="cls-3" d="M433.1,77.06a21.48,21.48,0,0,1-6,6.38,10.79,10.79,0,0,0-2-2.53,12.73,12.73,0,0,0,3.17-2.46,10.86,10.86,0,0,0,2.13-2.92Zm1.69-14a8.7,8.7,0,0,0-.15-1.64h3.58a8,8,0,0,0-.14,1.64v.64h6.74a22.66,22.66,0,0,0,2.95-.15v3.24a18.49,18.49,0,0,0-2.7-.12H428.24a18.35,18.35,0,0,0-2.68.12V63.51a23,23,0,0,0,3.07.15h6.16ZM430.4,75.41c-1.16,0-1.55,0-2.21.08a15.93,15.93,0,0,0,.1-1.92V69.72c0-1.15,0-1.15,0-1.25s0-.17-.05-.37a2,2,0,0,0,0-.32l.56,0c.22,0,1,0,1.65,0h12.31a21.5,21.5,0,0,0,2.24-.07,12.88,12.88,0,0,0-.1,1.94v3.85a13.67,13.67,0,0,0,.1,1.92c-.59,0-1.21-.08-2.26-.08h-4.3v5.82c0,2.16-.9,2.72-4.24,2.72l-1.72,0a7.89,7.89,0,0,0-.86-3.07,18.64,18.64,0,0,0,2.7.22c.69,0,.89-.12.89-.52V75.41Zm1-2.77h10.33v-2H431.4Zm11,2.92a12.47,12.47,0,0,0,2.46,2.87,13.91,13.91,0,0,0,3.33,2.18,15.9,15.9,0,0,0-2,2.83,19.17,19.17,0,0,1-3.56-2.9,22.8,22.8,0,0,1-2.74-3.36Z"/></g><g class="cls-5"><path class="cls-3" d="M468.89,63.49a16.1,16.1,0,0,0-.9,1.89,41.42,41.42,0,0,1-3.42,6.84,53.79,53.79,0,0,1,5.45,5.2l-2.82,3a39.58,39.58,0,0,0-4.83-5.13,29.41,29.41,0,0,1-9.6,8,9.92,9.92,0,0,0-2.55-3.06,26.25,26.25,0,0,0,6.5-4.27,25,25,0,0,0,2.87-3.05,51,51,0,0,0-6.47-4.41l2.57-2.55a64.48,64.48,0,0,1,6,4A29.27,29.27,0,0,0,465,62.19Z"/></g><g class="cls-5"><path class="cls-3" d="M474.81,83.41A25.68,25.68,0,0,0,475,80V65.43a21.66,21.66,0,0,0-.15-3.29h4a21.82,21.82,0,0,0-.15,3.29v3.72a60,60,0,0,1,11.17,5.16l-2,3.53a52.47,52.47,0,0,0-8.22-4.46,9.05,9.05,0,0,1-.93-.45V80a29.77,29.77,0,0,0,.15,3.41Z"/></g><g class="cls-5"><path class="cls-3" d="M500,81.08v1.69h-3.78c.07-1,.12-2,.12-3.46V67.19a29.69,29.69,0,0,0-.1-3.24,29.92,29.92,0,0,0,3.54.1h11.46c2.06,0,2.67,0,3.68-.1-.08.86-.1,1.94-.1,3.37V79.17a31.74,31.74,0,0,0,.12,3.58h-3.78V81.08Zm11.16-13.72H499.94V77.77h11.19Z"/></g><g class="cls-5"><path class="cls-3" d="M439.36,100.18a10.52,10.52,0,0,0,.66,2.63,9.64,9.64,0,0,0,2.53-2.28l2,2.16-1.42,1.17a16.25,16.25,0,0,1-1.77,1.33,11.63,11.63,0,0,0,3.46,3.07,17.18,17.18,0,0,0-1.92,2.92A15.68,15.68,0,0,1,439,107l0,2.08a68.71,68.71,0,0,1-7.19,2c-.49.1-.49.1-.88.2l-.42-1.89c-1.49.42-2.92.74-4.83,1.13l-1.15.2-2.28.39-.49-3.24a27.2,27.2,0,0,0,3.95-.37v-6.6h-1.21a16.78,16.78,0,0,0-2.43.15V98a16.37,16.37,0,0,0,2.46.15h1.18V96.7h-.42a13.17,13.17,0,0,0-1.45.07v-1c-.49.44-.64.54-1.15,1a12.36,12.36,0,0,0-1.3-3,11.2,11.2,0,0,0,4.39-5.08h3.16a8.05,8.05,0,0,0,2.31,3,13.43,13.43,0,0,0,1.2.94v-.74a23.83,23.83,0,0,0-.1-2.6,20.22,20.22,0,0,0,2.34.1h6.5a17.66,17.66,0,0,0,2.25-.1,23.49,23.49,0,0,0-.09,2.72v5.6c0,.81,0,1.37,0,1.71s0,.5.07.91c-.61,0-1,0-1.69,0ZM423,107a22,22,0,0,0-1-4.78l2.18-.72a23.82,23.82,0,0,1,1.1,4.71Zm6.63-12.76a15,15,0,0,1-2.24-2.87,14.51,14.51,0,0,1-2,2.87Zm-1.08,12.69c1.12-.22,1.52-.3,2.84-.64l0,1.67,1-.15V93.12A13.45,13.45,0,0,0,431,95.4l-.15-.12v1.49a13.3,13.3,0,0,0-1.47-.07h-.76v1.42h1.17a12.29,12.29,0,0,0,2-.1v2.9a15.16,15.16,0,0,0-2-.1h-1.17Zm.24-1.55a17.61,17.61,0,0,0,1.08-3.88l2,.69a22.93,22.93,0,0,1-1.27,3.83Zm6.6-11.85h5v-1.4h-5Zm0,3.93h5V96h-5Zm0,2.74v7c1.6-.37,1.82-.45,3.19-.86a16.88,16.88,0,0,1-2-6.14Z"/></g><g class="cls-5"><path class="cls-3" d="M458.85,99.94a13.88,13.88,0,0,0-1.26,2.23,19.91,19.91,0,0,1-2.06-2.67,15.17,15.17,0,0,1-2,3A10.67,10.67,0,0,0,452,100.6a35.2,35.2,0,0,1-.85,6.18,15.23,15.23,0,0,1-1.67,4.32,18.24,18.24,0,0,0-2.55-2.65c1.54-2.55,2.06-6.28,2.06-14.69V92.58a22.2,22.2,0,0,0-.15-2.43,31.13,31.13,0,0,0,3.14.12h5.79v-.61a7.28,7.28,0,0,0-.12-1.33h3.46a5.24,5.24,0,0,0-.13,1.38v.56h5.87a26.94,26.94,0,0,0,3-.15v3.24a25.56,25.56,0,0,0-2.58-.12H452.2c0,3.24-.05,4.54-.15,6.67a11.12,11.12,0,0,0,2.33-6.2l2.87.51c-.15.54-.15.54-.47,1.77a5.55,5.55,0,0,1-.19.66,8.9,8.9,0,0,0,2.26,2.65v-3a15.17,15.17,0,0,0-.13-2.55H462a20.39,20.39,0,0,0-.1,2.55v3.58A9,9,0,0,0,463.6,97a10.43,10.43,0,0,0,.81-3.24l3,.52c-.39,1.39-.63,2.23-.71,2.5A9.3,9.3,0,0,0,470,99.84a10.9,10.9,0,0,0-1.57,2.67,12.77,12.77,0,0,1-2.84-2.94,14.2,14.2,0,0,1-2,3,12,12,0,0,0-1.69-2.23v2.52h4.54a17.27,17.27,0,0,0,2.33-.1v3a16.2,16.2,0,0,0-2.33-.1h-4.54v2h5.72a15.72,15.72,0,0,0,2.4-.13v3.12a26.81,26.81,0,0,0-3-.15H454.38a27.45,27.45,0,0,0-3,.15v-3.09a14.56,14.56,0,0,0,2.41.1h5.08v-2h-3.93a13,13,0,0,0-2.28.1v-3a15.57,15.57,0,0,0,2.28.1h3.93Z"/></g><g class="cls-5"><path class="cls-3" d="M472.72,98.64a7.31,7.31,0,0,0,1.3.1l.71,0c.54-.69.69-.88,1.13-1.52a30.62,30.62,0,0,0-3.24-3.63L474.09,91l.81.86a15.76,15.76,0,0,0,1.67-3.78l2.82,1a7,7,0,0,0-.54,1.05,33.66,33.66,0,0,1-2.18,3.81l.76,1a25.5,25.5,0,0,0,2.23-4.1l2.45,1.35c-.19.29-.19.29-1,1.57-1.05,1.67-2.33,3.51-3.41,4.88,1.13,0,1.55-.07,2.28-.14a20.11,20.11,0,0,0-.63-1.94l2-.71a34.57,34.57,0,0,1,1.18,3.65c.05-.54.07-1.45.07-2.21V92.55a23.26,23.26,0,0,0-.1-2.45,19.86,19.86,0,0,0,2.38.1h1.33a15.14,15.14,0,0,0,.66-2.11l3.26.41c-.29.79-.37,1-.68,1.7H492a18.88,18.88,0,0,0,2.38-.1,21.26,21.26,0,0,0-.1,2.5v4.66a18.64,18.64,0,0,0,.1,2.41c-.71,0-1.57-.08-2.33-.08h-2.16a13,13,0,0,0,1.15,2.65,13.92,13.92,0,0,0,2.43-2.47l2.06,1.81a26.78,26.78,0,0,1-3,2.8,13.62,13.62,0,0,0,3.49,3.16,10.46,10.46,0,0,0-1.84,2.92,14.46,14.46,0,0,1-4.47-6c.12,1.32.17,2.23.17,2.65v1.49c0,1.7-.91,2.36-3.16,2.36-.52,0-1.3,0-1.72,0a9.27,9.27,0,0,0-.61-2.65,21.29,21.29,0,0,1-2.14,2.26,11.09,11.09,0,0,0-2-2.36,10.76,10.76,0,0,0,2.21-1.91,8.89,8.89,0,0,0,1.47-2.63h-1a8.89,8.89,0,0,0-1.3.08v-2.53l-.86.37-.14-.69a6.06,6.06,0,0,0-.76.1L479,101v7.58a14.9,14.9,0,0,0,.14,2.63h-3a20.53,20.53,0,0,0,.15-2.65v-7.34c-1,0-1.18.08-1.84.1a13.83,13.83,0,0,0-1.42.15Zm3,3.87a30.43,30.43,0,0,1-.9,7.63l-2.16-1.27c.56-1.74.71-3,.86-6.63Zm5.48-.41a41.26,41.26,0,0,1,.71,4.71l-2,.49a30.83,30.83,0,0,0-.47-4.81Zm1-1.18c.27,0,.32,0,.81,0H485a9.26,9.26,0,0,0,1.1,0l.86,1.16V99.59h-2c-.76,0-1.55,0-2.35.08.12.49.12.51.24,1Zm4.71,1.64c-.19.59-.19.62-.44,1.33a13.39,13.39,0,0,1-2,4.17,9.24,9.24,0,0,0,1.67.17c.62,0,.76-.12.76-.59Zm-1.47-8.88h5.91V92.53h-5.91Zm0,3.54h5.91V96h-5.91Z"/></g><g class="cls-5"><path class="cls-3" d="M435.92,140.63a13.76,13.76,0,0,0-.54-2.21l-.71-2h-6.29l-.71,2a10.45,10.45,0,0,0-.57,2.21H423a20.47,20.47,0,0,0,1.06-2.5l4.54-12.28a14.47,14.47,0,0,0,.67-2.17h4.48a14.73,14.73,0,0,0,.71,2.17L439,138.13c.39,1.06.77,2,1,2.5Zm-4.1-13.07c-.07-.19-.15-.4-.32-1a9.72,9.72,0,0,1-.29,1l-2,5.9h4.55Z"/></g><g class="cls-5"><path class="cls-3" d="M441.52,123.56a14.3,14.3,0,0,0,2.28.12h2.27c1.25,0,1.54,0,2.35-.08a30.06,30.06,0,0,0-.16,3.38v10.73a21.68,21.68,0,0,0,.16,2.92h-3.81a24.07,24.07,0,0,0,.17-2.92V126.62h-.92a17.41,17.41,0,0,0-2.34.15Z"/></g><g class="cls-5"><path class="cls-3" d="M461.16,125.29a14.39,14.39,0,0,0-.12-2.15h3.06a15.55,15.55,0,0,0-.12,2.15v4.25h4v-3.17a14.12,14.12,0,0,0-.08-1.68h2.93a13.57,13.57,0,0,0-.1,1.89v4.15a13.56,13.56,0,0,0,.06,1.46c-.41,0-1-.06-1.54-.06H464v6.5h4.67V135.4a13.6,13.6,0,0,0-.09-1.79h2.94a19,19,0,0,0-.1,2.06v4.38a15.29,15.29,0,0,0,.12,2.25h-2.87v-1H456.77v1h-2.88a18.1,18.1,0,0,0,.13-2.25v-4.34a18.63,18.63,0,0,0-.11-2.06h2.94a13.88,13.88,0,0,0-.08,1.79v3.19h4.39v-6.5h-4.87c-.67,0-1.15,0-1.61.06,0-.46.06-.9.06-1.46V126.6a18.4,18.4,0,0,0-.1-1.91h2.94a13.49,13.49,0,0,0-.08,1.71v3.14h3.66Z"/></g><g class="cls-5"><path class="cls-3" d="M475,141.74a24.11,24.11,0,0,0,.13-2.75V126.83a20.47,20.47,0,0,0-.11-2.33,20,20,0,0,0,2.36.1h12.21a19.66,19.66,0,0,0,2.34-.1,17.93,17.93,0,0,0-.11,2.33V139a23.09,23.09,0,0,0,.13,2.75h-3.05V140.3H478.1v1.44Zm3.06-4.21h10.82V127.37H478.1Z"/></g><path class="cls-6" d="M438.3,362.1a1.37,1.37,0,0,0-1.4-1.4H405.8a1.37,1.37,0,0,0-1.4,1.4h0v31.1a1.37,1.37,0,0,0,1.4,1.4h31.1a1.37,1.37,0,0,0,1.4-1.4h0"/><path id="train_icon02-2" data-name="train icon02-2" class="cls-3" d="M426.8,384.8l2.2-.6a7.56,7.56,0,0,0,1.3-3.9V367.8a3.59,3.59,0,0,0-3.6-3.6H416.2a3.59,3.59,0,0,0-3.6,3.6v12.5a6.13,6.13,0,0,0,1.5,3.7l2,.7-5,6.3h2.7l3.5-4.4h8.5l3.5,4.4H432Zm-9-19.1a.43.43,0,0,1,.4-.4h6.5a.43.43,0,0,1,.4.4v.9a.43.43,0,0,1-.4.4h-6.5a.43.43,0,0,1-.4-.4Zm-3.6,8.8v-5a.94.94,0,0,1,1-1h12.3a.94.94,0,0,1,1,1v5a.94.94,0,0,1-1,1H415.2a1,1,0,0,1-1-1Zm2,7.2a1.35,1.35,0,1,1,1.4-1.3h0a1.59,1.59,0,0,1-1.4,1.3Zm9-1.4a1.35,1.35,0,1,1,1.4,1.3h0a1.28,1.28,0,0,1-1.4-1.3Z"/><path class="cls-8" d="M285.6,685.5c-.1-8.9-8.5-75.9-18.2-153.5-14.7-117.6-32.9-263.8-33.9-299.1C230.8,142.8,249.2,7.8,249.4,6.5L260.3,8c-.2,1.3-18.5,135.4-15.8,224.6,1,34.7,19.2,180.7,33.9,298,10.1,81.1,18.1,145.2,18.2,154.7Z"/><path class="cls-3" d="M258.3,22.3l-10.9-1.4.7-5.5c.8-6.4,1.3-10,1.3-10l.8-5.4,10.9,1.5-.8,5.4s-.5,3.6-1.3,9.9Z"/><path class="cls-3" d="M280.7,638.8l-.7-5.5c-.7-5.9-1.5-12.3-2.3-18.9l-.7-5.5,10.9-1.3.7,5.5c.8,6.7,1.6,13,2.3,19l.7,5.5Zm-7.5-61.5-3.7-29.9,10.9-1.4,3.7,29.9Zm-7.7-61.6-3.7-29.9,10.9-1.4,3.7,29.8Zm-7.6-61.5-.7-5.5c-.8-6.3-1.6-12.6-2.3-18.9l-.7-5.5,10.9-1.3.7,5.5c.8,6.3,1.5,12.6,2.3,18.9l.7,5.5Zm-7.6-61.5-.7-5.5c-.8-6.4-1.5-12.7-2.3-19l-.6-5.5,10.9-1.3.6,5.5c.7,6.2,1.5,12.5,2.3,18.9l.7,5.5ZM243.1,331l-.6-5.5c-.7-6.5-1.5-12.9-2.1-19l-.6-5.5,10.9-1.2.6,5.5c.7,6.1,1.4,12.4,2.1,19l.6,5.5Zm-6.7-61.8-.5-5.5c-.7-7.4-1.3-13.8-1.7-19.1l-.4-5.5,11-.8.4,5.5c.4,5.2.9,11.6,1.6,18.9l.5,5.5Zm7.8-62.3-11-.2.1-5.5c.1-6.1.2-12.6.5-19.2l.2-5.5,11,.4-.2,5.5c-.2,6.5-.4,12.9-.5,18.9Zm2.3-61.6-11-.7.4-5.5c.4-6.2.9-12.6,1.4-19.1l.4-5.5,11,.9-.4,5.5c-.5,6.4-1,12.8-1.4,18.9Zm5-61.5-10.9-1.1.5-5.5c.6-6.3,1.3-12.7,2-19l.6-5.5,10.9,1.2-.6,5.5c-.7,6.3-1.3,12.7-2,18.9Z"/><path class="cls-3" d="M285.7,690.1l-.1-5.5c0-.9-.1-3.3-.8-9.5l-.6-5.5,10.9-1.1.6,5.5c.5,5.1.8,8.6.8,10.5l.1,5.5Z"/><path class="cls-3" d="M220.6,158.3c-1.2,24.5-1.8,49-1.1,71,.6,20.3,6.8,76.6,14.7,143h40.4c-8-67.1-14.3-124-14.9-143.8-.6-21.6-.1-45.9,1.2-70.2Z"/><path class="cls-6" d="M304.9,252.8a2.69,2.69,0,0,0-2.7-2.7H241.7a2.69,2.69,0,0,0-2.7,2.7v60.5a2.69,2.69,0,0,0,2.7,2.7h60.5a2.69,2.69,0,0,0,2.7-2.7h0"/><path id="train_icon02-3" data-name="train icon02-3" class="cls-3" d="M282.4,297l4.2-1.1a15.35,15.35,0,0,0,2.6-7.5V264a7,7,0,0,0-7-7H261.7a7,7,0,0,0-7,7h0v24.4a13.67,13.67,0,0,0,2.8,7.3l3.9,1.4-9.7,12.3h5.2l6.8-8.6h16.4l6.8,8.6h5.2Zm-17.5-37.2a.68.68,0,0,1,.7-.7h12.6a.68.68,0,0,1,.7.7v1.7a.68.68,0,0,1-.7.7H265.6a.68.68,0,0,1-.7-.7ZM258,277v-9.8a2,2,0,0,1,2-2h24a2,2,0,0,1,2,2V277a2,2,0,0,1-2,2H260a2.07,2.07,0,0,1-2-2Zm3.8,13.9a2.6,2.6,0,1,1,2.6-2.6,2.65,2.65,0,0,1-2.6,2.6Zm17.6-2.6a2.58,2.58,0,0,1,2.6-2.6,2.6,2.6,0,1,1-2.6,2.6Z"/><path class="cls-2" d="M498.3,457.5l85.8,52.4a16.79,16.79,0,0,0,23.1-5.6c.1-.1.1-.2.2-.4l45.8-79.2a16.79,16.79,0,0,0-3.4-21l-71.4-63.3a16.78,16.78,0,0,0-23.7,1.4,22,22,0,0,0-1.4,1.8l-60.2,90.2a16.76,16.76,0,0,0,4.6,23.3C497.9,457.2,498.1,457.4,498.3,457.5Z"/><g class="cls-5"><path class="cls-3" d="M546.13,398.35a17.48,17.48,0,0,1,3.14,2l-1.15,1.68a13.22,13.22,0,0,0-3.15-2.19Zm3.78,6.17a23.69,23.69,0,0,1-3,5.72l-1.72-1.54a17,17,0,0,0,3-5.4ZM547,394a21.52,21.52,0,0,1,3.39,2.36L549.18,398a19.76,19.76,0,0,0-3.44-2.54Zm6.61,6.23a24.59,24.59,0,0,1,3.39,2.39,19.42,19.42,0,0,0,1.9-4.51H554a17.33,17.33,0,0,1-3.54,4.57,6,6,0,0,0-1.52-1.45,13.19,13.19,0,0,0,3.82-5.11,9.46,9.46,0,0,0,.69-2.36l2.23.29c-.07.22-.07.22-.2.59,0,.07-.07.2-.13.35a11.4,11.4,0,0,1-.44,1.17h3.8a9.11,9.11,0,0,0,1.59-.1l1.06,1.12c-.09.22-.14.4-.35,1.09a21.88,21.88,0,0,1-4,8,16.41,16.41,0,0,1-3.27,2.86,21.18,21.18,0,0,1-2.32,1.34,4.87,4.87,0,0,0-1.61-1.72,15,15,0,0,0,6.06-4.4,21.4,21.4,0,0,0-3.47-2.56Z"/></g><g class="cls-5"><path class="cls-3" d="M566.73,399.7c1-.29,1.57-.46,2.4-.73a15.36,15.36,0,0,0-1-1.48l1.51-.6a15.12,15.12,0,0,1,1.88,3.16,4.29,4.29,0,0,0,2.16-3.6h-.57a9.11,9.11,0,0,0-1.37.07v-1.9a13.5,13.5,0,0,0,1.83.09H578c.71,0,1.17,0,1.57,0,0,.2,0,.27-.07.6-.29,4.27-.46,5.3-.9,5.84s-1,.68-2.19.68c-.38,0-.82,0-1.42-.07a8.46,8.46,0,0,0-.37-1.72,8.27,8.27,0,0,0,1.68.2c.48,0,.7-.11.81-.4a13.31,13.31,0,0,0,.38-3.34h-2a7.46,7.46,0,0,1-1,3.23,7,7,0,0,1-2.58,2.41,4.61,4.61,0,0,0-.66-1.09l-1.06.43c-.2-.51-.23-.58-.38-1a45,45,0,0,1-5.21,1.68l-.53.16-.42-1.95a10.42,10.42,0,0,0,1.23-.18l-.15-3.77a13.08,13.08,0,0,0-.09-1.35,20,20,0,0,0,4.77-.91,4.58,4.58,0,0,0,.84-.38l1.31,1.64a34.82,34.82,0,0,1-5,1.15Zm9.76,2.65a13.73,13.73,0,0,0,1.77-.08,13.54,13.54,0,0,0-.08,1.81v4.35a13.9,13.9,0,0,0,.1,1.9h-2v-.75h-8.88v.75h-2a13.63,13.63,0,0,0,.11-1.92v-4.33a15.16,15.16,0,0,0-.07-1.81,12.79,12.79,0,0,0,1.68.08Zm-9.06,2.85h3.41v-1.36h-3.41Zm0,2.83h3.41v-1.37h-3.41Zm5.24-2.83h3.63v-1.36h-3.63Zm0,2.83h3.63v-1.37h-3.63Z"/></g><g class="cls-5"><path class="cls-3" d="M546.64,423.19a20.51,20.51,0,0,1,4.66,2.33l-1.12,2a26.16,26.16,0,0,0-4.57-2.45Zm-.61,8c5.72-.84,9.67-3.27,12.1-8.61L560,424c-2.65,5.64-7.22,8.4-13.37,9.44ZM548.17,419a18.79,18.79,0,0,1,4.53,2.3l-1.09,1.94a22.9,22.9,0,0,0-4.48-2.41Z"/></g><g class="cls-5"><path class="cls-3" d="M563.59,423.72h14.65v1.95h-6a8.79,8.79,0,0,1-5.06,8.17l-1.43-1.72c2.85-1.48,4.06-3.31,4.15-6.45h-6.32Zm1.7-4.26h11.27v2H565.29Z"/></g><g class="cls-5"><path class="cls-3" d="M588.9,433.94h-2.12v-6.86a28.19,28.19,0,0,1-4.55,2.23L581,427.68a22.71,22.71,0,0,0,9.89-6.61l1.68,1.2a27,27,0,0,1-3.69,3.36Z"/></g><g class="cls-5"><path class="cls-3" d="M559,445.84l1.19,1.27a12.46,12.46,0,0,1-4.09,5.68l-1.48-1.37a9.57,9.57,0,0,0,2.87-3.34l-6.18,1v4.62c0,1.06.55,1.4,2.18,1.4a29.09,29.09,0,0,0,5.48-.49l.2,2.23a37.86,37.86,0,0,1-5.7.36c-3.33,0-4.39-1.18-4.39-3v-4.77l-3.89.64-.29-2,4.18-.66v-4.64h2.23V447Z"/></g><g class="cls-5"><path class="cls-3" d="M564.34,443.68a17.45,17.45,0,0,1,4.33,3.51L567,448.94a25.69,25.69,0,0,0-4.13-3.71Zm-1.19,11.42c5.81-1.37,9.67-4.42,11.57-9.34l1.95,1.21c-2.12,5.55-6.74,8.93-12.73,10.26Z"/></g><g class="cls-5"><path class="cls-3" d="M585.67,446.57a18.85,18.85,0,0,1-4,4.05l-1.61-1.41a17.37,17.37,0,0,0,5.66-7.26l2.19.67a20.29,20.29,0,0,1-1.06,2.08h5.41l1.21,1.23c-1.83,6.52-5.23,10-10.76,12.16l-1.35-1.84a17.36,17.36,0,0,0,6.08-3.73,18.91,18.91,0,0,0-3.21-2.58l1.27-1.4a15,15,0,0,1,3.33,2.41,14.07,14.07,0,0,0,2.19-4.38Z"/></g><g class="cls-5"><path class="cls-3" d="M612.57,448.92v2.3H597.89v-2.3Z"/></g><path class="cls-2" d="M11.2,559.9l30.4,14.2A12.31,12.31,0,0,0,58,568.2l59.9-125.8a12.35,12.35,0,0,0-3.4-14.9l-51.9-42a12.34,12.34,0,0,0-17.3,1.8,12,12,0,0,0-1.8,3.1L5.1,483.8a12.67,12.67,0,0,0-.9,4.7v60.3A12,12,0,0,0,11.2,559.9Z"/><g class="cls-5"><path class="cls-3" d="M49.56,476.71a35.94,35.94,0,0,0-3.65-2.21,11.4,11.4,0,0,1-5.63,2.25,4.5,4.5,0,0,0-1-1.76,10.14,10.14,0,0,0,4.76-1.4,25.4,25.4,0,0,0-3.56-1.3,13.64,13.64,0,0,0,1.81-2.74h-.13a12.51,12.51,0,0,0-1.75.09v-1.48c-.07.11-.13.18-.16.24s-.32.53-.57,1a9.62,9.62,0,0,1-1-1.86,23.55,23.55,0,0,1,.09,2.5v4.56a18,18,0,0,0,.11,2.2h-2a18.27,18.27,0,0,0,.11-2.2v-3.32a24.35,24.35,0,0,1,.13-2.61,12.27,12.27,0,0,1-1.92,3.92,6.25,6.25,0,0,0-1-1.84,14.49,14.49,0,0,0,2.58-5.46H36a9.33,9.33,0,0,0-1.32.07v-1.9a7.67,7.67,0,0,0,1.34.08H37v-1.45a11.81,11.81,0,0,0-.11-1.86h2a14.19,14.19,0,0,0-.1,1.84v1.47h.64a6.19,6.19,0,0,0,1.12-.08v1.88c-.39,0-.73-.05-1.1-.05h-.58a8.38,8.38,0,0,0,1.55,2.37h0c.49.05,1.22.09,2,.09h.69a8.1,8.1,0,0,0,.63-2l2.19.34a9.93,9.93,0,0,0-.73,1.65h3.94a15,15,0,0,0,2-.11v2a14.43,14.43,0,0,0-2-.11,9.1,9.1,0,0,1-1.84,3.62c1.28.6,2.23,1.11,3.56,1.88ZM41.69,466A19.23,19.23,0,0,0,40,461.77l1.7-.73a26.15,26.15,0,0,1,1.79,4.13Zm2.68,3.6a19.4,19.4,0,0,1-1.09,1.95c1.28.48,1.4.53,2.26.88a6.49,6.49,0,0,0,1.59-2.83Zm.66-4.37a19.62,19.62,0,0,0-1.5-4.23l1.81-.52a22,22,0,0,1,1.48,4.24Zm1.75.92a20.2,20.2,0,0,0,2.38-5.41l1.86.73a29.45,29.45,0,0,1-2.52,5.39Z"/></g><g class="cls-5"><path class="cls-3" d="M66.83,476.54v-1H56v1H54a17.7,17.7,0,0,0,.11-2.26V463.05a19,19,0,0,0-.09-1.92,18.68,18.68,0,0,0,2.07.09H66.81a18.91,18.91,0,0,0,2.07-.09,13.83,13.83,0,0,0-.09,1.9v11.25a20.44,20.44,0,0,0,.1,2.26ZM56,467.36h4.31V463H56Zm0,6.41h4.31v-4.64H56Zm6.25-6.41h4.58V463H62.25Zm0,6.41h4.58v-4.64H62.25Z"/></g><g class="cls-5"><path class="cls-3" d="M41.83,485.48a1.34,1.34,0,0,1-.14.25l-.11.2-.22.44a20.66,20.66,0,0,1-5.72,7,8.36,8.36,0,0,0-1.37-1.87,14,14,0,0,0,4.42-4.62,6.51,6.51,0,0,0,1-2.21Zm6.49,15.27c-.48-1-.62-1.28-1-1.89a94.19,94.19,0,0,1-9.68,1,13.69,13.69,0,0,0-2.08.18l-.37-2.28a13,13,0,0,0,1.32.05h1a45.88,45.88,0,0,0,2.63-5.3,13.94,13.94,0,0,0,1-3.09l2.36.62a8.38,8.38,0,0,0-.35.77,53.76,53.76,0,0,1-3.34,6.9,52.88,52.88,0,0,0,6.48-.58,26.66,26.66,0,0,0-2.28-3.18l1.75-1a44.62,44.62,0,0,1,4.39,6.66Zm-2.63-16.12a11.59,11.59,0,0,0,2,3.53,15.42,15.42,0,0,0,2,2,12.51,12.51,0,0,0,1.7,1.22,9.4,9.4,0,0,0-1.33,2,19.1,19.1,0,0,1-4.13-4.13,17.71,17.71,0,0,1-1.64-2.72c0-.08-.11-.2-.21-.41l-.18-.36a2.64,2.64,0,0,0-.14-.29Z"/></g><g class="cls-5"><path class="cls-3" d="M67.62,500.82v-.73H56v.73h-2a20.68,20.68,0,0,0,.11-2.34V486.85c0-.81,0-1.48-.09-2.16a16.84,16.84,0,0,0,2.08.09H67.51a17.61,17.61,0,0,0,2.1-.09,18.82,18.82,0,0,0-.09,2.16V498.5a17.52,17.52,0,0,0,.11,2.32ZM56,496.58c.75-.29,1.3-.51,1.61-.66a10.52,10.52,0,0,0,2.06-1.33h-1a7.67,7.67,0,0,0-1.18,0,8.39,8.39,0,0,0,0-.95v-1.32a9.05,9.05,0,0,0,0-1,8.94,8.94,0,0,0,1.18,0H65a8.85,8.85,0,0,0,1.17,0,6.3,6.3,0,0,0,0,1v1.3a5.62,5.62,0,0,0,0,.95l.75.42-.33.31a11.42,11.42,0,0,1-1,.84,14.56,14.56,0,0,0,1.81.58,9,9,0,0,0-1.15,1.46,11.73,11.73,0,0,1-4-2.48c0,.33,0,.33,0,.62v.79a4.9,4.9,0,0,0,.08,1H60.37a5.27,5.27,0,0,0,.07-1v-.79c0-.11,0-.44,0-.56A13.94,13.94,0,0,1,57.18,498,5.31,5.31,0,0,0,56,496.63v1.89H67.62V486.37H56Zm2.58-7.8c-.71,0-1,0-1.5.06v-1.46a11,11,0,0,0,1.5.07h2.17c0-.29,0-.48-.07-.71h2a4.25,4.25,0,0,0-.08.71h2.51a10.79,10.79,0,0,0,1.44-.07v1.46a13.45,13.45,0,0,0-1.43-.06H62.65v.73h3.2a7.15,7.15,0,0,0,1.39-.09V491a9.07,9.07,0,0,0-1.35-.08H57.81a9.54,9.54,0,0,0-1.37.08v-1.54a7.68,7.68,0,0,0,1.43.09h2.92v-.73Zm.71,4.55h5v-.62h-5ZM63,494.59a8.86,8.86,0,0,0,1.37,1,8.6,8.6,0,0,0,1-1H63Z"/></g><path class="cls-2" d="M474,492.2l35.7,23.4a13.91,13.91,0,0,1,5.3,16.8l-39.3,97.5a13.92,13.92,0,0,1-14.5,8.6L397,631.2a14,14,0,0,1-12.3-15.4,13.81,13.81,0,0,1,1.9-5.6l67.8-113.7a14,14,0,0,1,19.1-4.8A2.25,2.25,0,0,0,474,492.2Z"/><g class="cls-5"><path class="cls-3" d="M432.45,563c0-.7,0-1.34-.09-1.92a16.06,16.06,0,0,0,2,.09H443a14.3,14.3,0,0,0,1.92-.09,16.42,16.42,0,0,0-.09,1.84v11.55a14.92,14.92,0,0,0,.11,2.17h-2.15v-1.08h-8.33v1.08h-2.14a19.07,19.07,0,0,0,.11-2.17Zm2,4.23h8.33v-4.16h-8.33Zm0,6.45h8.33v-4.56h-8.33Z"/></g><g class="cls-5"><path class="cls-3" d="M449,566.18H463.6v2h-6a8.79,8.79,0,0,1-5.06,8.17l-1.43-1.72c2.85-1.48,4.06-3.31,4.15-6.45H449Zm1.7-4.26h11.27v2H450.65Z"/></g><g class="cls-5"><path class="cls-3" d="M470.21,562V573a18.52,18.52,0,0,0,9-6.11l1.39,1.84a19.32,19.32,0,0,1-11.56,7l-1.12-1.24V562Z"/></g><polygon class="cls-3" points="918.2 288.9 664.9 288.9 664.9 215.3 646.4 194.7 664.9 195.7 664.9 135.4 918.2 135.4 918.2 288.9"/><rect class="cls-6" x="713.62" y="176.21" width="7.6" height="7.6" transform="translate(82.84 560.02) rotate(-45)"/><rect class="cls-6" x="707.4" y="182.3" width="7.6" height="7.6" transform="translate(76.72 557.4) rotate(-45)"/><rect class="cls-4" x="713.64" y="188.5" width="7.6" height="7.6" transform="translate(74.16 563.63) rotate(-45)"/><rect class="cls-6" x="719.81" y="194.65" width="7.6" height="7.6" transform="translate(71.61 569.79) rotate(-45)"/><rect class="cls-6" x="725.96" y="188.38" width="7.6" height="7.6" transform="translate(77.85 572.3) rotate(-45)"/><rect class="cls-6" x="713.56" y="200.68" width="7.6" height="7.6" transform="translate(65.52 567.14) rotate(-45)"/><rect class="cls-6" x="707.51" y="194.67" width="7.6" height="7.6" transform="translate(68 561.1) rotate(-45)"/><rect class="cls-6" x="701.23" y="188.5" width="7.6" height="7.6" transform="translate(70.52 554.86) rotate(-45)"/><path class="cls-4" d="M750.1,192.5a10.55,10.55,0,0,0,.4,3.1,6.82,6.82,0,0,0,1.2,2.6,4.63,4.63,0,0,0,2.1,1.8,6.3,6.3,0,0,0,3,.7c1,0,2-.1,3-.2a4.72,4.72,0,0,0,2.5-1.1.6.6,0,0,1,.4-.1.76.76,0,0,1,.4.2.52.52,0,0,1,.2.4c.1.1,0,.3-.1.4a7,7,0,0,1-3.3,2.6,13.71,13.71,0,0,1-8,.2,8.17,8.17,0,0,1-5.4-5,14.26,14.26,0,0,1-.9-5,10.88,10.88,0,0,1,.7-4,9.88,9.88,0,0,1,2.1-3.2,11.05,11.05,0,0,1,3.4-2.2,12.06,12.06,0,0,1,4.6-.8,11.34,11.34,0,0,1,2.5.3,7.84,7.84,0,0,1,2.1.9,6.73,6.73,0,0,1,1.5,1.4,3.61,3.61,0,0,1,.6,2,2.69,2.69,0,0,1-.5,1.5,2,2,0,0,1-1.6.7,2.1,2.1,0,0,1-1.5-.5,1.82,1.82,0,0,1-.6-1.4,1.69,1.69,0,0,1,.3-1,1.08,1.08,0,0,0,.3-.7c0-.5-.3-.9-1-1.2a5.87,5.87,0,0,0-2.3-.4,5.55,5.55,0,0,0-2.8.7,6.17,6.17,0,0,0-1.8,1.8,8.25,8.25,0,0,0-1,2.6,13.52,13.52,0,0,0-.5,2.9"/><path class="cls-4" d="M784.5,195.5a24.44,24.44,0,0,0,.1,2.9,3.29,3.29,0,0,0,.4,1.7,2.19,2.19,0,0,0,1,.9,3.72,3.72,0,0,0,1.8.2c.1,0,.2.1.3.2a.75.75,0,0,1,.1.5.6.6,0,0,1-.1.4c0,.1-.2.2-.3.2h-1.1l-.5.1c-.2,0-.4.1-.7.1a4.4,4.4,0,0,0-1,.2l-1.3.3a5,5,0,0,1-1.2.2c-.2,0-.5.1-.7.1-.5,0-.8-.8-.8-2.4,0-.1,0-.1-.1-.1s-.1,0-.2.1A9.38,9.38,0,0,1,777,203a11.15,11.15,0,0,1-3.1.5,9.46,9.46,0,0,1-3.3-.5,4.83,4.83,0,0,1-2-1.4,6.43,6.43,0,0,1-1-2.4,16.55,16.55,0,0,1-.3-3.2v-4.9a23.58,23.58,0,0,0-.1-2.9,4.71,4.71,0,0,0-.4-1.6,1.6,1.6,0,0,0-.9-.7c-.5-.1-1.1-.2-1.7-.3-.1,0-.3-.1-.3-.2a.85.85,0,0,1,0-.8.52.52,0,0,1,.4-.2l1.2-.1a8,8,0,0,0,1.5-.3l1.7-.4c.6-.1,1.2-.3,1.7-.4s.7,0,.8.2a1.42,1.42,0,0,1,.2.6v10.3a13.68,13.68,0,0,0,.2,2.9,11.7,11.7,0,0,0,.5,2,2,2,0,0,0,1.1,1.1,4.71,4.71,0,0,0,1.7.4,11.15,11.15,0,0,0,3.1-.5,7,7,0,0,0,2.4-1.3.76.76,0,0,0,.2-.5V188.1a4.53,4.53,0,0,0-.3-1.6,1.78,1.78,0,0,0-.8-.7c-.5-.1-1-.2-1.6-.3-.1,0-.3-.1-.3-.2a.85.85,0,0,1,0-.8.52.52,0,0,1,.4-.2,14.46,14.46,0,0,0,2.9-.4c.9-.2,1.8-.5,2.9-.8.4-.1.7,0,.8.2a1.42,1.42,0,0,1,.2.6Z"/><path class="cls-4" d="M809.3,192.6a14.87,14.87,0,0,1-.7,4.7,9.24,9.24,0,0,1-2.1,3.4,8.13,8.13,0,0,1-3.3,2.1,12.34,12.34,0,0,1-4.2.7,9.86,9.86,0,0,1-3.8-.7,7.55,7.55,0,0,1-3-2,9.44,9.44,0,0,1-2-3.3,12.49,12.49,0,0,1-.7-4.7,11.41,11.41,0,0,1,.7-4.1,9.45,9.45,0,0,1,2.1-3.1,8.25,8.25,0,0,1,3.2-2,9.59,9.59,0,0,1,4.1-.7,12.72,12.72,0,0,1,3.9.6,8.26,8.26,0,0,1,5.1,4.9,12,12,0,0,1,.7,4.2m-4.5.5c0-1.1-.1-2.1-.2-3.2a9,9,0,0,0-.8-2.8,4.21,4.21,0,0,0-1.6-1.9,4,4,0,0,0-2.6-.7,5.3,5.3,0,0,0-2.8.7,5.51,5.51,0,0,0-1.7,2,13.09,13.09,0,0,0-.9,2.8,17.74,17.74,0,0,0-.2,3.2c0,1,.1,2,.2,3a9,9,0,0,0,.8,2.8,6.84,6.84,0,0,0,1.7,2.1,3.77,3.77,0,0,0,2.7.8,4.3,4.3,0,0,0,2.7-.8,4.47,4.47,0,0,0,1.6-2,9.85,9.85,0,0,0,.8-2.8,16.55,16.55,0,0,0,.3-3.2"/><path class="cls-6" d="M815.3,181.1a26.28,26.28,0,0,0-.1-3,4.71,4.71,0,0,0-.4-1.7,1.55,1.55,0,0,0-1.1-.8,14.16,14.16,0,0,0-2-.4c-.1,0-.3-.1-.3-.2a.85.85,0,0,1,0-.8.52.52,0,0,1,.4-.2c.9-.1,1.9-.1,3.1-.3a21.36,21.36,0,0,0,3.5-.6c.4-.1.7-.1.8.1a.76.76,0,0,1,.2.5v25.9a2.66,2.66,0,0,0,.3,1.2,1.6,1.6,0,0,0,.9.7,11.63,11.63,0,0,0,1.8.4.52.52,0,0,1,.4.2.75.75,0,0,1,.1.5.6.6,0,0,1-.1.4.52.52,0,0,1-.4.2c-.8,0-1.6-.1-2.3-.1a11.33,11.33,0,0,0-2.6-.1,24.37,24.37,0,0,0-2.7.1,12.21,12.21,0,0,1-2.7.1c-.1,0-.3-.1-.3-.2a.6.6,0,0,1-.1-.4.9.9,0,0,1,.1-.5.52.52,0,0,1,.4-.2,6.46,6.46,0,0,0,1.9-.4,2.29,2.29,0,0,0,1-.7,2,2,0,0,0,.3-1.1V198Z"/><path class="cls-6" d="M829.6,192c-.1,0-.2,0-.2.1v.4a12,12,0,0,0,.5,3.8,6.21,6.21,0,0,0,1.4,2.5,6,6,0,0,0,2.1,1.4,8.42,8.42,0,0,0,2.7.4,28.25,28.25,0,0,0,2.9-.2,4.42,4.42,0,0,0,2.4-1.1.44.44,0,0,1,.5-.1.76.76,0,0,1,.4.2.52.52,0,0,1,.2.4.6.6,0,0,1-.1.4,7.5,7.5,0,0,1-3.1,2.5,13.94,13.94,0,0,1-8.8-.1,7.65,7.65,0,0,1-3.1-2.2,8.91,8.91,0,0,1-1.8-3.3,14,14,0,0,1-.6-4.1,10.88,10.88,0,0,1,.7-4,9.82,9.82,0,0,1,5.1-5.5,9.91,9.91,0,0,1,7.3-.2,7.39,7.39,0,0,1,2.5,1.7,8,8,0,0,1,1.6,2.6,9.6,9.6,0,0,1,.6,3.3q0,.9-.6.9Zm7.9-1.5c.4,0,.6-.1.7-.4a3.4,3.4,0,0,0,.1-1,5.66,5.66,0,0,0-.3-1.8,5.48,5.48,0,0,0-.8-1.5,3.78,3.78,0,0,0-1.2-1,3.29,3.29,0,0,0-1.7-.4,4.28,4.28,0,0,0-4.3,3.1,12.86,12.86,0,0,0-.4,1.9,2.77,2.77,0,0,0-.1.9c0,.2.1.3.2.3Z"/><path class="cls-6" d="M861.6,186.3a6.63,6.63,0,0,1,.9,1.9,7.61,7.61,0,0,1,.3,2.1,8,8,0,0,1-.7,3.4,6.77,6.77,0,0,1-2,2.4,7.61,7.61,0,0,1-2.8,1.5,10,10,0,0,1-3.4.5,6.64,6.64,0,0,0-1.3.1,8.75,8.75,0,0,0-1.6.2,5,5,0,0,0-1.3.4.79.79,0,0,0-.5.8.68.68,0,0,0,.4.6,3.58,3.58,0,0,0,1.1.4,8.52,8.52,0,0,0,2.3.3c2.1.1,3.9.3,5.6.5a16.31,16.31,0,0,1,4.2,1.1,5.33,5.33,0,0,1,3.5,5.5,8.42,8.42,0,0,1-.7,3.5,8.55,8.55,0,0,1-2.2,2.8,10.16,10.16,0,0,1-3.6,1.8,16.79,16.79,0,0,1-5,.7,20.87,20.87,0,0,1-4.3-.4,10.87,10.87,0,0,1-3.4-1.3,6.61,6.61,0,0,1-2.2-2.2,7.22,7.22,0,0,1-.8-3.2,6.45,6.45,0,0,1,.3-2,8,8,0,0,1,.8-1.6,3.45,3.45,0,0,1,1.2-1.2c.4-.3.9-.6,1.3-.9a5.24,5.24,0,0,1-1.8-1,2.17,2.17,0,0,1-.8-2,2.62,2.62,0,0,1,.5-1.7,2.54,2.54,0,0,1,1.2-1.1,4.92,4.92,0,0,1,1.7-.6,11,11,0,0,1,1.8-.2h0a9.16,9.16,0,0,1-3.5-2.4,6.18,6.18,0,0,1-1.2-4.1,7.11,7.11,0,0,1,.7-3.2,6.42,6.42,0,0,1,1.8-2.5,7.48,7.48,0,0,1,2.9-1.6,12.09,12.09,0,0,1,3.8-.6,9.29,9.29,0,0,1,3.7.6,8.52,8.52,0,0,1,2.5,1.7,9,9,0,0,1,2-1.4,5.42,5.42,0,0,1,2.5-.6,4.1,4.1,0,0,1,1.1.1,4.51,4.51,0,0,1,1.1.3,2.41,2.41,0,0,1,.8.6,1.69,1.69,0,0,1,.3,1,2,2,0,0,1-.4,1.3,1.72,1.72,0,0,1-1.5.6,1.19,1.19,0,0,1-1.1-.4,2.51,2.51,0,0,1-.4-.7,4.88,4.88,0,0,0-.3-.7.89.89,0,0,0-.8-.4,2.3,2.3,0,0,0-1.4.4,1.6,1.6,0,0,0-1.3.9m-11.7,18.1a6.57,6.57,0,0,0-1.2,1.7,5.87,5.87,0,0,0-.4,2.3,5.55,5.55,0,0,0,.7,2.8,4.94,4.94,0,0,0,1.8,2,5.82,5.82,0,0,0,2.5,1.2,9.25,9.25,0,0,0,2.9.4,6.57,6.57,0,0,0,5.9-3.3,5.45,5.45,0,0,0,.5-2.2,3.1,3.1,0,0,0-1-2.4,5.85,5.85,0,0,0-2.7-1.4,17.63,17.63,0,0,0-4-.7,40.48,40.48,0,0,0-5-.4m4.1-7.9a3.36,3.36,0,0,0,3.2-1.5,8,8,0,0,0,1-4.3,11.4,11.4,0,0,0-.2-2.6,6.64,6.64,0,0,0-.6-2,3.74,3.74,0,0,0-1.2-1.3,3,3,0,0,0-1.8-.4,4,4,0,0,0-2.2.6,3.74,3.74,0,0,0-1.3,1.5,11.76,11.76,0,0,0-.7,2,16.35,16.35,0,0,0-.2,2.2,7.22,7.22,0,0,0,1,4.3,4.17,4.17,0,0,0,3,1.5"/><path class="cls-6" d="M884.7,198.4a5.11,5.11,0,0,0,.3,2.1,1,1,0,0,0,1.1.6,2.2,2.2,0,0,0,.8-.1,4.05,4.05,0,0,0,.9-.5.19.19,0,0,1,.3,0c.1.1.2.1.3.2s.1.2.2.4a.37.37,0,0,1-.1.3,4.93,4.93,0,0,1-4,2,3.14,3.14,0,0,1-2.1-.7,4,4,0,0,1-1.3-1.6c-.1-.1-.2-.2-.3-.1a10.14,10.14,0,0,1-2.6,1.6,8,8,0,0,1-3.7.6,4.56,4.56,0,0,1-5.1-5.1,5.37,5.37,0,0,1,2.9-4.8c1.9-1.1,4.8-1.7,8.5-1.7.1,0,.1-.1.1-.2v-2.1a13.55,13.55,0,0,0-.2-2,4.92,4.92,0,0,0-.6-1.7,2.54,2.54,0,0,0-1.2-1.1,3.92,3.92,0,0,0-1.8-.4,5.83,5.83,0,0,0-2.6.6,1.78,1.78,0,0,0-1,1.6,1.4,1.4,0,0,0,.3.9,1.61,1.61,0,0,1,.3.9,1.43,1.43,0,0,1-.6,1.2,2,2,0,0,1-1.5.6,2.24,2.24,0,0,1-1.7-.6,2.69,2.69,0,0,1-.5-1.5,4.2,4.2,0,0,1,.6-2.1,5.51,5.51,0,0,1,1.7-1.7,7.45,7.45,0,0,1,2.4-1.1,9.25,9.25,0,0,1,2.9-.4,9.08,9.08,0,0,1,5.5,1.6c1.3,1.1,2,2.8,2,5.3Zm-4.1-4.3v-.6c0-.1-.1-.1-.2-.1a10.85,10.85,0,0,0-5.3,1.5,3.81,3.81,0,0,0-1.1,5.2.1.1,0,0,0,.1.1,2.5,2.5,0,0,0,2.2.9,5.22,5.22,0,0,0,2.1-.4,5.64,5.64,0,0,0,2-1.1,1.08,1.08,0,0,0,.3-.7v-4.8Z"/><g class="cls-5"><path class="cls-9" d="M686.53,237.78a9,9,0,0,0,1.47.09h1.73a9.63,9.63,0,0,0,1.37-.08,19.5,19.5,0,0,0-.07,2v3.75a3.59,3.59,0,0,0,1.47,1.22c.69.34,1.62.45,4.07.45a63.1,63.1,0,0,0,6.95-.3,10.79,10.79,0,0,0-.61,2.46c-1.4.06-4.73.13-6.21.13-4,0-5.31-.36-6.77-1.89l-1.32,1.08c-.16.14-.64.52-1.36,1l-1-2.48.25-.11a11.64,11.64,0,0,0,2.31-1.55v-3.49h-1.07a7.47,7.47,0,0,0-1.2.09Zm1.83-6.52a21.71,21.71,0,0,1,3.24,3.27l-1.78,1.77a17.55,17.55,0,0,0-3.22-3.44Zm6.9,7c-.18,3.07-.7,4.71-2,6.51a12.3,12.3,0,0,0-1.86-1.74,6.2,6.2,0,0,0,1.23-2.52,23.36,23.36,0,0,0,.46-6.2,13.15,13.15,0,0,0-.09-2l.69,0c.5,0,2.57-.2,3.42-.33a13.48,13.48,0,0,0,3.85-1l1.73,2a31,31,0,0,1-7.33,1.33v1.69h5.75a12.56,12.56,0,0,0,2-.1v2.36a18.57,18.57,0,0,0-1.89-.09h-.83v4.44a12.38,12.38,0,0,0,.11,2h-2.58a13,13,0,0,0,.09-2v-4.44Z"/><path class="cls-9" d="M707.23,237.07a9,9,0,0,0-1.07.06v-.76a11.56,11.56,0,0,1-.93.76,7.83,7.83,0,0,0-1-2.18,8.47,8.47,0,0,0,3.22-3.69h2.38a7,7,0,0,0,2.57,2.79,9.16,9.16,0,0,0-1.17,2l-.18-.16v1.26a7.23,7.23,0,0,0-1.08-.06h-.43v1.08h.79a9.08,9.08,0,0,0,1.46-.07v2.13a9.22,9.22,0,0,0-1.46-.08h-.79v4.43c.88-.18,1.21-.25,2.25-.52v1.12a6.9,6.9,0,0,0,3.28-4.59h-1a16,16,0,0,0-1.89.09v-2.29a13.29,13.29,0,0,0,1.81.11h1.35c0-1,.07-1.26.1-2.22H714a11.68,11.68,0,0,1-.81,2.07,6.77,6.77,0,0,0-1.91-1.22,10.44,10.44,0,0,0,1.26-3.21,12.33,12.33,0,0,0,.25-1.8v-.27l2.09.38c-.07.38-.07.38-.2,1.24,0,.29-.07.44-.12.72h.93V233a11.37,11.37,0,0,0-.09-1.91h2.41a16.08,16.08,0,0,0-.1,3h1a14.36,14.36,0,0,0,2-.1v2.28c-.58,0-1.23-.09-1.93-.09h-1.08c0,.29,0,.29,0,.94,0,.31,0,.54-.07,1.28H719a14.16,14.16,0,0,0,2-.11v2.29a17.49,17.49,0,0,0-1.93-.09h-1.35a9.57,9.57,0,0,0,1.42,2.84,7.56,7.56,0,0,0,2.36,2,11.5,11.5,0,0,0-1.31,2.34,11.09,11.09,0,0,1-3.66-4.63,10.17,10.17,0,0,1-4.21,4.68,9.66,9.66,0,0,0-.94-1.62,43.1,43.1,0,0,1-5.53,1.28c-.21,0-.66.13-1,.22l-.36-2.43a21.3,21.3,0,0,0,2.93-.31v-4.81h-1a12.06,12.06,0,0,0-1.75.11v-2.19a12.35,12.35,0,0,0,1.8.1h.9v-1.08Zm-1.71,7.64a18.89,18.89,0,0,0-.81-3.55l1.6-.5a18.92,18.92,0,0,1,.86,3.43Zm4.55-9.45h.29a9.14,9.14,0,0,1-1.66-2.08,10,10,0,0,1-1.44,2.08Zm-.3,8.19a12,12,0,0,0,.73-2.87l1.57.53a17.84,17.84,0,0,1-.94,2.91Z"/></g><g class="cls-5"><path class="cls-9" d="M737,239.68a7.66,7.66,0,0,0,.49,1.93,7,7,0,0,0,1.85-1.67l1.46,1.58-1,.86a12.17,12.17,0,0,1-1.3,1,8.63,8.63,0,0,0,2.54,2.25,12.4,12.4,0,0,0-1.4,2.14,11.46,11.46,0,0,1-2.89-3.1l0,1.53a50.2,50.2,0,0,1-5.27,1.44l-.65.15-.31-1.39c-1.1.31-2.14.54-3.54.83l-.85.14c-.13,0-1.44.26-1.68.29l-.36-2.37A20.92,20.92,0,0,0,727,245v-4.85h-.88a12.62,12.62,0,0,0-1.78.11v-2.2a11.14,11.14,0,0,0,1.8.11H727v-1h-.3c-.4,0-.72,0-1.06.05v-.7c-.37.32-.47.4-.85.7a9.23,9.23,0,0,0-1-2.2,8.18,8.18,0,0,0,3.23-3.72h2.32a5.86,5.86,0,0,0,1.69,2.19,9.44,9.44,0,0,0,.88.69v-.54a17.25,17.25,0,0,0-.07-1.91,15.2,15.2,0,0,0,1.71.07h4.77a13.45,13.45,0,0,0,1.66-.07,17.29,17.29,0,0,0-.07,2v4.1c0,.6,0,1,0,1.26a4.88,4.88,0,0,0,.05.67c-.45,0-.72,0-1.24,0Zm-12,5a16.94,16.94,0,0,0-.77-3.51l1.6-.52a17,17,0,0,1,.81,3.45Zm4.86-9.36a10.94,10.94,0,0,1-1.64-2.11,10.45,10.45,0,0,1-1.45,2.11Zm-.79,9.31c.83-.16,1.12-.22,2.09-.47l0,1.22.73-.1V234.5a9.91,9.91,0,0,0-1.09,1.67l-.11-.09v1.1c-.34,0-.67-.05-1.08-.05h-.56v1h.86a10.21,10.21,0,0,0,1.44-.07v2.12a11.29,11.29,0,0,0-1.44-.07h-.86Zm.18-1.14a12.71,12.71,0,0,0,.79-2.84l1.44.5a16.83,16.83,0,0,1-.93,2.81Zm4.84-8.69h3.66v-1h-3.66Zm0,2.88h3.66V236.6h-3.66Zm0,2v5.14c1.17-.27,1.34-.33,2.34-.63a12.29,12.29,0,0,1-1.47-4.51Z"/></g><g class="cls-5"><path class="cls-9" d="M751.32,239.5a11.16,11.16,0,0,0-.92,1.64,13.52,13.52,0,0,1-1.51-2,11.37,11.37,0,0,1-1.46,2.23,8.15,8.15,0,0,0-1.11-1.42,25.84,25.84,0,0,1-.64,4.54,10.88,10.88,0,0,1-1.22,3.17,12.77,12.77,0,0,0-1.87-1.95c1.13-1.87,1.51-4.61,1.51-10.78v-.87a16.75,16.75,0,0,0-.11-1.78c.78.07,1.43.09,2.31.09h4.25V232a5.43,5.43,0,0,0-.09-1H753a3.62,3.62,0,0,0-.09,1v.41h4.3a20.48,20.48,0,0,0,2.23-.11v2.38a16.47,16.47,0,0,0-1.89-.09H746.44c0,2.38,0,3.33-.11,4.9a8.18,8.18,0,0,0,1.71-4.56l2.11.38c-.11.39-.11.39-.34,1.29a3.79,3.79,0,0,1-.15.49,6.59,6.59,0,0,0,1.66,1.95v-2.18a11.79,11.79,0,0,0-.09-1.88h2.41a15.74,15.74,0,0,0-.07,1.88v2.63a6.56,6.56,0,0,0,1.24-2.16,8.21,8.21,0,0,0,.6-2.38l2.18.38c-.29,1-.47,1.64-.53,1.83a6.86,6.86,0,0,0,2.44,2.27,7.88,7.88,0,0,0-1.16,2,9.51,9.51,0,0,1-2.09-2.16,10,10,0,0,1-1.44,2.22,9.09,9.09,0,0,0-1.24-1.64v1.85h3.33a12.51,12.51,0,0,0,1.71-.07v2.2a13.43,13.43,0,0,0-1.71-.07h-3.33v1.46h4.2a12.05,12.05,0,0,0,1.76-.09v2.28a20.48,20.48,0,0,0-2.23-.11H748a20.92,20.92,0,0,0-2.21.11V245.1a9.78,9.78,0,0,0,1.76.08h3.73v-1.46h-2.88a10,10,0,0,0-1.67.07v-2.2a11.36,11.36,0,0,0,1.67.07h2.88Z"/></g><g class="cls-5"><path class="cls-9" d="M768,233a11.79,11.79,0,0,0-.11-2h2.68a13.49,13.49,0,0,0-.1,1.91v1h4.75a13.62,13.62,0,0,0,1.76-.07,14.8,14.8,0,0,0-.07,1.66v5.71a12.88,12.88,0,0,0,.09,1.87h-2.48v-1h-4v3.42a15.09,15.09,0,0,0,.12,2.32h-2.72a16.26,16.26,0,0,0,.13-2.32v-3.42h-3.87v1h-2.49a14.14,14.14,0,0,0,.09-1.87v-5.73a15.75,15.75,0,0,0-.07-1.64,14.59,14.59,0,0,0,1.73.07H768Zm-3.87,3.16v3.66H768v-3.66Zm10.39,3.66v-3.66h-4v3.66Z"/></g><g class="cls-5"><path class="cls-9" d="M789.48,241.23a10.66,10.66,0,0,0,6.68,4.09,12.65,12.65,0,0,0-1.24,2.45,14.81,14.81,0,0,1-4.14-2,10.76,10.76,0,0,1-3.19-3.45,9.07,9.07,0,0,1-2.76,3.42,15.32,15.32,0,0,1-4.34,2.19,9.13,9.13,0,0,0-1.24-2.34c3.24-.79,5.22-2.14,6.29-4.32h-4.16a16.52,16.52,0,0,0-2.09.11V239a14.45,14.45,0,0,0,1.89.1v-4.21a12,12,0,0,0-.07-1.51c.55,0,1.06.07,1.89.07h3.42c0-.27,0-.49,0-.67a9.72,9.72,0,0,0-.13-1.72h2.58a12.78,12.78,0,0,0-.11,2.39h3.58a18.22,18.22,0,0,0,1.89-.07,11.64,11.64,0,0,0-.07,1.46v4.26a14.25,14.25,0,0,0,1.89-.1v2.39a17.58,17.58,0,0,0-2.13-.11Zm-3.33-2.18a28.52,28.52,0,0,0,.25-3.44h-2.9v3.44Zm5.71,0v-3.44h-3.08c-.06,1.61-.11,2.38-.24,3.44Z"/></g><g class="cls-5"><path class="cls-9" d="M798.14,237.7a7.35,7.35,0,0,0,1.42.09H801a9.31,9.31,0,0,0,1.37-.07,16.25,16.25,0,0,0-.08,2v3.94a2.61,2.61,0,0,0,1.3,1.14,18.28,18.28,0,0,0,4.79.45,55.68,55.68,0,0,0,6.72-.45,13.48,13.48,0,0,0-.58,2.52c-2.09.09-3.94.12-6.16.12-4.55,0-5.76-.3-7.18-1.83a15.53,15.53,0,0,1-2.27,1.91l-1.12-2.38a9.52,9.52,0,0,0,2.29-1.55V240h-.85a6.37,6.37,0,0,0-1.11.09Zm1.58-6.53a22.52,22.52,0,0,1,3.24,3.26l-1.78,1.8a17.71,17.71,0,0,0-3.19-3.42Zm6.72,3.69c-.58-.38-.87-.56-1.28-.78l1.22-.68H805a14,14,0,0,0-1.91.09v-2.18a18.74,18.74,0,0,0,2.27.11H811a12.29,12.29,0,0,0,2.16-.11l1.11,1.26a7.25,7.25,0,0,0-.88.7c-.65.56-1.46,1.17-2.07,1.59h1.14a15.78,15.78,0,0,0,1.78-.07,16.65,16.65,0,0,0-.07,2v5.81c0,1.59-.45,2-2.29,2-.18,0-.47,0-.86,0a5.88,5.88,0,0,0-.42-1.8,5.29,5.29,0,0,0,1,.11c.31,0,.34-.05.34-.45v-.54h-2.18v.63a14.66,14.66,0,0,0,.09,2H807.5a14.38,14.38,0,0,0,.11-2v-.63h-2v.76a9.57,9.57,0,0,0,.11,2h-2.4a16.75,16.75,0,0,0,.09-2v-5.75a15.46,15.46,0,0,0-.09-2.1c.56.05,1.1.07,2,.07Zm-.83,1.76v1h2v-1Zm0,3.6h2v-1h-2Zm1.67-6.82c.47.32.83.59,1.55,1.15a13.79,13.79,0,0,0,1.52-1.15Zm2.45,4.19h2.18v-1h-2.18Zm2.18,1.66h-2.18v1h2.18Z"/></g><g class="cls-5"><path class="cls-9" d="M820,231.55a24.67,24.67,0,0,0-.79,4.44,7.23,7.23,0,0,1,1.6-2.37,4.35,4.35,0,0,1,3-1.25,4.18,4.18,0,0,1,3.64,2.25,8.27,8.27,0,0,1,1,4.38,7.58,7.58,0,0,1-4.86,7.54,16.37,16.37,0,0,1-3.71,1,9.13,9.13,0,0,0-1.24-2.61c5-.39,7.13-2.21,7.13-6.21,0-2.41-.8-3.76-2.22-3.76a2.49,2.49,0,0,0-1.8.85,8.07,8.07,0,0,0-2.32,5.81v.27l-2.58,0a1.74,1.74,0,0,0,0-.29c0-.07,0-.07,0-1,0-.65,0-1.19,0-1.56a47.63,47.63,0,0,1,.25-4.81c.13-1.14.2-1.86.23-2.18a3.5,3.5,0,0,0,0-.63Z"/></g><g class="cls-5"><path class="cls-9" d="M835.77,237.2a25.18,25.18,0,0,0,6-2,6.17,6.17,0,0,0,1.58-1l1.69,2.42a5.52,5.52,0,0,0-.61.29,33,33,0,0,1-8.61,2.84v2.18c0,1.44,0,1.62.29,1.87s1.24.42,2.81.42c1,0,2.4-.08,3.46-.2a13.28,13.28,0,0,0,3-.56l.1,2.84c-.37,0-.66,0-1.81.15-1.61.16-3.73.27-5.12.27-2.39,0-3.62-.22-4.39-.78s-1-1.4-1-3.67v-7.89a15.48,15.48,0,0,0-.11-2.23h2.9a13.73,13.73,0,0,0-.11,2.25Zm8.38-5.6a10.1,10.1,0,0,1,1.51,2.41l-1.57.72a10.84,10.84,0,0,0-1.49-2.46Zm2.07-.94a11,11,0,0,1,1.53,2.34l-1.53.74a12.15,12.15,0,0,0-1.5-2.41Z"/></g><g class="cls-5"><path class="cls-9" d="M855.05,232.12a36.4,36.4,0,0,0-.2,4.09c-.13,3.74-.47,5.62-1.42,7.58a11.83,11.83,0,0,1-2.47,3.44,8.47,8.47,0,0,0-2.18-2.11,8.26,8.26,0,0,0,2.7-4.12,15.32,15.32,0,0,0,.65-4.14c0-.89.07-2.11.07-3.08a14.88,14.88,0,0,0-.07-1.82Zm4.93-.27a11.89,11.89,0,0,0-.14,2.18l-.09,9.58a7.21,7.21,0,0,0,2.46-2,8.82,8.82,0,0,0,1.6-3.18,9.87,9.87,0,0,0,2,2,11.06,11.06,0,0,1-3,4.38,10.84,10.84,0,0,1-3.8,2.1,4.26,4.26,0,0,0-.82.36l-1.34-1.42a6.7,6.7,0,0,0,.18-1.73l.07-10.12v-.5a12.12,12.12,0,0,0-.07-1.66Z"/></g><g class="cls-5"><path class="cls-9" d="M872.65,242.38a2.05,2.05,0,0,0,.67,1.3,3,3,0,0,0,2.12.76c1.59,0,2.6-.81,2.6-2.09s-.92-2-2.72-2a17.66,17.66,0,0,0-2.18.09v-2.65a13.77,13.77,0,0,0,1.71.11,3.76,3.76,0,0,0,2-.42,1.73,1.73,0,0,0,.83-1.55c0-1.17-.76-1.74-2.25-1.74a2.16,2.16,0,0,0-2.34,1.78l-3.21-.5a4.89,4.89,0,0,1,1.26-2.25,6,6,0,0,1,4.43-1.55,5.92,5.92,0,0,1,4.27,1.44,3.65,3.65,0,0,1,.22,4.79,3.85,3.85,0,0,1-2.18,1.19,4.08,4.08,0,0,1,2.54,1.24,3.57,3.57,0,0,1,.84,2.48,3.75,3.75,0,0,1-1.1,2.65,6.56,6.56,0,0,1-4.73,1.53,6.1,6.1,0,0,1-4.88-1.82,5.07,5.07,0,0,1-1-2.16Z"/></g><g class="cls-5"><path class="cls-9" d="M886.83,243.9a17.87,17.87,0,0,0,.14,2.7H883.7a17.48,17.48,0,0,0,.16-2.67v-9.56a16,16,0,0,0-.15-2.46c.72,0,1.21.05,2.45.05h5.24a20,20,0,0,0,2.6-.13v2.9a19.46,19.46,0,0,0-2.58-.12h-4.59V238h3.69a19.46,19.46,0,0,0,2.58-.13v2.83a19.56,19.56,0,0,0-2.58-.13h-3.69Z"/></g></g></g></svg>