<svg xmlns="http://www.w3.org/2000/svg" viewBox="0 0 74.82 37.89"><defs><style>.cls-1{fill:#fff;}.cls-2{fill:#231815;}.cls-3{fill:#ff005b;}</style></defs><title>step1_3</title><g id="レイヤー_2" data-name="レイヤー 2"><g id="レイヤー_1-2" data-name="レイヤー 1"><circle class="cls-1" cx="15.37" cy="12.55" r="12.55"/><path class="cls-2" d="M11.69,7a.55.55,0,0,0-.15-.21.54.54,0,0,0-.36-.12.42.42,0,0,0-.47.4c0,.1,0,.28.36.41l.34.13c.61.25.78.6.78,1a1,1,0,0,1-1.07,1.08,1,1,0,0,1-.79-.34,1.08,1.08,0,0,1-.28-.65l.51-.11A.7.7,0,0,0,10.7,9a.51.51,0,0,0,.43.2.53.53,0,0,0,.55-.56c0-.34-.26-.48-.48-.57L10.88,8a1,1,0,0,1-.68-.85.9.9,0,0,1,1-.88,1,1,0,0,1,.67.23,1.1,1.1,0,0,1,.25.33Z"/><path class="cls-2" d="M14.16,6.78V9.64h-.51V6.78h-.77V6.3h2v.48Z"/><path class="cls-2" d="M17.61,6.78H16.28v.85h1.29v.48H16.28V9.16h1.33v.48H15.77V6.3h1.84Z"/><path class="cls-2" d="M19.41,6.3a1.31,1.31,0,0,1,.73.18,1,1,0,0,1,.41.81.93.93,0,0,1-.32.73,1.19,1.19,0,0,1-.82.26h-.23V9.64h-.51V6.3Zm-.23,1.51h.23c.44,0,.65-.21.65-.52s-.07-.52-.65-.52h-.23Z"/><path class="cls-3" d="M9.52,15c0-2.52,1.37-3.83,2.84-3.83s2.83,1.31,2.83,3.84-1.37,3.83-2.83,3.83S9.52,17.5,9.52,15ZM11,15c0,1.91.78,2.6,1.41,2.6s1.4-.69,1.4-2.6-.79-2.6-1.4-2.6S11,13.06,11,15Z"/><path class="cls-3" d="M17.55,12.54H16.49V11.3H19v7.34H17.55Z"/><circle class="cls-1" cx="62.27" cy="12.55" r="12.55"/><path class="cls-2" d="M58.59,7a.55.55,0,0,0-.15-.21.54.54,0,0,0-.36-.12.42.42,0,0,0-.47.4c0,.1,0,.28.36.41l.34.13c.61.25.78.6.78,1A1,1,0,0,1,58,9.71a1,1,0,0,1-.79-.34A1.08,1.08,0,0,1,57,8.72l.51-.11a.7.7,0,0,0,.13.42.54.54,0,0,0,.44.2.53.53,0,0,0,.55-.56c0-.34-.26-.48-.48-.57L57.78,8a1,1,0,0,1-.68-.85.9.9,0,0,1,1-.88,1,1,0,0,1,.67.23A1.1,1.1,0,0,1,59,6.8Z"/><path class="cls-2" d="M61.06,6.78V9.64h-.52V6.78h-.76V6.3h2v.48Z"/><path class="cls-2" d="M64.51,6.78H63.18v.85h1.29v.48H63.18V9.16h1.33v.48H62.67V6.3h1.84Z"/><path class="cls-2" d="M66.3,6.3a1.33,1.33,0,0,1,.74.18,1,1,0,0,1,.41.81.93.93,0,0,1-.32.73,1.19,1.19,0,0,1-.82.26h-.23V9.64h-.51V6.3Zm-.22,1.51h.23c.44,0,.65-.21.65-.52s-.07-.52-.66-.52h-.22Z"/><path class="cls-3" d="M56.42,15c0-2.52,1.37-3.83,2.83-3.83s2.84,1.31,2.84,3.84-1.37,3.83-2.84,3.83S56.42,17.5,56.42,15Zm1.43,0c0,1.91.78,2.6,1.4,2.6s1.41-.69,1.41-2.6-.79-2.6-1.41-2.6S57.85,13.06,57.85,15Z"/><path class="cls-3" d="M64.29,16.19c.13-.16,1-1.14,1.26-1.53A2.3,2.3,0,0,0,66,13.48a1.07,1.07,0,0,0-1.09-1.11,1.17,1.17,0,0,0-1.17,1.22H62.25a2.44,2.44,0,0,1,2.57-2.45,2.37,2.37,0,0,1,2.59,2.33A3.85,3.85,0,0,1,66.08,16l-1.27,1.38h2.65v1.23H62.14Z"/><path class="cls-3" d="M34.79,10l3.86,2.85-3.86,2.86Z"/><path class="cls-3" d="M40.31,10l3.86,2.85-3.86,2.86Z"/><path class="cls-1" d="M3.83,35.77H5.48a6.19,6.19,0,0,0,1.13-.05v1.12c-.29,0-.62,0-1.11,0H1.1c-.49,0-.7,0-1.1,0V35.72a6.81,6.81,0,0,0,1.12.05H2.66v-3h-1c-.5,0-.74,0-1.09,0V31.69a6.82,6.82,0,0,0,1.11.06H4.9A6.52,6.52,0,0,0,6,31.69V32.8a7.91,7.91,0,0,0-1.11,0H3.83Z"/><path class="cls-1" d="M8,31.42a10.69,10.69,0,0,1,2,1.47l-.77,1a8,8,0,0,0-2-1.56Zm-.71,4.7a7.18,7.18,0,0,0,2.26-.55,4.7,4.7,0,0,0,2.23-1.86,6.68,6.68,0,0,0,.76-1.51,4.09,4.09,0,0,0,1,.88,6.55,6.55,0,0,1-3,3.32,9.64,9.64,0,0,1-2.21.79L8,37.26a2.38,2.38,0,0,0-.38.11Z"/><path class="cls-1" d="M15.4,37.56a7.45,7.45,0,0,0,0-1.07V32a6.3,6.3,0,0,0,0-1h1.24a6.3,6.3,0,0,0-.05,1v1.15a18.21,18.21,0,0,1,3.46,1.59l-.63,1.09a16.34,16.34,0,0,0-2.54-1.38l-.29-.13V36.5a9.35,9.35,0,0,0,.05,1.06Z"/><path class="cls-1" d="M23.12,31.12a8.16,8.16,0,0,0-.05,1v1.48c0,.47,0,.85,0,1H21.87a9.57,9.57,0,0,0,0-1.06V32.15a8.53,8.53,0,0,0,0-1Zm3.47,0a7.85,7.85,0,0,0,0,1v.81a8.48,8.48,0,0,1-.15,2.18A3,3,0,0,1,24.84,37a6.48,6.48,0,0,1-1.52.6,2.87,2.87,0,0,0-.66-1.08,5.11,5.11,0,0,0,1.48-.49,2,2,0,0,0,1.16-1.51,11,11,0,0,0,.09-1.68v-.72a6.52,6.52,0,0,0-.05-1Z"/><path class="cls-1" d="M27.91,33.63a10.45,10.45,0,0,0,1.39.06h3.84a9.09,9.09,0,0,0,1.39-.06v1.25c-.31,0-.81,0-1.4,0H29.3c-.66,0-1.09,0-1.39,0Z"/><path class="cls-1" d="M57.61,32.51a4.6,4.6,0,0,0,.29-.63H56.07c-.4,0-.71,0-1,0v-1a7.21,7.21,0,0,0,1,.05h5a7.61,7.61,0,0,0,1-.05v1c-.3,0-.6,0-1,0H59a.2.2,0,0,0,0,.06l-.27.57h2.16a6.9,6.9,0,0,0,.89,0,8.75,8.75,0,0,0,0,1v3.31c0,.41,0,.76,0,1.08h-1v-.33H56.32v.32h-1a8.07,8.07,0,0,0,0-1.07V33.45a9.71,9.71,0,0,0,0-1,7.08,7.08,0,0,0,.9,0Zm-.59.84h-.7v3.29H57Zm.9,0v.55h1.22v-.55Zm0,1.89h1.22V34.7H57.92Zm1.22.8H57.92v.6h1.22Zm.91.6h.73V33.35h-.73Z"/><path class="cls-1" d="M64.72,32.88a2.72,2.72,0,0,0-.58,0H62.59a5,5,0,0,0-.61,0V32a3.3,3.3,0,0,0,.61,0h1.52a4.5,4.5,0,0,0,.61,0v.26a3,3,0,0,0,.41-1.16l.85.19a4.52,4.52,0,0,1-.51,1.38l-.75-.28Zm-.16,4.34c0,.24,0,.37,0,.5h-.84v-.27h-.61v.36H62.2c0-.27,0-.52,0-.75v-1.2a5.17,5.17,0,0,0,0-.57l.52,0h1.39a2.45,2.45,0,0,0,.45,0c0,.14,0,.23,0,.52V37a2.58,2.58,0,0,0,1.15-.72,2.72,2.72,0,0,0,.59-2,2.68,2.68,0,0,0,0-.44h1c0,.13,0,.27,0,.42a3.37,3.37,0,0,0,.22,1.25,3.85,3.85,0,0,0,.6-1.1l.87.31A6.26,6.26,0,0,1,68.23,36a3.35,3.35,0,0,0-.75-.44,2.82,2.82,0,0,0,1.67,1.36,4,4,0,0,0-.5,1,3.82,3.82,0,0,1-1.84-1.77A2.61,2.61,0,0,1,66,37.21a3.24,3.24,0,0,1-1.1.68,3.3,3.3,0,0,0-.38-.86Zm-2.31-6.3a5.32,5.32,0,0,0,.65,0h1a5.14,5.14,0,0,0,.64,0v.8a5.6,5.6,0,0,0-.64,0h-1a5.43,5.43,0,0,0-.65,0Zm0,2.24a2.69,2.69,0,0,0,.46,0h1.37a1.72,1.72,0,0,0,.44,0V34a2.69,2.69,0,0,0-.44,0H62.72a2.83,2.83,0,0,0-.46,0Zm0,1.07a2.61,2.61,0,0,0,.46,0h1.37a2.29,2.29,0,0,0,.44,0V35a4.32,4.32,0,0,0-.46,0H62.71l-.45,0Zm.83,2.45h.64V36h-.64Zm4.2-5.89a2,2,0,0,0,0,.43,3.29,3.29,0,0,0,.15,1,3.75,3.75,0,0,0,.7-1.2l.87.33a6.15,6.15,0,0,1-.79,1.32,2.8,2.8,0,0,0-.77-.42,1.85,1.85,0,0,0,.44.63,2.84,2.84,0,0,0,1.23.69,4.33,4.33,0,0,0-.49.89,3.8,3.8,0,0,1-1.2-.82,2.5,2.5,0,0,1-.59-.84,2.9,2.9,0,0,1-1.64,1.62l.74.23a5.1,5.1,0,0,1-.52,1.4l-.8-.36a3,3,0,0,0,.48-1.22,3,3,0,0,0-.51-.81,2.32,2.32,0,0,0,1.53-1.2,3,3,0,0,0,.23-1.34,2.23,2.23,0,0,0,0-.33Z"/></g></g></svg>