<svg xmlns="http://www.w3.org/2000/svg" viewBox="0 0 577.56 134.45"><defs><style>.cls-1{fill:#909090;}.cls-2{fill:#040000;}.cls-3,.cls-4{fill:#00cdb9;}.cls-4{opacity:0.6;}.cls-5{fill:#fff;}</style></defs><title>アセット 10</title><g id="レイヤー_2" data-name="レイヤー 2"><g id="レイヤー_1-2" data-name="レイヤー 1"><path class="cls-1" d="M98.19,96.67h-5l-6.71,27.75h4.24l1.06-5.83h7.6l.89,5.83h4.42Zm-5.3,17.68,2.74-10.79,2.56,10.79Z"/><path class="cls-1" d="M118.33,103.25v1.84a5.84,5.84,0,0,0-4.13-1.84c-3.78,0-6.83,4-6.83,8.93s3,8.92,6.83,8.92a5.83,5.83,0,0,0,4.13-1.83h0s.7,5.14-3.33,5.14c-3.34,0-3.34-2.5-3.34-2.5h-3.53s.17,5.86,6.87,5.86,7-5.63,7-5.63v-18.9ZM115,117.64c-1.85,0-3.34-2.44-3.34-5.45s1.49-5.44,3.34-5.44,3.33,2.43,3.33,5.44S116.84,117.64,115,117.64Z"/><path class="cls-1" d="M140.83,115.52s1.11-11.46-7.14-11.9c-5.43-.3-7.68,3.94-7.68,11.9,0,7.59,5.07,9.15,7.19,9.15a7,7,0,0,0,7.1-6.32h-3.79a3.21,3.21,0,0,1-3.31,2.6c-2.79-.15-3.61-2.76-3.38-5.43Zm-7.37-8.26c3.5,0,3.57,4.61,3.57,4.61h-7.14S130,107.26,133.46,107.26Z"/><path class="cls-1" d="M143.9,103.6v20.74H148s-.45-12.4.78-14.77c1.46-2.82,4.43-2.82,5.18.43.51,2.21.22,14.34.22,14.34h4V110a12.12,12.12,0,0,0-1.62-4.6c-1.33-1.83-5.24-3.62-8.59,1.17v-3Z"/><path class="cls-1" d="M160.35,104.07V108h1.9v13.61s.05,2.77,3.93,2.77h2.73v-3.82h-1.65a1.09,1.09,0,0,1-1.08-1.26c0-1.49,0-11.24,0-11.24h2.73v-4h-2.73V97.85h-3.8v6.28Z"/><path class="cls-1" d="M192.67,107.09a4.13,4.13,0,0,0-3.66,1.48v-1.5l-3.15,0v19.82h2.76v-5.1a4.75,4.75,0,0,0,3.68,1.63c2.45,0,5.62-1.74,5.62-8.07C197.92,115.37,198.15,107.09,192.67,107.09Zm-.71,13c-1.68,0-3.05-2.23-3.05-5s1.37-5,3.05-5,3.06,2.23,3.06,5S193.65,120.11,192,120.11Z"/><path class="cls-1" d="M200.81,107.07v17.11h3.29V113.85a3.7,3.7,0,0,1,4.1-3.29v-3.29a4,4,0,0,0-4.1,1.88v-2.08Z"/><path class="cls-1" d="M216.05,107c-3.38,0-6.11,3.83-6.11,8.56s2.73,8.55,6.11,8.55,6.1-3.83,6.1-8.55S219.42,107,216.05,107Zm0,13.73c-1.56,0-2.82-2.32-2.82-5.17s1.26-5.18,2.82-5.18,2.81,2.32,2.81,5.18S217.6,120.7,216.05,120.7Z"/><path class="cls-1" d="M233.54,101.57v7.62a4.49,4.49,0,0,0-3.43-1.82c-3,0-5.5,3.73-5.5,8.32s2.46,8.33,5.5,8.33a4.49,4.49,0,0,0,3.43-1.82v1.88h3.25V101.57Zm-2.5,19.5c-1.49,0-2.7-2.36-2.7-5.26s1.21-5.26,2.7-5.26c1.13,0,2.1,1.35,2.5,3.27a9.73,9.73,0,0,1,.2,2,9.56,9.56,0,0,1-.2,2C233.14,119.71,232.17,121.07,231,121.07Z"/><path class="cls-1" d="M247.43,122.2V124h2.86V107.37h-3.17v10.31s.07,3.24-2.08,3.24-2.31-1.35-2.31-3.16V107.37h-3.15l.1,11.73s.11,4.55,3.9,5A3.78,3.78,0,0,0,247.43,122.2Z"/><path class="cls-1" d="M261.72,113.16h3.14s-.66-6.07-5.75-6.07-5.94,5.28-5.94,9.14,1.83,7.88,5.84,7.88,5.85-4.16,5.85-5.73h-3.2a2.59,2.59,0,0,1-2.65,2.55s-2.58.38-2.58-5.33S259,110,259,110,261.72,109.57,261.72,113.16Z"/><path class="cls-1" d="M273.53,120.93s-2.24,0-2.61-4.12l9.08.07c0-10.32-6.46-9.79-6.46-9.79-4.38,0-5.76,5.28-5.76,9.14s2.43,7.79,5.66,7.79a5.79,5.79,0,0,0,5.84-5.08h-3.19S276.11,120.93,273.53,120.93Zm.1-11s2.85-.13,2.85,3.92H271C271.45,109.92,273.63,110,273.63,110Z"/><path class="cls-1" d="M304.7,107.22l4.06,13.48s.81,2.56-1.22,2.56h-1.45v3.08h3.08s1.74.29,3.05-4l4.38-15.17h-3.54l-2.41,9.07-2.24-9.07Z"/><rect class="cls-2" x="339.8" y="99.41" width="6.53" height="6.53" transform="translate(173.08 -212.51) rotate(45)"/><rect class="cls-2" x="334.45" y="104.72" width="6.53" height="6.53" transform="translate(175.27 -207.17) rotate(45)"/><rect class="cls-3" x="339.8" y="110" width="6.53" height="6.53" transform="translate(180.57 -209.41) rotate(45)"/><rect class="cls-2" x="345.11" y="115.4" width="6.53" height="6.53" transform="translate(185.95 -211.58) rotate(45)"/><rect class="cls-2" x="350.48" y="110.03" width="6.53" height="6.53" transform="translate(183.72 -216.95) rotate(45)"/><rect class="cls-2" x="339.77" y="120.65" width="6.53" height="6.53" transform="translate(188.09 -206.27) rotate(45)"/><rect class="cls-2" x="334.49" y="115.37" width="6.53" height="6.53" transform="translate(182.82 -204.08) rotate(45)"/><rect class="cls-2" x="329.09" y="110.01" width="6.53" height="6.53" transform="translate(177.44 -201.84) rotate(45)"/><path class="cls-3" d="M371.35,113.49a10.56,10.56,0,0,0,.34,2.72,7,7,0,0,0,1,2.28,5.05,5.05,0,0,0,1.77,1.57,5.48,5.48,0,0,0,2.62.58,15.55,15.55,0,0,0,2.57-.21,4.1,4.1,0,0,0,2.11-1,.32.32,0,0,1,.34-.09.89.89,0,0,1,.33.18.75.75,0,0,1,.21.32.35.35,0,0,1-.06.34,6.07,6.07,0,0,1-2.88,2.22,11.59,11.59,0,0,1-3.89.58,10.33,10.33,0,0,1-3-.45,7.16,7.16,0,0,1-2.71-1.49,7.58,7.58,0,0,1-2-2.79,10.93,10.93,0,0,1-.75-4.32,9.7,9.7,0,0,1,.62-3.46,7.79,7.79,0,0,1,1.8-2.81,8.54,8.54,0,0,1,2.9-1.87,10.56,10.56,0,0,1,4-.69,8.79,8.79,0,0,1,2.12.26,6.55,6.55,0,0,1,1.83.77,4,4,0,0,1,1.29,1.25,3.06,3.06,0,0,1,.49,1.68,2.1,2.1,0,0,1-.45,1.28,1.67,1.67,0,0,1-1.42.6,1.93,1.93,0,0,1-1.29-.42,1.43,1.43,0,0,1-.51-1.19,1.27,1.27,0,0,1,.28-.86,1,1,0,0,0,.28-.64c0-.45-.3-.79-.9-1a5.28,5.28,0,0,0-2-.35,4.49,4.49,0,0,0-2.38.59,5,5,0,0,0-1.57,1.59,7.09,7.09,0,0,0-.88,2.25A12.85,12.85,0,0,0,371.35,113.49Z"/><path class="cls-3" d="M401,116.15q0,1.53.06,2.49a3.77,3.77,0,0,0,.34,1.49,1.41,1.41,0,0,0,.84.75,4.64,4.64,0,0,0,1.57.21.26.26,0,0,1,.24.17.81.81,0,0,1,.1.39,1,1,0,0,1-.08.37.26.26,0,0,1-.26.19l-.51,0-.41,0-.45,0-.61.08a8.21,8.21,0,0,0-.85.15l-1.1.22c-.37.08-.72.14-1,.19a4.91,4.91,0,0,1-.63.07c-.45,0-.68-.69-.68-2.09a.1.1,0,0,0-.07-.1.17.17,0,0,0-.15.06,8.41,8.41,0,0,1-2.79,1.67,8.57,8.57,0,0,1-2.71.46,8,8,0,0,1-2.85-.43,3.87,3.87,0,0,1-1.75-1.25,4.89,4.89,0,0,1-.9-2,12.79,12.79,0,0,1-.26-2.75v-4.23c0-1.07,0-1.91-.08-2.5a3.22,3.22,0,0,0-.34-1.35,1.25,1.25,0,0,0-.78-.6,9.19,9.19,0,0,0-1.42-.26.29.29,0,0,1-.28-.19,1.07,1.07,0,0,1-.12-.37.75.75,0,0,1,.08-.38.33.33,0,0,1,.32-.18l1-.12c.41,0,.85-.12,1.33-.22l1.47-.32c.52-.11,1-.23,1.45-.35s.58,0,.71.16a1.21,1.21,0,0,1,.18.55v8.9a22.68,22.68,0,0,0,.13,2.55,5.61,5.61,0,0,0,.47,1.72,2.11,2.11,0,0,0,.94,1,3.32,3.32,0,0,0,1.49.3,8.58,8.58,0,0,0,2.66-.45,5.86,5.86,0,0,0,2.1-1.09.7.7,0,0,0,.13-.41c0-.2,0-.35,0-.45v-5.91c0-1.07,0-1.91,0-2.5a3.56,3.56,0,0,0-.26-1.35,1.13,1.13,0,0,0-.7-.6,7.46,7.46,0,0,0-1.36-.26.4.4,0,0,1-.28-.21.76.76,0,0,1-.11-.37.62.62,0,0,1,.07-.38.33.33,0,0,1,.32-.16,14.87,14.87,0,0,0,2.47-.34c.75-.18,1.58-.4,2.51-.67.34-.1.58,0,.71.16a1.21,1.21,0,0,1,.18.55Z"/><path class="cls-3" d="M422.46,113.6a12,12,0,0,1-.63,4.05A8.09,8.09,0,0,1,420,120.6a7.79,7.79,0,0,1-2.82,1.82,10.43,10.43,0,0,1-3.67.61,8.82,8.82,0,0,1-3.25-.58,7,7,0,0,1-2.59-1.72,8.33,8.33,0,0,1-1.72-2.88,12,12,0,0,1-.63-4.1,9.38,9.38,0,0,1,.63-3.49,8,8,0,0,1,1.78-2.72,8.22,8.22,0,0,1,2.75-1.76,9.54,9.54,0,0,1,3.52-.63,10,10,0,0,1,3.38.56,7.31,7.31,0,0,1,4.44,4.26A9.72,9.72,0,0,1,422.46,113.6Zm-3.93.42a20.9,20.9,0,0,0-.18-2.77,8.43,8.43,0,0,0-.68-2.4,4.23,4.23,0,0,0-1.34-1.68,3.6,3.6,0,0,0-2.21-.64,4.18,4.18,0,0,0-2.43.64,4.37,4.37,0,0,0-1.48,1.7,8.1,8.1,0,0,0-.75,2.41,18.3,18.3,0,0,0-.21,2.81,19.83,19.83,0,0,0,.19,2.62,8.21,8.21,0,0,0,.71,2.43,5,5,0,0,0,1.44,1.8,3.73,3.73,0,0,0,2.34.71,3.91,3.91,0,0,0,2.36-.67,4.51,4.51,0,0,0,1.4-1.76,8.32,8.32,0,0,0,.68-2.45A22.93,22.93,0,0,0,418.53,114Z"/><path class="cls-2" d="M427.59,103.65c0-1.07,0-1.93-.08-2.56a3.58,3.58,0,0,0-.37-1.48,1.51,1.51,0,0,0-.92-.71,10.49,10.49,0,0,0-1.7-.3.3.3,0,0,1-.28-.19,1,1,0,0,1-.11-.37.65.65,0,0,1,.07-.38.33.33,0,0,1,.32-.18c.75,0,1.65-.13,2.71-.23a15.28,15.28,0,0,0,3-.56q.53-.15.69.06a1,1,0,0,1,.21.43v20.95c0,.63,0,1.15,0,1.57a2.37,2.37,0,0,0,.28,1,1.6,1.6,0,0,0,.79.64,5.71,5.71,0,0,0,1.51.33.5.5,0,0,1,.34.21.64.64,0,0,1,.11.39.59.59,0,0,1-.11.36.38.38,0,0,1-.34.17,19.57,19.57,0,0,1-2-.13,18.58,18.58,0,0,0-2.24-.14,20.35,20.35,0,0,0-2.36.14,22.85,22.85,0,0,1-2.36.13.34.34,0,0,1-.29-.17.6.6,0,0,1-.12-.36.65.65,0,0,1,.12-.39.48.48,0,0,1,.33-.21,6.5,6.5,0,0,0,1.63-.33,1.69,1.69,0,0,0,.84-.62,1.86,1.86,0,0,0,.3-1c0-.39,0-.87,0-1.44Z"/><path class="cls-2" d="M440,113.12c-.12,0-.19,0-.2.13a1.52,1.52,0,0,0,0,.32,10.85,10.85,0,0,0,.43,3.29,5.74,5.74,0,0,0,1.2,2.19,4.32,4.32,0,0,0,1.83,1.21,6.89,6.89,0,0,0,2.3.38,14.28,14.28,0,0,0,2.47-.21,4.3,4.3,0,0,0,2.06-.91.48.48,0,0,1,.39-.12.61.61,0,0,1,.34.19.73.73,0,0,1,.17.34.39.39,0,0,1-.08.33,6.5,6.5,0,0,1-2.69,2.18,10.27,10.27,0,0,1-3.71.59,10.11,10.11,0,0,1-3.87-.67,7.19,7.19,0,0,1-2.69-1.89,7.66,7.66,0,0,1-1.57-2.84,11.83,11.83,0,0,1-.51-3.54,9.89,9.89,0,0,1,.62-3.48,8.37,8.37,0,0,1,4.39-4.75,8.1,8.1,0,0,1,3.41-.71,7.33,7.33,0,0,1,2.86.54,6.28,6.28,0,0,1,2.19,1.5,6.68,6.68,0,0,1,1.4,2.28,7.93,7.93,0,0,1,.51,2.86c0,.53-.19.79-.56.79Zm6.85-1.31c.35,0,.55-.13.6-.38a4.52,4.52,0,0,0,.07-.89,4.84,4.84,0,0,0-.24-1.52,4,4,0,0,0-.69-1.29,3.53,3.53,0,0,0-1.09-.9,3.11,3.11,0,0,0-1.46-.33,3.81,3.81,0,0,0-3.74,2.65,8.8,8.8,0,0,0-.37,1.65,3.48,3.48,0,0,0-.06.73c0,.18.07.28.17.28Z"/><path class="cls-2" d="M467.59,108.14a5.71,5.71,0,0,1,.76,1.67,7.18,7.18,0,0,1,.28,1.77,6.48,6.48,0,0,1-.61,2.9,6.37,6.37,0,0,1-1.69,2.12,7.69,7.69,0,0,1-2.45,1.31,9.49,9.49,0,0,1-2.95.45l-1.16,0c-.48,0-.94.08-1.39.15a4,4,0,0,0-1.14.36.75.75,0,0,0-.47.69.65.65,0,0,0,.38.56,3.32,3.32,0,0,0,.91.36,8.59,8.59,0,0,0,1.09.19c.36,0,.65,0,.88,0,1.79.13,3.4.28,4.82.47a13.63,13.63,0,0,1,3.62.92,5.08,5.08,0,0,1,2.26,1.77,5.19,5.19,0,0,1,.79,3,7.13,7.13,0,0,1-.64,3,6.65,6.65,0,0,1-1.91,2.4,9.75,9.75,0,0,1-3.12,1.59,14.65,14.65,0,0,1-4.29.58,17.73,17.73,0,0,1-3.7-.36A9.13,9.13,0,0,1,455,133a5.26,5.26,0,0,1-1.87-1.91,5.54,5.54,0,0,1-.66-2.77,5.37,5.37,0,0,1,.26-1.7,5.1,5.1,0,0,1,.72-1.37,6.4,6.4,0,0,1,1-1.07,5.93,5.93,0,0,1,1.16-.76,5.71,5.71,0,0,1-1.58-.84,2.08,2.08,0,0,1-.71-1.74,2.53,2.53,0,0,1,.4-1.46,3.06,3.06,0,0,1,1-1,5.3,5.3,0,0,1,1.46-.54,9.88,9.88,0,0,1,1.59-.2,0,0,0,0,0,0,0s0,0,0,0a7.08,7.08,0,0,1-3-2.08,5.47,5.47,0,0,1-1.08-3.57,6.69,6.69,0,0,1,.56-2.79,6,6,0,0,1,1.59-2.13,7.15,7.15,0,0,1,2.48-1.36,10,10,0,0,1,3.22-.49,7.49,7.49,0,0,1,3.16.56,8.47,8.47,0,0,1,2.16,1.46,6.54,6.54,0,0,1,1.68-1.2,4.84,4.84,0,0,1,2.17-.48,6.36,6.36,0,0,1,.92.07,3.24,3.24,0,0,1,.93.28,2.06,2.06,0,0,1,.71.54,1.36,1.36,0,0,1,.28.9,2,2,0,0,1-.33,1.14,1.47,1.47,0,0,1-1.31.51,1.13,1.13,0,0,1-.94-.3,2.32,2.32,0,0,1-.34-.64,4.39,4.39,0,0,0-.26-.63c-.1-.2-.33-.3-.71-.3a2.66,2.66,0,0,0-1.2.3A2.2,2.2,0,0,0,467.59,108.14Zm-10.14,15.68a3.49,3.49,0,0,0-1,1.5,5.31,5.31,0,0,0-.38,1.94,5,5,0,0,0,.58,2.42,5.57,5.57,0,0,0,1.52,1.72,6.59,6.59,0,0,0,2.15,1,9.46,9.46,0,0,0,2.49.33,5.89,5.89,0,0,0,2.11-.37,6,6,0,0,0,1.74-1,5.09,5.09,0,0,0,1.2-1.5,4,4,0,0,0,.45-1.87,2.7,2.7,0,0,0-.84-2.06,5.94,5.94,0,0,0-2.31-1.23,17.62,17.62,0,0,0-3.44-.64C460.39,124,459,123.87,457.45,123.82ZM461,117a3.09,3.09,0,0,0,2.79-1.27,6.73,6.73,0,0,0,.84-3.7,19,19,0,0,0-.13-2.25A5.39,5.39,0,0,0,464,108a2.78,2.78,0,0,0-1-1.12,2.93,2.93,0,0,0-1.59-.39,3.31,3.31,0,0,0-1.93.5,3.72,3.72,0,0,0-1.14,1.29,5.77,5.77,0,0,0-.56,1.76,12.58,12.58,0,0,0-.15,1.91,6.74,6.74,0,0,0,.86,3.74A2.84,2.84,0,0,0,461,117Z"/><path class="cls-2" d="M487.57,118.62a4.86,4.86,0,0,0,.24,1.83,1,1,0,0,0,.95.53,2.12,2.12,0,0,0,.68-.1,4.58,4.58,0,0,0,.75-.39.21.21,0,0,1,.24,0,.63.63,0,0,1,.22.21.59.59,0,0,1,.13.29.27.27,0,0,1-.07.28,4.33,4.33,0,0,1-3.44,1.76,2.94,2.94,0,0,1-1.85-.58,3.62,3.62,0,0,1-1.15-1.36c0-.13-.12-.14-.22,0a8.5,8.5,0,0,1-2.26,1.42,8,8,0,0,1-3.24.56,4.49,4.49,0,0,1-3.29-1.14,4.3,4.3,0,0,1-1.16-3.23,4.53,4.53,0,0,1,2.5-4.14c1.67-1,4.11-1.44,7.3-1.44.05,0,.09-.06.11-.19a5,5,0,0,0,0-.86v-1a9.86,9.86,0,0,0-.15-1.76,4.55,4.55,0,0,0-.51-1.44,2.5,2.5,0,0,0-1-1,3.14,3.14,0,0,0-1.57-.35,4.15,4.15,0,0,0-2.24.54,1.6,1.6,0,0,0-.86,1.4,1.41,1.41,0,0,0,.26.81,1.46,1.46,0,0,1,.26.8,1.38,1.38,0,0,1-.52,1,1.84,1.84,0,0,1-1.28.49A1.72,1.72,0,0,1,475,111a2.09,2.09,0,0,1-.43-1.32,3.3,3.3,0,0,1,.53-1.78,4.75,4.75,0,0,1,1.42-1.44,7.88,7.88,0,0,1,2.09-1,9.06,9.06,0,0,1,2.51-.35,7.35,7.35,0,0,1,4.72,1.38c1.14.93,1.72,2.46,1.72,4.61Zm-3.52-3.71a1.64,1.64,0,0,0,0-.5c0-.06-.09-.09-.18-.09a9.38,9.38,0,0,0-4.55,1.29,3.07,3.07,0,0,0-1.48,2.63,3.14,3.14,0,0,0,.56,1.89,2.15,2.15,0,0,0,1.87.77,5.34,5.34,0,0,0,1.82-.34,5.22,5.22,0,0,0,1.7-1,.86.86,0,0,0,.3-.6Z"/><path class="cls-1" d="M297.62,107.45s-2,0-3,2.59v-8.57h-3.27V124h3.2v-1.79a4.09,4.09,0,0,0,3.66,1.79c2.48-.15,5.29-3,5.29-7.79S301.88,107.27,297.62,107.45Zm-.14,13.84c-1.51,0-2.74-2.45-2.74-5.48s1.23-5.49,2.74-5.49,2.74,2.46,2.74,5.49S299,121.29,297.48,121.29Z"/><path class="cls-1" d="M411.74,12.66a27.17,27.17,0,0,0-.14,3.25,13.16,13.16,0,0,1-1.2,5.89,9.61,9.61,0,0,1-2,2.63,4.28,4.28,0,0,0-1.23-1.17,7.09,7.09,0,0,0,2.36-3.35,20.25,20.25,0,0,0,.63-6.17,10.7,10.7,0,0,0-.05-1.17Zm3.78-.18a10.22,10.22,0,0,0-.09,1.77l-.08,8.13a6.1,6.1,0,0,0,2.43-1.68,7.18,7.18,0,0,0,1.57-2.79,5.14,5.14,0,0,0,1.15,1.18,9.21,9.21,0,0,1-2.25,3.29,9.24,9.24,0,0,1-3.14,1.78,3.64,3.64,0,0,0-.6.26l-.79-.87a5.37,5.37,0,0,0,.12-1.33l.07-8v-.35a8.18,8.18,0,0,0-.07-1.42Z"/><path class="cls-1" d="M424.41,17.43a17.73,17.73,0,0,0,2.26.1h7.92a15.92,15.92,0,0,0,2.19-.08v1.7a20.93,20.93,0,0,0-2.2-.08h-7.9a20.05,20.05,0,0,0-2.27.08Z"/><path class="cls-1" d="M445.33,13.71a6.17,6.17,0,0,0-.37-1.48l1.63-.26a10.66,10.66,0,0,0,.19,1.48l.23,1.26,2.89-.46a13.31,13.31,0,0,0,1.66-.36l.26,1.52a11,11,0,0,0-1.66.21l-2.88.45.48,2.62,3.33-.53a10.9,10.9,0,0,0,1.67-.38l.29,1.51a13.67,13.67,0,0,0-1.67.22L448,20l.51,2.71a11.12,11.12,0,0,0,.41,1.76l-1.68.29A12.16,12.16,0,0,0,447,23l-.49-2.76-3.58.57a13,13,0,0,0-1.62.34l-.25-1.52a11,11,0,0,0,1.68-.16l3.52-.57-.47-2.63-2.67.41a16.35,16.35,0,0,0-1.73.36l-.24-1.54a14.24,14.24,0,0,0,1.74-.16l2.65-.43Z"/><path class="cls-1" d="M457.41,17.43a17.53,17.53,0,0,0,2.26.1h7.92a16,16,0,0,0,2.19-.08v1.7a20.93,20.93,0,0,0-2.2-.08h-7.9a20.05,20.05,0,0,0-2.27.08Z"/><path class="cls-1" d="M483,24.52a28.54,28.54,0,0,0-4.57-4.44,16.74,16.74,0,0,1-5.59,4.29,4.31,4.31,0,0,0-1-1.36,12.16,12.16,0,0,0,2.95-1.62,15.09,15.09,0,0,0,5.05-6.23.77.77,0,0,1,.09-.22l.06-.13h-.46l-4.25.08a14.15,14.15,0,0,0-1.87.11l0-1.59a10.88,10.88,0,0,0,1.5.09h.4l4.88-.08a2.84,2.84,0,0,0,1.16-.14l.82.86a2.18,2.18,0,0,0-.44.75,17.76,17.76,0,0,1-2.35,4,34.64,34.64,0,0,1,4.88,4.23Zm-.46-12.58a7.23,7.23,0,0,1,1.36,1.93l-.94.53a9,9,0,0,0-1.36-2Zm1.49-.76A8.59,8.59,0,0,1,485.36,13l-.93.52a9.63,9.63,0,0,0-1.33-1.9Z"/><polygon class="cls-4" points="529 6.39 512.93 6.99 528.4 22.46 529 6.39"/><path class="cls-3" d="M393.73,74.2,376.8,45.94h-3.61V74.2h-7.38V10.73h12c6.66,0,10.26.85,13.51,3,4.5,3.1,6.66,7.89,6.66,14.55,0,9.77-4.59,15.59-13.51,17.18L402.56,74.2ZM378.6,18.06h-5.41V38.62h5.41c8.55,0,11.71-2.82,11.71-10.33S387.06,18.06,378.6,18.06Z"/><path class="cls-3" d="M422,75.45c-10.06,0-17.15-7.25-17.15-17.46s7.25-17.15,17.46-17.15c9.67,0,16.84,7.33,16.84,17.3S432,75.45,422,75.45Zm-.16-28.84c-6.16,0-10.76,5-10.76,11.53,0,6.71,4.6,11.62,10.92,11.62s10.91-4.91,10.91-11.69S428.29,46.61,421.82,46.61Z"/><path class="cls-4" d="M450.54,75.45c-10.06,0-17.16-7.25-17.16-17.46s7.25-17.15,17.47-17.15c9.66,0,16.84,7.33,16.84,17.3S460.51,75.45,450.54,75.45Zm-.16-28.84c-6.16,0-10.76,5-10.76,11.53,0,6.71,4.6,11.62,10.92,11.62s10.91-4.91,10.91-11.69S456.85,46.61,450.38,46.61Z"/><path class="cls-3" d="M492.7,74.2,481.08,58l-1.4,1.4V74.2h-6V32.58h6V51.21l36.54-36.46h8.26L485.29,53.86,500.11,74.2Z"/><path class="cls-4" d="M510.19,35a4.17,4.17,0,1,1,0-8.34,4.17,4.17,0,0,1,0,8.34Z"/><rect class="cls-3" x="507.15" y="42.01" width="6" height="32.2"/><path class="cls-3" d="M526,58.57c.31,7.08,3.31,10.63,9.25,10.63,4.23,0,7.08-2.24,8.7-6.63l5.47,1.54c-2,6.63-7.24,10.48-14.25,10.48-9.17,0-15-6.7-15-17.25,0-10.33,5.85-17,15-17,8.94,0,14.33,6.24,14.33,16.18v2.08Zm9-12.94a8.23,8.23,0,0,0-8.31,6.16l-.39,1.69h17C542.69,48.63,539.45,45.63,535,45.63Z"/><polygon class="cls-3" points="524.6 10.79 504.76 11.53 523.86 30.63 524.6 10.79"/><polygon class="cls-3" points="0 16.02 0 76.71 6.89 76.71 6.89 46.36 26.47 46.36 26.47 40.77 6.67 40.55 6.67 22.48 27.33 22.48 27.33 16.02 0 16.02"/><path class="cls-3" d="M89.89,38c-10.63,0-19.25,8.92-19.25,19.92s8.62,19.92,19.25,19.92,19.25-8.92,19.25-19.92S100.52,38,89.89,38Zm0,33.83a13.92,13.92,0,1,1,13.44-13.91A13.68,13.68,0,0,1,89.89,71.78Z"/><path class="cls-3" d="M131,44h0c5.68,0,10.46,4.28,11.94,10.09v7.63c-1.48,5.81-6.26,10.07-11.94,10.09h0c5.7,0,10.5-4.27,12-10.09a15.1,15.1,0,0,0,0-7.63C141.46,48.23,136.66,44,131,44Z"/><path class="cls-3" d="M142.87,11V44.2a17,17,0,0,0-13-6.25C120,38,112,46.87,112,57.87s8,19.92,17.87,19.92a17,17,0,0,0,13-6.25v5.37h6.26V11Zm.08,50.7c-1.49,5.82-6.29,10.09-12,10.09h-.07c-6.89,0-12.48-6.23-12.48-13.91S124,44,130.89,44H131c5.7,0,10.5,4.27,12,10.1a15.1,15.1,0,0,1,0,7.63Z"/><path class="cls-3" d="M48.35,38C37.72,38,29.1,46.87,29.1,57.87s8.62,19.92,19.25,19.92S67.6,68.87,67.6,57.87,59,38,48.35,38Zm0,33.83A13.92,13.92,0,1,1,61.79,57.87,13.68,13.68,0,0,1,48.35,71.78Z"/><path class="cls-3" d="M164.73,77.84c-5.84-.08-11.1-3.43-12.57-9.87l5-2.1a7.42,7.42,0,0,0,2.71,4,7,7,0,0,0,5.13,2c4.21-.15,6.27-3.2,6.4-5.63.15-3-1.45-4.18-4.38-5.92l-.09-.05L164,58.89c-1-.45-1.79-.77-3.08-1.29A12.2,12.2,0,0,1,155.85,54a8.35,8.35,0,0,1-1.73-5.64,9.76,9.76,0,0,1,3.32-7.52,11.52,11.52,0,0,1,8.14-2.89c4.26.06,7.53,3.11,9.77,7.08l-5.11,2.45c-1.37-2.14-3.2-3.73-5.25-3.76a4.42,4.42,0,0,0-3.19,1.08,3.48,3.48,0,0,0-1.25,2.91c0,2.92,3,4.62,5.83,5.59,5.48,1.89,8.31,4.09,9.52,6a9.86,9.86,0,0,1,1.92,6.21,11.62,11.62,0,0,1-3.83,9A13.55,13.55,0,0,1,164.73,77.84Z"/><polygon class="cls-1" points="192.56 16.13 192.56 76.55 215.85 76.55 215.85 70.57 199.32 70.57 199.32 16.13 192.56 16.13"/><path class="cls-1" d="M245.81,39V44.2a17,17,0,0,0-13-6.25C223,38,215,46.87,215,57.87s8,19.92,17.86,19.92a17,17,0,0,0,13-6.25v5.37h6.25V39ZM233.9,71.78c-6.89,0-12.47-6.23-12.47-13.91S227,44,233.9,44c5.7,0,10.5,4.27,12,10.1a15.4,15.4,0,0,1,0,7.63C244.4,67.51,239.6,71.78,233.9,71.78Z"/><path class="cls-1" d="M257.07,10.56V76.48h6.26V71.11a17,17,0,0,0,13,6.26c9.86,0,17.86-8.92,17.86-19.93s-8-19.92-17.86-19.92a17,17,0,0,0-13,6.26V10.56Zm6.18,50.7a15.1,15.1,0,0,1,0-7.63c1.49-5.83,6.29-10.09,12-10.09,6.89,0,12.47,6.22,12.47,13.9s-5.58,13.91-12.47,13.91C269.54,71.35,264.74,67.08,263.25,61.26Z"/><path class="cls-1" d="M318.38,38.59c-9.3,0-16.87,7.84-16.87,17.48s7.57,17.48,16.87,17.48,16.87-7.84,16.87-17.48S327.68,38.59,318.38,38.59Z"/><path class="cls-1" d="M321.56,33.77h.91l1.61-29s.73-4.53-2.76-4.73L317.9,0s-3.29-.62-3,4.65.29,29,.29,29h.61C305,35,296.6,44.51,296.6,56.07c0,12.45,9.75,22.54,21.78,22.54s21.78-10.09,21.78-22.54C340.16,44.74,332.08,35.36,321.56,33.77ZM319.64,3.46a2,2,0,1,1-2,2A2,2,0,0,1,319.64,3.46Zm-1.26,71.13c-9.88,0-17.92-8.31-17.92-18.52s8-18.53,17.92-18.53,17.92,8.31,17.92,18.53S328.26,74.59,318.38,74.59Z"/><polygon class="cls-3" points="339.23 9.3 340.85 28.13 355.31 15.96 343.13 30.42 361.97 32.03 343.13 33.65 355.31 48.11 340.85 35.93 339.23 54.77 337.62 35.93 323.16 48.11 335.33 33.65 316.5 32.03 335.33 30.42 323.16 15.96 337.62 28.13 339.23 9.3"/><path class="cls-5" d="M339.06,54.78l-1.59-18.5-14.2,12L323,48l12-14.21-18.5-1.58v-.35L335,30.27l-12-14.2.25-.25,14.2,12,1.59-18.5h.35L341,27.78l14.2-12,.25.25-12,14.2L362,31.86v.35l-18.5,1.58,12,14.21-.25.24-14.2-12-1.58,18.5Zm-1.3-19.2,1.47,17.15,1.47-17.15,13.16,11.09L342.78,33.5,359.92,32l-17.14-1.47L353.86,17.4,340.7,28.48l-1.47-17.14-1.47,17.14L324.6,17.4l11.08,13.16L318.54,32l17.14,1.47L324.6,46.67Z"/><path class="cls-1" d="M57.81,16.37a4.31,4.31,0,0,0-.39,1.12,14,14,0,0,1-4,7,15.45,15.45,0,0,1-5.1,3.16,4.71,4.71,0,0,0-1.15-1.59,11.81,11.81,0,0,0,3.55-1.67,11.42,11.42,0,0,0,4.94-7.22H48a14.72,14.72,0,0,0-2.13.09V15.51a13.67,13.67,0,0,0,2.16.11h7.35a3.93,3.93,0,0,0,1.44-.15Z"/><path class="cls-1" d="M62.15,20a18.71,18.71,0,0,0,2.47.11h8.67a16.68,16.68,0,0,0,2.39-.09v1.86a22.09,22.09,0,0,0-2.41-.08H64.64a21.51,21.51,0,0,0-2.49.08Z"/><path class="cls-1" d="M90.11,27.8a31.39,31.39,0,0,0-5-4.86A18.48,18.48,0,0,1,79,27.64a4.84,4.84,0,0,0-1.09-1.5,13.37,13.37,0,0,0,3.22-1.77,16.49,16.49,0,0,0,5.53-6.81,1.82,1.82,0,0,1,.09-.24.69.69,0,0,0,.07-.15,4,4,0,0,1-.5,0l-4.64.08a13.46,13.46,0,0,0-2.06.13l0-1.75a11.31,11.31,0,0,0,1.65.1h.43L87,15.67a3,3,0,0,0,1.27-.16l.9.94a2.57,2.57,0,0,0-.48.82,19.06,19.06,0,0,1-2.57,4.42,38.5,38.5,0,0,1,5.34,4.63ZM89.6,14a8.09,8.09,0,0,1,1.49,2.12l-1,.57a9.5,9.5,0,0,0-1.49-2.16Zm1.63-.83a9.14,9.14,0,0,1,1.47,2l-1,.58a10.46,10.46,0,0,0-1.46-2.08Z"/><path class="cls-1" d="M96.46,18.57a16.86,16.86,0,0,0,2.21.11h7.66a4.88,4.88,0,0,0,1.49-.13l.78.9a5.89,5.89,0,0,0-.43,1,11.17,11.17,0,0,1-3.8,5.38,14.49,14.49,0,0,1-4.05,2,4.62,4.62,0,0,0-1-1.56,9.9,9.9,0,0,0,4.54-2.19,8.64,8.64,0,0,0,2.63-4H98.64a17.37,17.37,0,0,0-2.18.08Zm1.36-3.8a10.52,10.52,0,0,0,2,.11h5.08a12.14,12.14,0,0,0,2-.11v1.68a18.11,18.11,0,0,0-2-.08H99.81c-.85,0-1.2,0-2,.08Z"/><path class="cls-1" d="M117,20c0,.16,0,.16-.28,1a16.75,16.75,0,0,1-1.18,3.2,12.06,12.06,0,0,1-1.46,2.39,5.36,5.36,0,0,0-1.54-.9,10.87,10.87,0,0,0,2.29-4.1,7.84,7.84,0,0,0,.5-2.05Zm1.87-4.15a8.69,8.69,0,0,0-.09-1.65h1.84a11.1,11.1,0,0,0-.08,1.68v.93h3.7a13.7,13.7,0,0,0,2.08-.11v1.7a15.05,15.05,0,0,0-2-.1h-3.73V26a11.84,11.84,0,0,0,.09,1.94h-1.85A12.27,12.27,0,0,0,118.9,26V18.31h-3.65a17.77,17.77,0,0,0-2,.08V16.71a14,14,0,0,0,2,.11h3.62Zm5.1,3.75a10.8,10.8,0,0,0,.57,1.79,14.07,14.07,0,0,0,2.36,4.3,7.06,7.06,0,0,0-1.51,1,20.93,20.93,0,0,1-2.74-5.92,4.69,4.69,0,0,0-.27-.74Zm.11-5.74A8.93,8.93,0,0,1,125.39,16l-1.06.45a9.33,9.33,0,0,0-1.26-2.17Zm1.7-.59a9.2,9.2,0,0,1,1.28,2.07l-1,.45a11,11,0,0,0-1.24-2.1Z"/><path class="cls-3" d="M564.49,75.19c-5.85-.09-11.11-3.17-12.59-9.09l5-1.93a7,7,0,0,0,2.72,3.71,7.41,7.41,0,0,0,5.12,1.85c4.22-.13,6.27-2.94,6.4-5.17.15-2.74-1.45-3.84-4.38-5.44l-.1,0c-1.12-.52-2.08-1-2.89-1.3s-1.79-.71-3.08-1.19a12.29,12.29,0,0,1-5.09-3.35,7.27,7.27,0,0,1-1.74-5.18,8.67,8.67,0,0,1,3.31-6.92,12.2,12.2,0,0,1,8.14-2.65c4.26.06,7.54,2.87,9.77,6.53L570,47.25c-1.37-2-3.2-3.43-5.26-3.46a4.63,4.63,0,0,0-3.18,1,3.09,3.09,0,0,0-1.25,2.67c0,2.69,3,4.25,5.84,5.15,5.48,1.74,8.31,3.77,9.52,5.55a8.6,8.6,0,0,1,1.93,5.71,10.24,10.24,0,0,1-3.82,8.23A14.23,14.23,0,0,1,564.49,75.19Z"/></g></g></svg>