<svg xmlns="http://www.w3.org/2000/svg" viewBox="0 0 434.48 77.13"><defs><style>.cls-1{fill:#909090;}.cls-2,.cls-3{fill:#00cdb9;}.cls-2{opacity:0.6;}.cls-4{fill:#040000;}.cls-5{fill:#fff;}</style></defs><title>アセット 11</title><g id="レイヤー_2" data-name="レイヤー 2"><g id="レイヤー_1-2" data-name="レイヤー 1"><path class="cls-1" d="M261.12,6.55A30.69,30.69,0,0,0,261,10c-.11,2.94-.44,4.59-1.25,6.16a10.13,10.13,0,0,1-2.13,2.75,4.28,4.28,0,0,0-1.29-1.22,7.39,7.39,0,0,0,2.47-3.51,21.19,21.19,0,0,0,.65-6.45c0-.64,0-.85,0-1.22Zm4-.18a9.82,9.82,0,0,0-.1,1.85l-.09,8.5A6.27,6.27,0,0,0,267.43,15a7.27,7.27,0,0,0,1.64-2.91,5.38,5.38,0,0,0,1.21,1.22,9.58,9.58,0,0,1-2.36,3.45,9.54,9.54,0,0,1-3.27,1.85,5.12,5.12,0,0,0-.63.28l-.83-.91a5.35,5.35,0,0,0,.12-1.39l.08-8.35V7.84a7.82,7.82,0,0,0-.08-1.49Z"/><path class="cls-1" d="M274.37,11.54a17,17,0,0,0,2.36.11H285a16.86,16.86,0,0,0,2.29-.09v1.77c-.68-.06-1.17-.07-2.3-.07h-8.26a22.69,22.69,0,0,0-2.37.07Z"/><path class="cls-1" d="M296.24,7.65a6.88,6.88,0,0,0-.39-1.54l1.7-.28a11.73,11.73,0,0,0,.2,1.55L298,8.69l3-.47a14.34,14.34,0,0,0,1.73-.38L303,9.43a13.59,13.59,0,0,0-1.73.21l-3,.48.51,2.74,3.48-.55a12.15,12.15,0,0,0,1.74-.4l.31,1.58a10.47,10.47,0,0,0-1.75.23l-3.52.55.54,2.83a10.52,10.52,0,0,0,.42,1.84l-1.76.31a12.07,12.07,0,0,0-.24-1.86l-.52-2.88-3.74.6a14.2,14.2,0,0,0-1.7.35l-.26-1.59a11,11,0,0,0,1.76-.17l3.68-.59-.49-2.75-2.79.43a17.14,17.14,0,0,0-1.81.37l-.26-1.61a12.34,12.34,0,0,0,1.83-.17l2.77-.44Z"/><path class="cls-1" d="M308.87,11.54a16.84,16.84,0,0,0,2.36.11h8.28a16.59,16.59,0,0,0,2.28-.09v1.77c-.67-.06-1.16-.07-2.29-.07h-8.26a22.69,22.69,0,0,0-2.37.07Z"/><path class="cls-1" d="M335.6,19a29.92,29.92,0,0,0-4.78-4.65A17.36,17.36,0,0,1,325,18.8a4.41,4.41,0,0,0-1-1.42,12.75,12.75,0,0,0,3.08-1.7,15.69,15.69,0,0,0,5.28-6.51,1,1,0,0,1,.1-.23,1,1,0,0,0,.06-.14,3.77,3.77,0,0,1-.48,0l-4.44.07a13.45,13.45,0,0,0-2,.13l0-1.67a12,12,0,0,0,1.57.09h.42l5.1-.08a2.85,2.85,0,0,0,1.21-.15l.85.9a2.76,2.76,0,0,0-.46.78,18,18,0,0,1-2.45,4.23,35.91,35.91,0,0,1,5.1,4.43ZM335.11,5.8a7.53,7.53,0,0,1,1.43,2l-1,.55a9.53,9.53,0,0,0-1.43-2.06Zm1.56-.8a9.32,9.32,0,0,1,1.41,2l-1,.55a9.86,9.86,0,0,0-1.4-2Z"/><polygon class="cls-2" points="383.71 0 366.91 0.63 383.08 16.8 383.71 0"/><path class="cls-3" d="M242.29,70.9l-17.7-29.55h-3.77V70.9H213.1V4.54h12.53c7,0,10.73.89,14.12,3.14,4.71,3.24,7,8.25,7,15.22,0,10.21-4.81,16.29-14.13,18l18.93,30ZM226.47,12.2h-5.65V33.69h5.65c8.95,0,12.24-2.94,12.24-10.79S235.32,12.2,226.47,12.2Z"/><path class="cls-3" d="M271.83,72.2c-10.52,0-17.94-7.58-17.94-18.26,0-10.51,7.58-17.93,18.26-17.93,10.11,0,17.61,7.66,17.61,18.1S282.26,72.2,271.83,72.2ZM271.66,42c-6.44,0-11.24,5.22-11.24,12.07s4.8,12.14,11.41,12.14S283.24,61.11,283.24,54,278.43,42,271.66,42Z"/><path class="cls-2" d="M301.68,72.2c-10.51,0-17.93-7.58-17.93-18.26C283.75,43.43,291.33,36,302,36c10.1,0,17.6,7.66,17.6,18.1S312.11,72.2,301.68,72.2ZM301.52,42c-6.44,0-11.25,5.22-11.25,12.07s4.81,12.14,11.41,12.14S313.09,61.11,313.09,54,308.28,42,301.52,42Z"/><path class="cls-3" d="M345.76,70.9l-12.14-17-1.47,1.47V70.9h-6.28V27.38h6.28V46.85l38.2-38.11H379L338,49.62,353.5,70.9Z"/><path class="cls-2" d="M364,29.9a4.36,4.36,0,1,1,0-8.72,4.36,4.36,0,0,1,0,8.72Z"/><rect class="cls-3" x="360.86" y="37.23" width="6.28" height="33.66"/><path class="cls-3" d="M380.54,54.55c.33,7.41,3.47,11.11,9.67,11.11,4.43,0,7.41-2.33,9.1-6.92L405,60.35c-2.1,6.92-7.57,10.95-14.9,10.95-9.59,0-15.71-7-15.71-18,0-10.79,6.12-17.8,15.71-17.8,9.34,0,15,6.53,15,16.91v2.18ZM390,41c-4.11,0-7.82,2.5-8.7,6.44l-.4,1.77h17.79C398,44.16,394.64,41,390,41Z"/><polygon class="cls-3" points="379.11 4.6 358.37 5.38 378.33 25.34 379.11 4.6"/><path class="cls-3" d="M420.81,71.92c-6.11-.08-11.61-3.31-13.16-9.49l5.21-2a7.21,7.21,0,0,0,2.84,3.87,7.75,7.75,0,0,0,5.36,1.94c4.4-.14,6.55-3.07,6.68-5.41.16-2.86-1.51-4-4.58-5.69l-.1,0c-1.18-.54-2.17-1-3-1.35s-1.87-.75-3.22-1.25a12.87,12.87,0,0,1-5.33-3.5,7.63,7.63,0,0,1-1.81-5.42,9.06,9.06,0,0,1,3.46-7.23,12.68,12.68,0,0,1,8.51-2.77c4.45.07,7.88,3,10.22,6.82l-5.34,2.35c-1.44-2.06-3.35-3.59-5.5-3.62a4.83,4.83,0,0,0-3.32,1,3.19,3.19,0,0,0-1.31,2.79c0,2.81,3.16,4.44,6.11,5.38,5.73,1.82,8.68,3.94,9.95,5.8a9.06,9.06,0,0,1,2,6,10.71,10.71,0,0,1-4,8.6A14.79,14.79,0,0,1,420.81,71.92Z"/><polygon class="cls-3" points="1.76 13.25 1.76 47.7 5.67 47.7 5.67 30.48 16.79 30.48 16.79 27.3 5.55 27.18 5.55 16.91 17.28 16.91 17.28 13.25 1.76 13.25"/><path class="cls-3" d="M52.8,25.7a11.32,11.32,0,0,0,0,22.62A11.12,11.12,0,0,0,63.73,37,11.12,11.12,0,0,0,52.8,25.7Zm0,19.21A7.9,7.9,0,1,1,60.43,37,7.77,7.77,0,0,1,52.8,44.91Z"/><path class="cls-3" d="M76.12,29.11h0a7.25,7.25,0,0,1,6.79,5.73v4.34a7.28,7.28,0,0,1-6.79,5.73h0a7.26,7.26,0,0,0,6.81-5.73,8.55,8.55,0,0,0,0-4.34A7.26,7.26,0,0,0,76.12,29.11Z"/><path class="cls-3" d="M82.89,10.39V29.25a9.64,9.64,0,0,0-7.38-3.55c-5.6,0-10.14,5.06-10.14,11.31s4.54,11.31,10.14,11.31a9.68,9.68,0,0,0,7.38-3.55v3h3.55V10.39Zm0,28.79a7.26,7.26,0,0,1-6.81,5.73h0C72.17,44.91,69,41.37,69,37s3.17-7.9,7.08-7.9h0a7.26,7.26,0,0,1,6.81,5.73,8.55,8.55,0,0,1,0,4.34Z"/><path class="cls-3" d="M29.22,25.7A11.12,11.12,0,0,0,18.29,37,11.12,11.12,0,0,0,29.22,48.32,11.12,11.12,0,0,0,40.14,37,11.12,11.12,0,0,0,29.22,25.7Zm0,19.21A7.9,7.9,0,1,1,36.85,37,7.77,7.77,0,0,1,29.22,44.91Z"/><path class="cls-3" d="M95.3,48.35a7.1,7.1,0,0,1-7.14-5.61L91,41.55a4.18,4.18,0,0,0,1.54,2.28A4,4,0,0,0,95.44,45a3.55,3.55,0,0,0,3.63-3.2c.09-1.69-.82-2.37-2.48-3.36l-.06,0-1.64-.8c-.53-.26-1-.44-1.74-.73a7.06,7.06,0,0,1-2.9-2.07,4.73,4.73,0,0,1-1-3.2,5.57,5.57,0,0,1,1.89-4.28,6.6,6.6,0,0,1,4.62-1.64c2.42,0,4.28,1.77,5.54,4l-2.9,1.39a3.92,3.92,0,0,0-3-2.14,2.47,2.47,0,0,0-1.8.62,2,2,0,0,0-.72,1.64c0,1.67,1.72,2.63,3.32,3.18,3.11,1.07,4.71,2.32,5.4,3.42a5.65,5.65,0,0,1,1.09,3.53,6.58,6.58,0,0,1-2.18,5.09A7.69,7.69,0,0,1,95.3,48.35Z"/><polygon class="cls-1" points="111.1 13.3 111.1 47.62 124.32 47.62 124.32 44.22 114.94 44.22 114.94 13.3 111.1 13.3"/><path class="cls-1" d="M141.33,26.27v3A9.64,9.64,0,0,0,134,25.7c-5.6,0-10.15,5.06-10.15,11.31S128.36,48.32,134,48.32a9.67,9.67,0,0,0,7.37-3.55v3h3.55V26.27Zm-6.76,18.64c-3.91,0-7.08-3.54-7.08-7.9s3.17-7.9,7.08-7.9a7.26,7.26,0,0,1,6.81,5.73,8.86,8.86,0,0,1,0,4.34A7.26,7.26,0,0,1,134.57,44.91Z"/><path class="cls-1" d="M147.73,10.15V47.57h3.55v-3a9.67,9.67,0,0,0,7.37,3.55c5.61,0,10.15-5.07,10.15-11.31s-4.54-11.32-10.15-11.32A9.67,9.67,0,0,0,151.28,29V10.15Zm3.51,28.78a8.51,8.51,0,0,1,0-4.33,7.23,7.23,0,0,1,6.8-5.73c3.91,0,7.08,3.53,7.08,7.9S162,44.66,158,44.66A7.23,7.23,0,0,1,151.24,38.93Z"/><path class="cls-1" d="M182.54,26.06A9.93,9.93,0,1,0,192.12,36,9.76,9.76,0,0,0,182.54,26.06Z"/><path class="cls-1" d="M184.34,23.32h.52l.91-16.46s.42-2.57-1.56-2.68l-2,0s-1.87-.35-1.68,2.64.16,16.47.16,16.47h.35A12.64,12.64,0,0,0,170.17,36a12.37,12.37,0,1,0,24.73,0A12.67,12.67,0,0,0,184.34,23.32Zm-1.09-17.2a1.11,1.11,0,1,1-1.11,1.11A1.11,1.11,0,0,1,183.25,6.12Zm-.71,40.38A10.52,10.52,0,1,1,192.71,36,10.37,10.37,0,0,1,182.54,46.5Z"/><path class="cls-1" d="M5.82,58.91H3.35L0,72.75H2.12l.52-2.91h3.8l.44,2.91h2.2ZM3.17,67.73l1.37-5.38,1.28,5.38Z"/><path class="cls-1" d="M15.86,62.2v.91a2.92,2.92,0,0,0-2.06-.91c-1.88,0-3.41,2-3.41,4.45s1.53,4.45,3.41,4.45a2.93,2.93,0,0,0,2.06-.92h0s.35,2.56-1.66,2.56c-1.67,0-1.67-1.25-1.67-1.25H10.77a3.12,3.12,0,0,0,3.43,2.93,3.17,3.17,0,0,0,3.51-2.81V62.2ZM14.2,69.37c-.92,0-1.67-1.22-1.67-2.72s.75-2.71,1.67-2.71,1.66,1.21,1.66,2.71S15.11,69.37,14.2,69.37Z"/><path class="cls-1" d="M27.08,68.31s.55-5.71-3.56-5.93c-2.71-.15-3.83,2-3.83,5.93,0,3.79,2.53,4.57,3.58,4.57a3.53,3.53,0,0,0,3.55-3.16h-1.9A1.6,1.6,0,0,1,23.27,71c-1.39-.07-1.8-1.37-1.68-2.71ZM23.4,64.2c1.75,0,1.78,2.3,1.78,2.3H21.62S21.66,64.2,23.4,64.2Z"/><path class="cls-1" d="M28.61,62.37V72.71h2.06s-.23-6.18.39-7.36c.72-1.41,2.21-1.41,2.58.21a69.24,69.24,0,0,1,.11,7.15h2V65.58a6.13,6.13,0,0,0-.81-2.3c-.66-.91-2.61-1.81-4.28.59v-1.5Z"/><path class="cls-1" d="M36.81,62.61v1.93h.95v6.79s0,1.38,2,1.38h1.36v-1.9h-.83a.54.54,0,0,1-.53-.63c0-.74,0-5.61,0-5.61h1.36v-2H39.72V59.5h-1.9v3.13Z"/><path class="cls-1" d="M51.42,63.37a2.06,2.06,0,0,0-1.83.75v-.76H48v10h1.39V70.77a2.39,2.39,0,0,0,1.85.82c1.23,0,2.82-.87,2.82-4C54.06,67.54,54.18,63.37,51.42,63.37Zm-.35,6.55c-.85,0-1.54-1.12-1.54-2.51s.69-2.51,1.54-2.51,1.54,1.13,1.54,2.51S51.92,69.92,51.07,69.92Z"/><path class="cls-1" d="M55.52,63.36V72h1.65v-5.2a1.86,1.86,0,0,1,2.06-1.65V63.46a2,2,0,0,0-2.06.95v-1Z"/><path class="cls-1" d="M63.18,63.31c-1.7,0-3.07,1.93-3.07,4.3s1.37,4.31,3.07,4.31,3.07-1.93,3.07-4.31S64.88,63.31,63.18,63.31Zm0,6.91c-.78,0-1.42-1.17-1.42-2.61S62.4,65,63.18,65s1.42,1.17,1.42,2.6S64,70.22,63.18,70.22Z"/><path class="cls-1" d="M72,60.6v3.83a2.28,2.28,0,0,0-1.73-.92c-1.53,0-2.76,1.88-2.76,4.19s1.23,4.19,2.76,4.19A2.28,2.28,0,0,0,72,71v1h1.63V60.6Zm-1.26,9.8c-.75,0-1.36-1.18-1.36-2.64s.61-2.65,1.36-2.65c.57,0,1.06.68,1.26,1.65a5.21,5.21,0,0,1,.1,1,5.11,5.11,0,0,1-.1,1C71.78,69.72,71.29,70.4,70.72,70.4Z"/><path class="cls-1" d="M79,71v.92H80.4V63.51H78.81V68.7s0,1.63-1,1.63-1.16-.68-1.16-1.59V63.51H75l0,5.9s.06,2.29,2,2.51A1.89,1.89,0,0,0,79,71Z"/><path class="cls-1" d="M86.15,66.42h1.58s-.33-3.05-2.89-3.05-3,2.66-3,4.6.92,4,2.94,4a3.17,3.17,0,0,0,2.94-2.88H86.12a1.3,1.3,0,0,1-1.33,1.28s-1.3.19-1.3-2.68,1.3-2.84,1.3-2.84S86.15,64.62,86.15,66.42Z"/><path class="cls-1" d="M92.09,70.33s-1.13,0-1.31-2.07l4.56,0c0-5.18-3.25-4.92-3.25-4.92-2.2,0-2.89,2.66-2.89,4.6s1.22,3.92,2.84,3.92A2.92,2.92,0,0,0,95,69.33H93.37S93.39,70.33,92.09,70.33Zm0-5.52s1.43-.06,1.43,2H90.8C91,64.79,92.14,64.81,92.14,64.81Z"/><path class="cls-1" d="M107.76,63.44l2,6.78s.41,1.29-.61,1.29h-.73v1.54H110s.88.15,1.54-2l2.2-7.63H112L110.75,68l-1.12-4.56Z"/><rect class="cls-4" x="125.42" y="59.51" width="3.29" height="3.29" transform="translate(80.46 -71.93) rotate(45)"/><rect class="cls-4" x="122.72" y="62.18" width="3.29" height="3.29" transform="translate(81.56 -69.25) rotate(45)"/><rect class="cls-3" x="125.42" y="64.83" width="3.29" height="3.29" transform="translate(84.22 -70.37) rotate(45)"/><rect class="cls-4" x="128.09" y="67.55" width="3.29" height="3.29" transform="translate(86.92 -71.47) rotate(45)"/><rect class="cls-4" x="130.79" y="64.85" width="3.29" height="3.29" transform="translate(85.8 -74.17) rotate(45)"/><rect class="cls-4" x="125.4" y="70.19" width="3.29" height="3.29" transform="translate(88 -68.79) rotate(45)"/><rect class="cls-4" x="122.74" y="67.54" width="3.29" height="3.29" transform="translate(85.35 -67.69) rotate(45)"/><rect class="cls-4" x="120.03" y="64.84" width="3.29" height="3.29" transform="translate(82.65 -66.56) rotate(45)"/><path class="cls-3" d="M141.28,66.59a5.59,5.59,0,0,0,.17,1.37A3.5,3.5,0,0,0,142,69.1a2.42,2.42,0,0,0,.89.79,2.74,2.74,0,0,0,1.32.3,7.83,7.83,0,0,0,1.29-.11,2.11,2.11,0,0,0,1.06-.48.16.16,0,0,1,.17,0,.4.4,0,0,1,.17.09.27.27,0,0,1,.1.16.2.2,0,0,1,0,.17,3.2,3.2,0,0,1-1.45,1.12,6,6,0,0,1-2,.29,5.32,5.32,0,0,1-1.51-.23,3.72,3.72,0,0,1-1.36-.75,3.76,3.76,0,0,1-1-1.4,5.52,5.52,0,0,1-.37-2.17,4.76,4.76,0,0,1,.31-1.74,4,4,0,0,1,.9-1.42,4.53,4.53,0,0,1,1.46-.94,5.36,5.36,0,0,1,2-.34,4.24,4.24,0,0,1,1.07.13,3,3,0,0,1,.92.38,2.17,2.17,0,0,1,.65.63,1.56,1.56,0,0,1,.24.85,1,1,0,0,1-.22.64.84.84,0,0,1-.72.3,1,1,0,0,1-.65-.21.7.7,0,0,1-.25-.6.62.62,0,0,1,.14-.43.53.53,0,0,0,.14-.32c0-.23-.15-.4-.45-.52a2.66,2.66,0,0,0-1-.18,2.19,2.19,0,0,0-1.19.3,2.42,2.42,0,0,0-.79.8,3.52,3.52,0,0,0-.45,1.13A6.88,6.88,0,0,0,141.28,66.59Z"/><path class="cls-3" d="M156.2,67.93c0,.51,0,.93,0,1.25a2,2,0,0,0,.17.75.82.82,0,0,0,.42.38,2.41,2.41,0,0,0,.79.1.15.15,0,0,1,.13.09.38.38,0,0,1,0,.19.58.58,0,0,1,0,.19.15.15,0,0,1-.14.1h-.46l-.22,0-.31,0-.43.08-.55.11-.53.09-.32,0c-.22,0-.34-.35-.34-1a0,0,0,0,0,0,0s0,0-.08,0a4,4,0,0,1-1.4.83,4.26,4.26,0,0,1-1.37.24,3.94,3.94,0,0,1-1.43-.22,1.92,1.92,0,0,1-.88-.63,2.52,2.52,0,0,1-.45-1,6.51,6.51,0,0,1-.13-1.39V66c0-.54,0-1,0-1.26a1.72,1.72,0,0,0-.17-.68.65.65,0,0,0-.39-.3,4.3,4.3,0,0,0-.72-.13.15.15,0,0,1-.14-.1.64.64,0,0,1-.06-.18.41.41,0,0,1,0-.19.15.15,0,0,1,.16-.1l.5,0,.67-.12.74-.16a6.31,6.31,0,0,0,.72-.18q.27-.08.36.09a.65.65,0,0,1,.1.27V67.4a11.57,11.57,0,0,0,.06,1.28,2.73,2.73,0,0,0,.24.87,1,1,0,0,0,.47.48,1.54,1.54,0,0,0,.75.16,4.39,4.39,0,0,0,1.34-.23,2.86,2.86,0,0,0,1.05-.55.29.29,0,0,0,.07-.2V66c0-.54,0-1,0-1.26a1.78,1.78,0,0,0-.14-.68.56.56,0,0,0-.34-.3,3.54,3.54,0,0,0-.69-.13.22.22,0,0,1-.14-.11.55.55,0,0,1-.06-.18.38.38,0,0,1,0-.19.16.16,0,0,1,.16-.09,6.51,6.51,0,0,0,1.24-.17c.38-.08.8-.2,1.26-.34q.27-.08.36.09a.6.6,0,0,1,.09.27Z"/><path class="cls-3" d="M167,66.65a6,6,0,0,1-.32,2,4.08,4.08,0,0,1-.92,1.49,3.9,3.9,0,0,1-1.42.91,5.11,5.11,0,0,1-1.84.31,4.59,4.59,0,0,1-1.64-.29,3.59,3.59,0,0,1-1.3-.87,4,4,0,0,1-.86-1.45,5.83,5.83,0,0,1-.32-2.06,4.59,4.59,0,0,1,.32-1.76A3.88,3.88,0,0,1,161,62.72a4.64,4.64,0,0,1,1.77-.32,5,5,0,0,1,1.71.28,3.72,3.72,0,0,1,2.23,2.14A4.94,4.94,0,0,1,167,66.65Zm-2,.2a10.58,10.58,0,0,0-.09-1.39,4.57,4.57,0,0,0-.34-1.2,2.21,2.21,0,0,0-.68-.85,1.85,1.85,0,0,0-1.11-.32,2,2,0,0,0-2,1.18,4,4,0,0,0-.37,1.21,9.16,9.16,0,0,0-.11,1.41,8.56,8.56,0,0,0,.1,1.32,4.13,4.13,0,0,0,.35,1.22,2.52,2.52,0,0,0,.73.91,1.92,1.92,0,0,0,1.18.35,1.9,1.9,0,0,0,1.18-.34,2.29,2.29,0,0,0,.71-.88,4.11,4.11,0,0,0,.34-1.23A12.81,12.81,0,0,0,165,66.85Z"/><path class="cls-4" d="M169.56,61.64q0-.81,0-1.29a1.89,1.89,0,0,0-.19-.74.79.79,0,0,0-.46-.36,5.51,5.51,0,0,0-.86-.15.15.15,0,0,1-.14-.09.7.7,0,0,1-.06-.19.43.43,0,0,1,0-.19.17.17,0,0,1,.16-.09c.38,0,.83-.06,1.36-.12a6.88,6.88,0,0,0,1.5-.28c.18,0,.29,0,.35,0a.49.49,0,0,1,.1.22V68.92c0,.32,0,.58,0,.79a1.15,1.15,0,0,0,.14.53.77.77,0,0,0,.4.32,2.78,2.78,0,0,0,.76.17.27.27,0,0,1,.17.1.35.35,0,0,1,.05.2.29.29,0,0,1-.05.18.2.2,0,0,1-.17.09,10.09,10.09,0,0,1-1-.07,10.55,10.55,0,0,0-1.13-.07,11.5,11.5,0,0,0-1.18.07,11.7,11.7,0,0,1-1.19.07.18.18,0,0,1-.15-.09.37.37,0,0,1,0-.18.46.46,0,0,1,0-.2.27.27,0,0,1,.17-.1,3.22,3.22,0,0,0,.82-.17.78.78,0,0,0,.42-.31.92.92,0,0,0,.15-.49c0-.19,0-.43,0-.72Z"/><path class="cls-4" d="M175.79,66.4c-.06,0-.1,0-.1.07a.76.76,0,0,0,0,.16,5.27,5.27,0,0,0,.22,1.65,2.87,2.87,0,0,0,.6,1.11,2.22,2.22,0,0,0,.92.61,3.62,3.62,0,0,0,1.16.19,7.24,7.24,0,0,0,1.24-.11,2.16,2.16,0,0,0,1-.46.26.26,0,0,1,.2-.06.32.32,0,0,1,.17.1.38.38,0,0,1,.08.17.2.2,0,0,1,0,.17,3.29,3.29,0,0,1-1.36,1.09,5.84,5.84,0,0,1-3.81,0,3.48,3.48,0,0,1-1.35-1,3.85,3.85,0,0,1-.79-1.43,5.93,5.93,0,0,1-.26-1.78,5.11,5.11,0,0,1,.31-1.75,4.24,4.24,0,0,1,2.21-2.39,4,4,0,0,1,1.72-.35,3.77,3.77,0,0,1,1.44.27,3.16,3.16,0,0,1,1.1.75,3.41,3.41,0,0,1,.7,1.15,4,4,0,0,1,.26,1.44c0,.26-.1.39-.29.39Zm3.44-.66c.18,0,.28-.06.31-.18a3,3,0,0,0,0-.46,2.46,2.46,0,0,0-.12-.76,2.14,2.14,0,0,0-.35-.65,2,2,0,0,0-.54-.45,1.61,1.61,0,0,0-.74-.17,1.93,1.93,0,0,0-.87.18,2,2,0,0,0-.62.47,2.13,2.13,0,0,0-.39.69,4.37,4.37,0,0,0-.19.83,1.61,1.61,0,0,0,0,.36c0,.1,0,.14.08.14Z"/><path class="cls-4" d="M189.68,63.9a2.9,2.9,0,0,1,.38.84,3.37,3.37,0,0,1,.14.89,3.23,3.23,0,0,1-.31,1.46,3,3,0,0,1-.84,1.06,3.84,3.84,0,0,1-1.23.66,4.84,4.84,0,0,1-1.49.23c-.15,0-.35,0-.58,0a5.19,5.19,0,0,0-.7.07,1.91,1.91,0,0,0-.57.18.38.38,0,0,0-.24.35.32.32,0,0,0,.19.28,1.38,1.38,0,0,0,.46.18,5.07,5.07,0,0,0,.54.09l.45,0c.9.06,1.71.14,2.42.24a6.89,6.89,0,0,1,1.82.46,2.52,2.52,0,0,1,1.14.89,2.61,2.61,0,0,1,.39,1.5,3.42,3.42,0,0,1-.32,1.5,3.19,3.19,0,0,1-1,1.21,4.83,4.83,0,0,1-1.57.8,7.36,7.36,0,0,1-2.15.29,8.89,8.89,0,0,1-1.86-.18,4.49,4.49,0,0,1-1.46-.55,2.78,2.78,0,0,1-.94-1,2.81,2.81,0,0,1-.33-1.4,2.5,2.5,0,0,1,.49-1.54,3.68,3.68,0,0,1,.5-.54,3.47,3.47,0,0,1,.59-.38,2.64,2.64,0,0,1-.79-.43,1,1,0,0,1-.36-.87,1.3,1.3,0,0,1,.2-.73,1.53,1.53,0,0,1,.52-.49,2.52,2.52,0,0,1,.74-.28,5.47,5.47,0,0,1,.8-.1,0,0,0,0,0,0,0l0,0a3.67,3.67,0,0,1-1.51-1,2.8,2.8,0,0,1-.54-1.8,3.37,3.37,0,0,1,.28-1.4,2.93,2.93,0,0,1,.8-1.07,3.52,3.52,0,0,1,1.25-.69,5.2,5.2,0,0,1,1.62-.24,3.75,3.75,0,0,1,1.59.28,4.56,4.56,0,0,1,1.08.73,3.1,3.1,0,0,1,.85-.6,2.43,2.43,0,0,1,1.09-.25,4.09,4.09,0,0,1,.46,0,1.72,1.72,0,0,1,.47.14,1.09,1.09,0,0,1,.36.28.69.69,0,0,1,.14.45,1,1,0,0,1-.17.57.73.73,0,0,1-.66.26.57.57,0,0,1-.47-.15,1.41,1.41,0,0,1-.17-.32,2.37,2.37,0,0,0-.13-.32q-.08-.15-.36-.15a1.33,1.33,0,0,0-.6.15A1.09,1.09,0,0,0,189.68,63.9Zm-5.1,7.88a1.88,1.88,0,0,0-.51.76,2.8,2.8,0,0,0-.19,1,2.49,2.49,0,0,0,.29,1.21,2.91,2.91,0,0,0,.77.87,3.17,3.17,0,0,0,1.08.51,4.39,4.39,0,0,0,1.25.17,2.85,2.85,0,0,0,1.06-.19,2.92,2.92,0,0,0,.88-.5,2.59,2.59,0,0,0,.6-.76,2,2,0,0,0,.23-.94,1.36,1.36,0,0,0-.43-1,2.84,2.84,0,0,0-1.16-.62,8.36,8.36,0,0,0-1.73-.32C186.06,71.85,185.34,71.81,184.58,71.78Zm1.81-3.44a1.56,1.56,0,0,0,1.4-.64,3.39,3.39,0,0,0,.42-1.86,7.78,7.78,0,0,0-.07-1.13,2.52,2.52,0,0,0-.25-.88,1.44,1.44,0,0,0-.5-.56,1.48,1.48,0,0,0-.8-.2,1.68,1.68,0,0,0-1,.26,1.79,1.79,0,0,0-.57.65,2.67,2.67,0,0,0-.28.88,6.43,6.43,0,0,0-.08,1,3.41,3.41,0,0,0,.43,1.88A1.43,1.43,0,0,0,186.39,68.34Z"/><path class="cls-4" d="M199.73,69.17a2.43,2.43,0,0,0,.12.92.47.47,0,0,0,.48.26,1.09,1.09,0,0,0,.34,0,2.42,2.42,0,0,0,.37-.2.15.15,0,0,1,.13,0,.52.52,0,0,1,.11.1.47.47,0,0,1,.06.15.16.16,0,0,1,0,.15,2.19,2.19,0,0,1-1.73.88,1.55,1.55,0,0,1-.94-.29,2.07,2.07,0,0,1-.57-.69c0-.06-.06-.07-.11,0a4.42,4.42,0,0,1-1.14.72,4.08,4.08,0,0,1-1.63.28,2.25,2.25,0,0,1-1.65-.57,2.2,2.2,0,0,1-.59-1.63,2.27,2.27,0,0,1,1.26-2.08,7.53,7.53,0,0,1,3.67-.73s.05,0,.06-.09a3.28,3.28,0,0,0,0-.43v-.51a4.88,4.88,0,0,0-.08-.88,2.25,2.25,0,0,0-.25-.73,1.31,1.31,0,0,0-.5-.49,1.59,1.59,0,0,0-.79-.18,2,2,0,0,0-1.13.28.79.79,0,0,0-.43.7.73.73,0,0,0,.13.41.68.68,0,0,1,.13.4.71.71,0,0,1-.26.51.93.93,0,0,1-.64.24.89.89,0,0,1-.73-.27,1.05,1.05,0,0,1-.21-.67,1.62,1.62,0,0,1,.26-.89,2.38,2.38,0,0,1,.72-.73,3.9,3.9,0,0,1,1-.48,4.73,4.73,0,0,1,1.26-.17,3.71,3.71,0,0,1,2.37.69,2.81,2.81,0,0,1,.87,2.32ZM198,67.31a1.11,1.11,0,0,0,0-.26s-.05,0-.1,0a4.73,4.73,0,0,0-2.28.64,1.61,1.61,0,0,0-.46,2.28,1.08,1.08,0,0,0,.94.39,2.8,2.8,0,0,0,.91-.17,2.91,2.91,0,0,0,.86-.49.43.43,0,0,0,.15-.3Z"/><path class="cls-1" d="M104.2,63.55a1.75,1.75,0,0,0-1.5,1.31V60.55h-1.64V71.89h1.61V71a2.07,2.07,0,0,0,1.83.9c1.25-.08,2.66-1.49,2.66-3.92S106.35,63.46,104.2,63.55Zm-.07,7c-.76,0-1.38-1.23-1.38-2.75s.62-2.76,1.38-2.76,1.38,1.23,1.38,2.76S104.9,70.51,104.13,70.51Z"/><path class="cls-1" d="M34.48,13.68a1.87,1.87,0,0,0-.19.56A7.73,7.73,0,0,1,32,18.18a8.11,8.11,0,0,1-2.85,1.71,1.75,1.75,0,0,0-.44-.64,6.64,6.64,0,0,0,2.05-1A6.72,6.72,0,0,0,33.63,14H29a7.19,7.19,0,0,0-1,0v-.73a6,6,0,0,0,1,.06h4.47a1.3,1.3,0,0,0,.58-.07Z"/><path class="cls-1" d="M37,15.87a7.3,7.3,0,0,0,1.13.05H43.4a8.33,8.33,0,0,0,1.09,0v.73a10,10,0,0,0-1.1,0H38.12a10,10,0,0,0-1.13,0Z"/><path class="cls-1" d="M53.33,19.87a18.14,18.14,0,0,0-2.9-2.8,11.06,11.06,0,0,1-3.52,2.72,1.73,1.73,0,0,0-.44-.6,9.06,9.06,0,0,0,3-2.06,9.77,9.77,0,0,0,2.07-3.08c0-.06,0-.08.08-.18l-.22,0-3,0a5.52,5.52,0,0,0-.93.07l0-.73a4,4,0,0,0,.72,0h.23l3.23,0a1.91,1.91,0,0,0,.49,0l.4.48a2.7,2.7,0,0,0-.17.34,11.11,11.11,0,0,1-1.49,2.53,22,22,0,0,1,3,2.72Zm-.52-7.58a7,7,0,0,1,.93,1.41l-.46.27a6.84,6.84,0,0,0-.93-1.45Zm1-.5a7.14,7.14,0,0,1,.94,1.42l-.46.25A7.34,7.34,0,0,0,53.39,12Z"/><path class="cls-1" d="M56.53,15a7.38,7.38,0,0,0,1.06,0h4.66a1.62,1.62,0,0,0,.59-.06l.34.39a3,3,0,0,0-.26.57A6.18,6.18,0,0,1,58.55,20a2.3,2.3,0,0,0-.39-.63A6.15,6.15,0,0,0,60.85,18a5.56,5.56,0,0,0,1.48-2.38H57.58a7.57,7.57,0,0,0-1,.05Zm.78-2.11a3.88,3.88,0,0,0,1,.07h3a3.74,3.74,0,0,0,1-.07v.7a5.68,5.68,0,0,0-.94,0H58.26a5.88,5.88,0,0,0-.95,0Z"/><path class="cls-1" d="M67.69,15.69l0,.15,0,.18,0,.2A8.06,8.06,0,0,1,66,19.35a2.14,2.14,0,0,0-.6-.39,5.7,5.7,0,0,0,1.34-2.23A4.33,4.33,0,0,0,67,15.49ZM69,13.46a3.75,3.75,0,0,0-.06-.93h.75a4.86,4.86,0,0,0,0,1v.59H71.9A5.39,5.39,0,0,0,73,14v.69a8.3,8.3,0,0,0-1,0H69.61v4.52a4.85,4.85,0,0,0,0,1h-.75a4.52,4.52,0,0,0,.06-.95V14.66H66.74a8.3,8.3,0,0,0-1,0V14a5.27,5.27,0,0,0,1,.06H69Zm2.55,2a5.71,5.71,0,0,0,.33,1A8.15,8.15,0,0,0,73.26,19a2.09,2.09,0,0,0-.57.43,10.81,10.81,0,0,1-1.58-3.12,4.3,4.3,0,0,0-.23-.59Zm.26-3.37a7.57,7.57,0,0,1,.93,1.38l-.47.26a7.22,7.22,0,0,0-.91-1.4Zm1.13-.33a7.64,7.64,0,0,1,.93,1.41l-.45.27a6.47,6.47,0,0,0-.93-1.43Z"/><polygon class="cls-3" points="194.38 9.43 195.29 20.12 203.5 13.21 196.59 21.42 207.28 22.34 196.59 23.25 203.5 31.46 195.29 24.55 194.38 35.25 193.46 24.55 185.25 31.46 192.16 23.25 181.47 22.34 192.16 21.42 185.25 13.21 193.46 20.12 194.38 9.43"/><path class="cls-5" d="M194.28,35.25l-.9-10.5-8.07,6.79-.14-.14L192,23.34l-10.5-.9v-.2l10.5-.9-6.79-8.07.14-.14,8.07,6.79.9-10.5h.2l.9,10.5,8.06-6.79.14.14-6.79,8.07,10.5.9v.2l-10.5.9,6.79,8.06-.14.14-8.06-6.79-.9,10.5Zm-.74-10.9.84,9.74.83-9.74,7.47,6.3-6.29-7.48,9.74-.83-9.74-.84L202.68,14l-7.47,6.29-.83-9.73-.84,9.73L186.07,14l6.29,7.47-9.73.84,9.73.83-6.29,7.48Z"/></g></g></svg>